solid miniband_bottom_support_v6
   facet normal -7.073753e-002 9.974950e-001 0.000000e+000
      outer loop
         vertex 4.325000e+001 1.838400e+001 3.000050e+000
         vertex 4.325000e+001 1.838400e+001 5.000000e-005
         vertex 3.669331e+001 1.780358e+001 5.000000e-005
      endloop
   endfacet
   facet normal -1.055925e-001 9.944095e-001 0.000000e+000
      outer loop
         vertex 4.325000e+001 1.838400e+001 3.000050e+000
         vertex 3.669331e+001 1.780358e+001 5.000000e-005
         vertex 3.669331e+001 1.780358e+001 3.000050e+000
      endloop
   endfacet
   facet normal -1.747877e-001 9.846061e-001 0.000000e+000
      outer loop
         vertex 3.669331e+001 1.780358e+001 3.000050e+000
         vertex 3.669331e+001 1.780358e+001 5.000000e-005
         vertex 3.023343e+001 1.653985e+001 5.000000e-005
      endloop
   endfacet
   facet normal -2.091281e-001 9.778883e-001 0.000000e+000
      outer loop
         vertex 3.669331e+001 1.780358e+001 3.000050e+000
         vertex 3.023343e+001 1.653985e+001 5.000000e-005
         vertex 3.023343e+001 1.653985e+001 3.000050e+000
      endloop
   endfacet
   facet normal -2.769166e-001 9.608940e-001 0.000000e+000
      outer loop
         vertex 3.023343e+001 1.653985e+001 3.000050e+000
         vertex 3.023343e+001 1.653985e+001 5.000000e-005
         vertex 2.394137e+001 1.460672e+001 5.000000e-005
      endloop
   endfacet
   facet normal -3.103648e-001 9.506176e-001 0.000000e+000
      outer loop
         vertex 3.023343e+001 1.653985e+001 3.000050e+000
         vertex 2.394137e+001 1.460672e+001 5.000000e-005
         vertex 2.394137e+001 1.460672e+001 3.000050e+000
      endloop
   endfacet
   facet normal -3.760014e-001 9.266191e-001 0.000000e+000
      outer loop
         vertex 2.394137e+001 1.460672e+001 3.000050e+000
         vertex 2.394137e+001 1.460672e+001 5.000000e-005
         vertex 1.788629e+001 1.202542e+001 5.000000e-005
      endloop
   endfacet
   facet normal -4.081899e-001 9.128971e-001 0.000000e+000
      outer loop
         vertex 2.394137e+001 1.460672e+001 3.000050e+000
         vertex 1.788629e+001 1.202542e+001 5.000000e-005
         vertex 1.788629e+001 1.202542e+001 3.000050e+000
      endloop
   endfacet
   facet normal -4.709530e-001 8.821583e-001 0.000000e+000
      outer loop
         vertex 1.788629e+001 1.202542e+001 3.000050e+000
         vertex 1.788629e+001 1.202542e+001 5.000000e-005
         vertex 1.213476e+001 8.824339e+000 5.000000e-005
      endloop
   endfacet
   facet normal -5.015278e-001 8.651416e-001 0.000000e+000
      outer loop
         vertex 1.788629e+001 1.202542e+001 3.000050e+000
         vertex 1.213476e+001 8.824339e+000 5.000000e-005
         vertex 1.213476e+001 8.824339e+000 3.000050e+000
      endloop
   endfacet
   facet normal -5.607277e-001 8.280003e-001 0.000000e+000
      outer loop
         vertex 1.213476e+001 8.824339e+000 3.000050e+000
         vertex 1.213476e+001 8.824339e+000 5.000000e-005
         vertex 6.750000e+000 5.038656e+000 5.000000e-005
      endloop
   endfacet
   facet normal -5.893527e-001 8.078759e-001 0.000000e+000
      outer loop
         vertex 1.213476e+001 8.824339e+000 3.000050e+000
         vertex 6.750000e+000 5.038656e+000 5.000000e-005
         vertex 6.750000e+000 5.038656e+000 3.000050e+000
      endloop
   endfacet
   facet normal 1.000000e+000 0.000000e+000 0.000000e+000
      outer loop
         vertex 6.750000e+000 7.924331e+000 3.000050e+000
         vertex 6.750000e+000 5.038656e+000 3.000050e+000
         vertex 6.750000e+000 7.924331e+000 5.000000e-005
      endloop
   endfacet
   facet normal 1.000000e+000 0.000000e+000 0.000000e+000
      outer loop
         vertex 6.750000e+000 7.924331e+000 5.000000e-005
         vertex 6.750000e+000 5.038656e+000 3.000050e+000
         vertex 6.750000e+000 5.038656e+000 5.000000e-005
      endloop
   endfacet
   facet normal -1.000000e+000 0.000000e+000 0.000000e+000
      outer loop
         vertex 2.250000e+000 4.000000e+000 3.000050e+000
         vertex 2.250000e+000 4.868766e+000 3.000050e+000
         vertex 2.250000e+000 4.000000e+000 5.000000e-005
      endloop
   endfacet
   facet normal -1.000000e+000 0.000000e+000 0.000000e+000
      outer loop
         vertex 2.250000e+000 4.000000e+000 5.000000e-005
         vertex 2.250000e+000 4.868766e+000 3.000050e+000
         vertex 2.250000e+000 4.868766e+000 5.000000e-005
      endloop
   endfacet
   facet normal 6.003650e-001 -7.997261e-001 0.000000e+000
      outer loop
         vertex 8.770823e+000 8.942872e-001 3.000050e+000
         vertex 8.770823e+000 8.942872e-001 5.000000e-005
         vertex 1.413884e+001 4.767225e+000 5.000000e-005
      endloop
   endfacet
   facet normal 5.696192e-001 -8.219088e-001 0.000000e+000
      outer loop
         vertex 8.770823e+000 8.942872e-001 3.000050e+000
         vertex 1.413884e+001 4.767225e+000 5.000000e-005
         vertex 1.413884e+001 4.767225e+000 3.000050e+000
      endloop
   endfacet
   facet normal 5.058104e-001 -8.626447e-001 0.000000e+000
      outer loop
         vertex 1.413884e+001 4.767225e+000 3.000050e+000
         vertex 1.413884e+001 4.767225e+000 5.000000e-005
         vertex 1.991139e+001 8.006495e+000 5.000000e-005
      endloop
   endfacet
   facet normal 4.727475e-001 -8.811979e-001 0.000000e+000
      outer loop
         vertex 1.413884e+001 4.767225e+000 3.000050e+000
         vertex 1.991139e+001 8.006495e+000 5.000000e-005
         vertex 1.991139e+001 8.006495e+000 3.000050e+000
      endloop
   endfacet
   facet normal 4.047311e-001 -9.144357e-001 0.000000e+000
      outer loop
         vertex 1.991139e+001 8.006495e+000 3.000050e+000
         vertex 1.991139e+001 8.006495e+000 5.000000e-005
         vertex 2.601402e+001 1.057031e+001 5.000000e-005
      endloop
   endfacet
   facet normal 3.697777e-001 -9.291202e-001 0.000000e+000
      outer loop
         vertex 1.991139e+001 8.006495e+000 3.000050e+000
         vertex 2.601402e+001 1.057031e+001 5.000000e-005
         vertex 2.601402e+001 1.057031e+001 3.000050e+000
      endloop
   endfacet
   facet normal 2.984311e-001 -9.544312e-001 0.000000e+000
      outer loop
         vertex 2.601402e+001 1.057031e+001 3.000050e+000
         vertex 2.601402e+001 1.057031e+001 5.000000e-005
         vertex 3.236800e+001 1.242560e+001 5.000000e-005
      endloop
   endfacet
   facet normal 2.620380e-001 -9.650576e-001 0.000000e+000
      outer loop
         vertex 2.601402e+001 1.057031e+001 3.000050e+000
         vertex 3.236800e+001 1.242560e+001 5.000000e-005
         vertex 3.236800e+001 1.242560e+001 3.000050e+000
      endloop
   endfacet
   facet normal 1.882815e-001 -9.821151e-001 0.000000e+000
      outer loop
         vertex 3.236800e+001 1.242560e+001 3.000050e+000
         vertex 3.236800e+001 1.242560e+001 5.000000e-005
         vertex 3.889138e+001 1.354844e+001 5.000000e-005
      endloop
   endfacet
   facet normal 1.509182e-001 -9.885463e-001 0.000000e+000
      outer loop
         vertex 3.236800e+001 1.242560e+001 3.000050e+000
         vertex 3.889138e+001 1.354844e+001 5.000000e-005
         vertex 3.889138e+001 1.354844e+001 3.000050e+000
      endloop
   endfacet
   facet normal 7.570321e-002 -9.971304e-001 0.000000e+000
      outer loop
         vertex 3.889138e+001 1.354844e+001 3.000050e+000
         vertex 3.889138e+001 1.354844e+001 5.000000e-005
         vertex 4.550000e+001 1.392433e+001 5.000000e-005
      endloop
   endfacet
   facet normal 3.785160e-002 -9.992834e-001 0.000000e+000
      outer loop
         vertex 3.889138e+001 1.354844e+001 3.000050e+000
         vertex 4.550000e+001 1.392433e+001 5.000000e-005
         vertex 4.550000e+001 1.392433e+001 3.000050e+000
      endloop
   endfacet
   facet normal -3.785160e-002 -9.992834e-001 0.000000e+000
      outer loop
         vertex 4.550000e+001 1.392433e+001 3.000050e+000
         vertex 4.550000e+001 1.392433e+001 5.000000e-005
         vertex 5.210862e+001 1.354844e+001 5.000000e-005
      endloop
   endfacet
   facet normal -7.570321e-002 -9.971304e-001 0.000000e+000
      outer loop
         vertex 4.550000e+001 1.392433e+001 3.000050e+000
         vertex 5.210862e+001 1.354844e+001 5.000000e-005
         vertex 5.210862e+001 1.354844e+001 3.000050e+000
      endloop
   endfacet
   facet normal -1.509182e-001 -9.885463e-001 0.000000e+000
      outer loop
         vertex 5.210862e+001 1.354844e+001 3.000050e+000
         vertex 5.210862e+001 1.354844e+001 5.000000e-005
         vertex 5.863200e+001 1.242560e+001 5.000000e-005
      endloop
   endfacet
   facet normal -1.882815e-001 -9.821151e-001 0.000000e+000
      outer loop
         vertex 5.210862e+001 1.354844e+001 3.000050e+000
         vertex 5.863200e+001 1.242560e+001 5.000000e-005
         vertex 5.863200e+001 1.242560e+001 3.000050e+000
      endloop
   endfacet
   facet normal -2.620380e-001 -9.650576e-001 0.000000e+000
      outer loop
         vertex 5.863200e+001 1.242560e+001 3.000050e+000
         vertex 5.863200e+001 1.242560e+001 5.000000e-005
         vertex 6.498598e+001 1.057031e+001 5.000000e-005
      endloop
   endfacet
   facet normal -2.984311e-001 -9.544312e-001 0.000000e+000
      outer loop
         vertex 5.863200e+001 1.242560e+001 3.000050e+000
         vertex 6.498598e+001 1.057031e+001 5.000000e-005
         vertex 6.498598e+001 1.057031e+001 3.000050e+000
      endloop
   endfacet
   facet normal -3.697777e-001 -9.291202e-001 0.000000e+000
      outer loop
         vertex 6.498598e+001 1.057031e+001 3.000050e+000
         vertex 6.498598e+001 1.057031e+001 5.000000e-005
         vertex 7.108862e+001 8.006495e+000 5.000000e-005
      endloop
   endfacet
   facet normal -4.047311e-001 -9.144357e-001 0.000000e+000
      outer loop
         vertex 6.498598e+001 1.057031e+001 3.000050e+000
         vertex 7.108862e+001 8.006495e+000 5.000000e-005
         vertex 7.108862e+001 8.006495e+000 3.000050e+000
      endloop
   endfacet
   facet normal -4.727475e-001 -8.811979e-001 0.000000e+000
      outer loop
         vertex 7.108862e+001 8.006495e+000 3.000050e+000
         vertex 7.108862e+001 8.006495e+000 5.000000e-005
         vertex 7.686117e+001 4.767225e+000 5.000000e-005
      endloop
   endfacet
   facet normal -5.058104e-001 -8.626447e-001 0.000000e+000
      outer loop
         vertex 7.108862e+001 8.006495e+000 3.000050e+000
         vertex 7.686117e+001 4.767225e+000 5.000000e-005
         vertex 7.686117e+001 4.767225e+000 3.000050e+000
      endloop
   endfacet
   facet normal -5.696192e-001 -8.219088e-001 0.000000e+000
      outer loop
         vertex 7.686117e+001 4.767225e+000 3.000050e+000
         vertex 7.686117e+001 4.767225e+000 5.000000e-005
         vertex 8.222918e+001 8.942872e-001 5.000000e-005
      endloop
   endfacet
   facet normal -6.003650e-001 -7.997261e-001 0.000000e+000
      outer loop
         vertex 7.686117e+001 4.767225e+000 3.000050e+000
         vertex 8.222918e+001 8.942872e-001 5.000000e-005
         vertex 8.222918e+001 8.942872e-001 3.000050e+000
      endloop
   endfacet
   facet normal 1.000000e+000 0.000000e+000 0.000000e+000
      outer loop
         vertex 8.875001e+001 4.000000e+000 5.000000e-005
         vertex 8.875001e+001 4.868766e+000 5.000000e-005
         vertex 8.875001e+001 4.000000e+000 3.000050e+000
      endloop
   endfacet
   facet normal 1.000000e+000 0.000000e+000 0.000000e+000
      outer loop
         vertex 8.875001e+001 4.000000e+000 3.000050e+000
         vertex 8.875001e+001 4.868766e+000 5.000000e-005
         vertex 8.875001e+001 4.868766e+000 3.000050e+000
      endloop
   endfacet
   facet normal -1.000000e+000 0.000000e+000 0.000000e+000
      outer loop
         vertex 8.425000e+001 7.924331e+000 5.000000e-005
         vertex 8.425000e+001 5.038656e+000 5.000000e-005
         vertex 8.425000e+001 7.924331e+000 3.000050e+000
      endloop
   endfacet
   facet normal -1.000000e+000 0.000000e+000 0.000000e+000
      outer loop
         vertex 8.425000e+001 7.924331e+000 3.000050e+000
         vertex 8.425000e+001 5.038656e+000 5.000000e-005
         vertex 8.425000e+001 5.038656e+000 3.000050e+000
      endloop
   endfacet
   facet normal 5.893527e-001 8.078759e-001 0.000000e+000
      outer loop
         vertex 8.425000e+001 5.038656e+000 3.000050e+000
         vertex 8.425000e+001 5.038656e+000 5.000000e-005
         vertex 7.886523e+001 8.824339e+000 5.000000e-005
      endloop
   endfacet
   facet normal 5.607276e-001 8.280003e-001 0.000000e+000
      outer loop
         vertex 8.425000e+001 5.038656e+000 3.000050e+000
         vertex 7.886523e+001 8.824339e+000 5.000000e-005
         vertex 7.886523e+001 8.824339e+000 3.000050e+000
      endloop
   endfacet
   facet normal 5.015278e-001 8.651416e-001 0.000000e+000
      outer loop
         vertex 7.886523e+001 8.824339e+000 3.000050e+000
         vertex 7.886523e+001 8.824339e+000 5.000000e-005
         vertex 7.311371e+001 1.202542e+001 5.000000e-005
      endloop
   endfacet
   facet normal 4.709531e-001 8.821583e-001 0.000000e+000
      outer loop
         vertex 7.886523e+001 8.824339e+000 3.000050e+000
         vertex 7.311371e+001 1.202542e+001 5.000000e-005
         vertex 7.311371e+001 1.202542e+001 3.000050e+000
      endloop
   endfacet
   facet normal 4.081899e-001 9.128971e-001 0.000000e+000
      outer loop
         vertex 7.311371e+001 1.202542e+001 3.000050e+000
         vertex 7.311371e+001 1.202542e+001 5.000000e-005
         vertex 6.705863e+001 1.460672e+001 5.000000e-005
      endloop
   endfacet
   facet normal 3.760014e-001 9.266191e-001 0.000000e+000
      outer loop
         vertex 7.311371e+001 1.202542e+001 3.000050e+000
         vertex 6.705863e+001 1.460672e+001 5.000000e-005
         vertex 6.705863e+001 1.460672e+001 3.000050e+000
      endloop
   endfacet
   facet normal 3.103648e-001 9.506176e-001 0.000000e+000
      outer loop
         vertex 6.705863e+001 1.460672e+001 3.000050e+000
         vertex 6.705863e+001 1.460672e+001 5.000000e-005
         vertex 6.076657e+001 1.653985e+001 5.000000e-005
      endloop
   endfacet
   facet normal 2.769166e-001 9.608940e-001 0.000000e+000
      outer loop
         vertex 6.705863e+001 1.460672e+001 3.000050e+000
         vertex 6.076657e+001 1.653985e+001 5.000000e-005
         vertex 6.076657e+001 1.653985e+001 3.000050e+000
      endloop
   endfacet
   facet normal 2.091281e-001 9.778883e-001 0.000000e+000
      outer loop
         vertex 6.076657e+001 1.653985e+001 3.000050e+000
         vertex 6.076657e+001 1.653985e+001 5.000000e-005
         vertex 5.430669e+001 1.780358e+001 5.000000e-005
      endloop
   endfacet
   facet normal 1.747877e-001 9.846061e-001 0.000000e+000
      outer loop
         vertex 6.076657e+001 1.653985e+001 3.000050e+000
         vertex 5.430669e+001 1.780358e+001 5.000000e-005
         vertex 5.430669e+001 1.780358e+001 3.000050e+000
      endloop
   endfacet
   facet normal 1.055925e-001 9.944095e-001 0.000000e+000
      outer loop
         vertex 5.430669e+001 1.780358e+001 3.000050e+000
         vertex 5.430669e+001 1.780358e+001 5.000000e-005
         vertex 4.775000e+001 1.838400e+001 5.000000e-005
      endloop
   endfacet
   facet normal 7.073753e-002 9.974950e-001 0.000000e+000
      outer loop
         vertex 5.430669e+001 1.780358e+001 3.000050e+000
         vertex 4.775000e+001 1.838400e+001 5.000000e-005
         vertex 4.775000e+001 1.838400e+001 3.000050e+000
      endloop
   endfacet
   facet normal 0.000000e+000 0.000000e+000 1.000000e+000
      outer loop
         vertex 0.000000e+000 7.924331e+000 3.000050e+000
         vertex 0.000000e+000 3.465984e+000 3.000050e+000
         vertex 2.250000e+000 4.868766e+000 3.000050e+000
      endloop
   endfacet
   facet normal 0.000000e+000 0.000000e+000 1.000000e+000
      outer loop
         vertex 2.250000e+000 4.868766e+000 3.000050e+000
         vertex 5.500000e+000 1.008939e+001 3.000050e+000
         vertex 4.250000e+000 1.042433e+001 3.000050e+000
      endloop
   endfacet
   facet normal 0.000000e+000 0.000000e+000 1.000000e+000
      outer loop
         vertex 8.550000e+001 1.008939e+001 3.000050e+000
         vertex 8.875001e+001 4.868766e+000 3.000050e+000
         vertex 8.675000e+001 1.042433e+001 3.000050e+000
      endloop
   endfacet
   facet normal 0.000000e+000 0.000000e+000 1.000000e+000
      outer loop
         vertex 8.675000e+001 1.042433e+001 3.000050e+000
         vertex 8.875001e+001 4.868766e+000 3.000050e+000
         vertex 8.850000e+001 1.042433e+001 3.000050e+000
      endloop
   endfacet
   facet normal 0.000000e+000 0.000000e+000 1.000000e+000
      outer loop
         vertex 4.775000e+001 2.042433e+001 3.000050e+000
         vertex 4.900000e+001 2.042433e+001 3.000050e+000
         vertex 4.852880e+001 2.145285e+001 3.000050e+000
      endloop
   endfacet
   facet normal 0.000000e+000 0.000000e+000 1.000000e+000
      outer loop
         vertex 6.415063e+000 9.174331e+000 3.000050e+000
         vertex 5.500000e+000 1.008939e+001 3.000050e+000
         vertex 6.750000e+000 7.924331e+000 3.000050e+000
      endloop
   endfacet
   facet normal 0.000000e+000 0.000000e+000 1.000000e+000
      outer loop
         vertex 6.750000e+000 7.924331e+000 3.000050e+000
         vertex 5.500000e+000 1.008939e+001 3.000050e+000
         vertex 2.250000e+000 4.868766e+000 3.000050e+000
      endloop
   endfacet
   facet normal 0.000000e+000 0.000000e+000 1.000000e+000
      outer loop
         vertex 6.750000e+000 7.924331e+000 3.000050e+000
         vertex 2.250000e+000 4.868766e+000 3.000050e+000
         vertex 6.750000e+000 5.038656e+000 3.000050e+000
      endloop
   endfacet
   facet normal 0.000000e+000 0.000000e+000 1.000000e+000
      outer loop
         vertex 6.750000e+000 5.038656e+000 3.000050e+000
         vertex 2.250000e+000 4.868766e+000 3.000050e+000
         vertex 2.250000e+000 4.000000e+000 3.000050e+000
      endloop
   endfacet
   facet normal 0.000000e+000 0.000000e+000 1.000000e+000
      outer loop
         vertex 8.723316e+001 8.640938e-001 3.000050e+000
         vertex 8.835088e+001 2.258255e+000 3.000050e+000
         vertex 8.425000e+001 5.038656e+000 3.000050e+000
      endloop
   endfacet
   facet normal 0.000000e+000 0.000000e+000 1.000000e+000
      outer loop
         vertex 8.425000e+001 5.038656e+000 3.000050e+000
         vertex 8.835088e+001 2.258255e+000 3.000050e+000
         vertex 8.875001e+001 4.000000e+000 3.000050e+000
      endloop
   endfacet
   facet normal 0.000000e+000 0.000000e+000 1.000000e+000
      outer loop
         vertex 8.425000e+001 5.038656e+000 3.000050e+000
         vertex 8.875001e+001 4.000000e+000 3.000050e+000
         vertex 8.425000e+001 7.924331e+000 3.000050e+000
      endloop
   endfacet
   facet normal 0.000000e+000 0.000000e+000 1.000000e+000
      outer loop
         vertex 8.425000e+001 7.924331e+000 3.000050e+000
         vertex 8.875001e+001 4.000000e+000 3.000050e+000
         vertex 8.875001e+001 4.868766e+000 3.000050e+000
      endloop
   endfacet
   facet normal 0.000000e+000 0.000000e+000 1.000000e+000
      outer loop
         vertex 8.425000e+001 7.924331e+000 3.000050e+000
         vertex 8.875001e+001 4.868766e+000 3.000050e+000
         vertex 8.458494e+001 9.174331e+000 3.000050e+000
      endloop
   endfacet
   facet normal 0.000000e+000 0.000000e+000 1.000000e+000
      outer loop
         vertex 8.458494e+001 9.174331e+000 3.000050e+000
         vertex 8.875001e+001 4.868766e+000 3.000050e+000
         vertex 8.550000e+001 1.008939e+001 3.000050e+000
      endloop
   endfacet
   facet normal 0.000000e+000 0.000000e+000 1.000000e+000
      outer loop
         vertex 4.247120e+001 2.145285e+001 3.000050e+000
         vertex 4.200000e+001 2.042433e+001 3.000050e+000
         vertex 4.334752e+001 2.216836e+001 3.000050e+000
      endloop
   endfacet
   facet normal 0.000000e+000 0.000000e+000 1.000000e+000
      outer loop
         vertex 4.334752e+001 2.216836e+001 3.000050e+000
         vertex 4.200000e+001 2.042433e+001 3.000050e+000
         vertex 4.325000e+001 2.042433e+001 3.000050e+000
      endloop
   endfacet
   facet normal 0.000000e+000 0.000000e+000 1.000000e+000
      outer loop
         vertex 4.334752e+001 2.216836e+001 3.000050e+000
         vertex 4.325000e+001 2.042433e+001 3.000050e+000
         vertex 4.444949e+001 2.242433e+001 3.000050e+000
      endloop
   endfacet
   facet normal 0.000000e+000 0.000000e+000 1.000000e+000
      outer loop
         vertex 3.349362e-001 9.174331e+000 3.000050e+000
         vertex 0.000000e+000 7.924331e+000 3.000050e+000
         vertex 1.250000e+000 1.008939e+001 3.000050e+000
      endloop
   endfacet
   facet normal 0.000000e+000 0.000000e+000 1.000000e+000
      outer loop
         vertex 1.250000e+000 1.008939e+001 3.000050e+000
         vertex 0.000000e+000 7.924331e+000 3.000050e+000
         vertex 2.250000e+000 4.868766e+000 3.000050e+000
      endloop
   endfacet
   facet normal 0.000000e+000 0.000000e+000 1.000000e+000
      outer loop
         vertex 1.250000e+000 1.008939e+001 3.000050e+000
         vertex 2.250000e+000 4.868766e+000 3.000050e+000
         vertex 2.500000e+000 1.042433e+001 3.000050e+000
      endloop
   endfacet
   facet normal 0.000000e+000 0.000000e+000 1.000000e+000
      outer loop
         vertex 2.500000e+000 1.042433e+001 3.000050e+000
         vertex 2.250000e+000 4.868766e+000 3.000050e+000
         vertex 4.250000e+000 1.042433e+001 3.000050e+000
      endloop
   endfacet
   facet normal 0.000000e+000 0.000000e+000 1.000000e+000
      outer loop
         vertex 8.975000e+001 1.008939e+001 3.000050e+000
         vertex 8.850000e+001 1.042433e+001 3.000050e+000
         vertex 9.066506e+001 9.174331e+000 3.000050e+000
      endloop
   endfacet
   facet normal 0.000000e+000 0.000000e+000 1.000000e+000
      outer loop
         vertex 9.066506e+001 9.174331e+000 3.000050e+000
         vertex 8.850000e+001 1.042433e+001 3.000050e+000
         vertex 8.875001e+001 4.868766e+000 3.000050e+000
      endloop
   endfacet
   facet normal 0.000000e+000 0.000000e+000 1.000000e+000
      outer loop
         vertex 9.066506e+001 9.174331e+000 3.000050e+000
         vertex 8.875001e+001 4.868766e+000 3.000050e+000
         vertex 9.100000e+001 7.924331e+000 3.000050e+000
      endloop
   endfacet
   facet normal 0.000000e+000 0.000000e+000 1.000000e+000
      outer loop
         vertex 9.100000e+001 7.924331e+000 3.000050e+000
         vertex 8.875001e+001 4.868766e+000 3.000050e+000
         vertex 9.100000e+001 3.465984e+000 3.000050e+000
      endloop
   endfacet
   facet normal 0.000000e+000 0.000000e+000 1.000000e+000
      outer loop
         vertex 5.863200e+001 1.242560e+001 3.000050e+000
         vertex 6.498598e+001 1.057031e+001 3.000050e+000
         vertex 6.705863e+001 1.460672e+001 3.000050e+000
      endloop
   endfacet
   facet normal 0.000000e+000 0.000000e+000 1.000000e+000
      outer loop
         vertex 4.325000e+001 2.042433e+001 3.000050e+000
         vertex 4.775000e+001 1.838400e+001 3.000050e+000
         vertex 4.444949e+001 2.242433e+001 3.000050e+000
      endloop
   endfacet
   facet normal 0.000000e+000 0.000000e+000 1.000000e+000
      outer loop
         vertex 4.444949e+001 2.242433e+001 3.000050e+000
         vertex 4.775000e+001 1.838400e+001 3.000050e+000
         vertex 4.775000e+001 2.042433e+001 3.000050e+000
      endloop
   endfacet
   facet normal 0.000000e+000 0.000000e+000 1.000000e+000
      outer loop
         vertex 4.444949e+001 2.242433e+001 3.000050e+000
         vertex 4.775000e+001 2.042433e+001 3.000050e+000
         vertex 4.655051e+001 2.242433e+001 3.000050e+000
      endloop
   endfacet
   facet normal 0.000000e+000 0.000000e+000 1.000000e+000
      outer loop
         vertex 4.655051e+001 2.242433e+001 3.000050e+000
         vertex 4.775000e+001 2.042433e+001 3.000050e+000
         vertex 4.852880e+001 2.145285e+001 3.000050e+000
      endloop
   endfacet
   facet normal 0.000000e+000 0.000000e+000 1.000000e+000
      outer loop
         vertex 4.655051e+001 2.242433e+001 3.000050e+000
         vertex 4.852880e+001 2.145285e+001 3.000050e+000
         vertex 4.765249e+001 2.216836e+001 3.000050e+000
      endloop
   endfacet
   facet normal 0.000000e+000 0.000000e+000 1.000000e+000
      outer loop
         vertex 5.380096e+000 9.573717e-002 3.000050e+000
         vertex 6.750000e+000 5.038656e+000 3.000050e+000
         vertex 3.766838e+000 8.640938e-001 3.000050e+000
      endloop
   endfacet
   facet normal 0.000000e+000 0.000000e+000 1.000000e+000
      outer loop
         vertex 3.766838e+000 8.640938e-001 3.000050e+000
         vertex 6.750000e+000 5.038656e+000 3.000050e+000
         vertex 2.250000e+000 4.000000e+000 3.000050e+000
      endloop
   endfacet
   facet normal 0.000000e+000 0.000000e+000 1.000000e+000
      outer loop
         vertex 3.766838e+000 8.640938e-001 3.000050e+000
         vertex 2.250000e+000 4.000000e+000 3.000050e+000
         vertex 2.649122e+000 2.258255e+000 3.000050e+000
      endloop
   endfacet
   facet normal 0.000000e+000 0.000000e+000 1.000000e+000
      outer loop
         vertex 6.705863e+001 1.460672e+001 3.000050e+000
         vertex 6.498598e+001 1.057031e+001 3.000050e+000
         vertex 7.311371e+001 1.202542e+001 3.000050e+000
      endloop
   endfacet
   facet normal 0.000000e+000 0.000000e+000 1.000000e+000
      outer loop
         vertex 7.311371e+001 1.202542e+001 3.000050e+000
         vertex 6.498598e+001 1.057031e+001 3.000050e+000
         vertex 7.108862e+001 8.006495e+000 3.000050e+000
      endloop
   endfacet
   facet normal 0.000000e+000 0.000000e+000 1.000000e+000
      outer loop
         vertex 7.311371e+001 1.202542e+001 3.000050e+000
         vertex 7.108862e+001 8.006495e+000 3.000050e+000
         vertex 7.886523e+001 8.824339e+000 3.000050e+000
      endloop
   endfacet
   facet normal 0.000000e+000 0.000000e+000 1.000000e+000
      outer loop
         vertex 7.886523e+001 8.824339e+000 3.000050e+000
         vertex 7.108862e+001 8.006495e+000 3.000050e+000
         vertex 7.686117e+001 4.767225e+000 3.000050e+000
      endloop
   endfacet
   facet normal 0.000000e+000 0.000000e+000 1.000000e+000
      outer loop
         vertex 7.886523e+001 8.824339e+000 3.000050e+000
         vertex 7.686117e+001 4.767225e+000 3.000050e+000
         vertex 8.425000e+001 5.038656e+000 3.000050e+000
      endloop
   endfacet
   facet normal 0.000000e+000 0.000000e+000 1.000000e+000
      outer loop
         vertex 5.380096e+000 9.573717e-002 3.000050e+000
         vertex 7.166954e+000 1.065188e-001 3.000050e+000
         vertex 6.750000e+000 5.038656e+000 3.000050e+000
      endloop
   endfacet
   facet normal 0.000000e+000 0.000000e+000 1.000000e+000
      outer loop
         vertex 6.750000e+000 5.038656e+000 3.000050e+000
         vertex 7.166954e+000 1.065188e-001 3.000050e+000
         vertex 8.770823e+000 8.942872e-001 3.000050e+000
      endloop
   endfacet
   facet normal 0.000000e+000 0.000000e+000 1.000000e+000
      outer loop
         vertex 6.750000e+000 5.038656e+000 3.000050e+000
         vertex 8.770823e+000 8.942872e-001 3.000050e+000
         vertex 1.213476e+001 8.824339e+000 3.000050e+000
      endloop
   endfacet
   facet normal 0.000000e+000 0.000000e+000 1.000000e+000
      outer loop
         vertex 1.213476e+001 8.824339e+000 3.000050e+000
         vertex 8.770823e+000 8.942872e-001 3.000050e+000
         vertex 1.413884e+001 4.767225e+000 3.000050e+000
      endloop
   endfacet
   facet normal 0.000000e+000 0.000000e+000 1.000000e+000
      outer loop
         vertex 1.213476e+001 8.824339e+000 3.000050e+000
         vertex 1.413884e+001 4.767225e+000 3.000050e+000
         vertex 1.788629e+001 1.202542e+001 3.000050e+000
      endloop
   endfacet
   facet normal 0.000000e+000 0.000000e+000 1.000000e+000
      outer loop
         vertex 1.788629e+001 1.202542e+001 3.000050e+000
         vertex 1.413884e+001 4.767225e+000 3.000050e+000
         vertex 1.991139e+001 8.006495e+000 3.000050e+000
      endloop
   endfacet
   facet normal 0.000000e+000 0.000000e+000 1.000000e+000
      outer loop
         vertex 1.788629e+001 1.202542e+001 3.000050e+000
         vertex 1.991139e+001 8.006495e+000 3.000050e+000
         vertex 2.394137e+001 1.460672e+001 3.000050e+000
      endloop
   endfacet
   facet normal 0.000000e+000 0.000000e+000 1.000000e+000
      outer loop
         vertex 2.394137e+001 1.460672e+001 3.000050e+000
         vertex 1.991139e+001 8.006495e+000 3.000050e+000
         vertex 2.601402e+001 1.057031e+001 3.000050e+000
      endloop
   endfacet
   facet normal 0.000000e+000 0.000000e+000 1.000000e+000
      outer loop
         vertex 2.394137e+001 1.460672e+001 3.000050e+000
         vertex 2.601402e+001 1.057031e+001 3.000050e+000
         vertex 3.023343e+001 1.653985e+001 3.000050e+000
      endloop
   endfacet
   facet normal 0.000000e+000 0.000000e+000 1.000000e+000
      outer loop
         vertex 3.023343e+001 1.653985e+001 3.000050e+000
         vertex 2.601402e+001 1.057031e+001 3.000050e+000
         vertex 3.236800e+001 1.242560e+001 3.000050e+000
      endloop
   endfacet
   facet normal 0.000000e+000 0.000000e+000 1.000000e+000
      outer loop
         vertex 3.023343e+001 1.653985e+001 3.000050e+000
         vertex 3.236800e+001 1.242560e+001 3.000050e+000
         vertex 3.669331e+001 1.780358e+001 3.000050e+000
      endloop
   endfacet
   facet normal 0.000000e+000 0.000000e+000 1.000000e+000
      outer loop
         vertex 3.669331e+001 1.780358e+001 3.000050e+000
         vertex 3.236800e+001 1.242560e+001 3.000050e+000
         vertex 3.889138e+001 1.354844e+001 3.000050e+000
      endloop
   endfacet
   facet normal 0.000000e+000 0.000000e+000 1.000000e+000
      outer loop
         vertex 3.669331e+001 1.780358e+001 3.000050e+000
         vertex 3.889138e+001 1.354844e+001 3.000050e+000
         vertex 4.325000e+001 1.838400e+001 3.000050e+000
      endloop
   endfacet
   facet normal 0.000000e+000 0.000000e+000 1.000000e+000
      outer loop
         vertex 4.325000e+001 1.838400e+001 3.000050e+000
         vertex 3.889138e+001 1.354844e+001 3.000050e+000
         vertex 4.550000e+001 1.392433e+001 3.000050e+000
      endloop
   endfacet
   facet normal 0.000000e+000 0.000000e+000 1.000000e+000
      outer loop
         vertex 4.325000e+001 1.838400e+001 3.000050e+000
         vertex 4.550000e+001 1.392433e+001 3.000050e+000
         vertex 5.210862e+001 1.354844e+001 3.000050e+000
      endloop
   endfacet
   facet normal 0.000000e+000 0.000000e+000 1.000000e+000
      outer loop
         vertex 4.325000e+001 2.042433e+001 3.000050e+000
         vertex 4.325000e+001 1.838400e+001 3.000050e+000
         vertex 4.775000e+001 1.838400e+001 3.000050e+000
      endloop
   endfacet
   facet normal 0.000000e+000 0.000000e+000 1.000000e+000
      outer loop
         vertex 4.775000e+001 1.838400e+001 3.000050e+000
         vertex 4.325000e+001 1.838400e+001 3.000050e+000
         vertex 5.210862e+001 1.354844e+001 3.000050e+000
      endloop
   endfacet
   facet normal 0.000000e+000 0.000000e+000 1.000000e+000
      outer loop
         vertex 4.775000e+001 1.838400e+001 3.000050e+000
         vertex 5.210862e+001 1.354844e+001 3.000050e+000
         vertex 5.430669e+001 1.780358e+001 3.000050e+000
      endloop
   endfacet
   facet normal 0.000000e+000 0.000000e+000 1.000000e+000
      outer loop
         vertex 5.430669e+001 1.780358e+001 3.000050e+000
         vertex 5.210862e+001 1.354844e+001 3.000050e+000
         vertex 5.863200e+001 1.242560e+001 3.000050e+000
      endloop
   endfacet
   facet normal 0.000000e+000 0.000000e+000 1.000000e+000
      outer loop
         vertex 5.430669e+001 1.780358e+001 3.000050e+000
         vertex 5.863200e+001 1.242560e+001 3.000050e+000
         vertex 6.076657e+001 1.653985e+001 3.000050e+000
      endloop
   endfacet
   facet normal 0.000000e+000 0.000000e+000 1.000000e+000
      outer loop
         vertex 6.076657e+001 1.653985e+001 3.000050e+000
         vertex 5.863200e+001 1.242560e+001 3.000050e+000
         vertex 6.705863e+001 1.460672e+001 3.000050e+000
      endloop
   endfacet
   facet normal 0.000000e+000 0.000000e+000 1.000000e+000
      outer loop
         vertex 8.561990e+001 9.573717e-002 3.000050e+000
         vertex 8.723316e+001 8.640938e-001 3.000050e+000
         vertex 8.383305e+001 1.065188e-001 3.000050e+000
      endloop
   endfacet
   facet normal 0.000000e+000 0.000000e+000 1.000000e+000
      outer loop
         vertex 8.383305e+001 1.065188e-001 3.000050e+000
         vertex 8.723316e+001 8.640938e-001 3.000050e+000
         vertex 8.425000e+001 5.038656e+000 3.000050e+000
      endloop
   endfacet
   facet normal 0.000000e+000 0.000000e+000 1.000000e+000
      outer loop
         vertex 8.383305e+001 1.065188e-001 3.000050e+000
         vertex 8.425000e+001 5.038656e+000 3.000050e+000
         vertex 8.222918e+001 8.942872e-001 3.000050e+000
      endloop
   endfacet
   facet normal 0.000000e+000 0.000000e+000 1.000000e+000
      outer loop
         vertex 8.222918e+001 8.942872e-001 3.000050e+000
         vertex 8.425000e+001 5.038656e+000 3.000050e+000
         vertex 7.686117e+001 4.767225e+000 3.000050e+000
      endloop
   endfacet
   facet normal 0.000000e+000 0.000000e+000 -1.000000e+000
      outer loop
         vertex 9.100000e+001 7.924331e+000 5.000000e-005
         vertex 9.100000e+001 3.465984e+000 5.000000e-005
         vertex 8.875001e+001 4.868766e+000 5.000000e-005
      endloop
   endfacet
   facet normal 0.000000e+000 0.000000e+000 -1.000000e+000
      outer loop
         vertex 4.852880e+001 2.145285e+001 5.000000e-005
         vertex 4.900000e+001 2.042433e+001 5.000000e-005
         vertex 4.775000e+001 2.042433e+001 5.000000e-005
      endloop
   endfacet
   facet normal 0.000000e+000 0.000000e+000 -1.000000e+000
      outer loop
         vertex 8.550000e+001 1.008939e+001 5.000000e-005
         vertex 8.675000e+001 1.042433e+001 5.000000e-005
         vertex 8.875001e+001 4.868766e+000 5.000000e-005
      endloop
   endfacet
   facet normal 0.000000e+000 0.000000e+000 -1.000000e+000
      outer loop
         vertex 8.875001e+001 4.868766e+000 5.000000e-005
         vertex 8.675000e+001 1.042433e+001 5.000000e-005
         vertex 8.850000e+001 1.042433e+001 5.000000e-005
      endloop
   endfacet
   facet normal 0.000000e+000 0.000000e+000 -1.000000e+000
      outer loop
         vertex 8.458494e+001 9.174331e+000 5.000000e-005
         vertex 8.550000e+001 1.008939e+001 5.000000e-005
         vertex 8.425000e+001 7.924331e+000 5.000000e-005
      endloop
   endfacet
   facet normal 0.000000e+000 0.000000e+000 -1.000000e+000
      outer loop
         vertex 8.425000e+001 7.924331e+000 5.000000e-005
         vertex 8.550000e+001 1.008939e+001 5.000000e-005
         vertex 8.875001e+001 4.868766e+000 5.000000e-005
      endloop
   endfacet
   facet normal 0.000000e+000 0.000000e+000 -1.000000e+000
      outer loop
         vertex 8.425000e+001 7.924331e+000 5.000000e-005
         vertex 8.875001e+001 4.868766e+000 5.000000e-005
         vertex 8.425000e+001 5.038656e+000 5.000000e-005
      endloop
   endfacet
   facet normal 0.000000e+000 0.000000e+000 -1.000000e+000
      outer loop
         vertex 8.425000e+001 5.038656e+000 5.000000e-005
         vertex 8.875001e+001 4.868766e+000 5.000000e-005
         vertex 8.875001e+001 4.000000e+000 5.000000e-005
      endloop
   endfacet
   facet normal 0.000000e+000 0.000000e+000 -1.000000e+000
      outer loop
         vertex 5.500000e+000 1.008939e+001 5.000000e-005
         vertex 6.415063e+000 9.174331e+000 5.000000e-005
         vertex 2.250000e+000 4.868766e+000 5.000000e-005
      endloop
   endfacet
   facet normal 0.000000e+000 0.000000e+000 -1.000000e+000
      outer loop
         vertex 2.250000e+000 4.868766e+000 5.000000e-005
         vertex 6.415063e+000 9.174331e+000 5.000000e-005
         vertex 6.750000e+000 7.924331e+000 5.000000e-005
      endloop
   endfacet
   facet normal 0.000000e+000 0.000000e+000 -1.000000e+000
      outer loop
         vertex 2.250000e+000 4.868766e+000 5.000000e-005
         vertex 6.750000e+000 7.924331e+000 5.000000e-005
         vertex 2.250000e+000 4.000000e+000 5.000000e-005
      endloop
   endfacet
   facet normal 0.000000e+000 0.000000e+000 -1.000000e+000
      outer loop
         vertex 2.250000e+000 4.000000e+000 5.000000e-005
         vertex 6.750000e+000 7.924331e+000 5.000000e-005
         vertex 6.750000e+000 5.038656e+000 5.000000e-005
      endloop
   endfacet
   facet normal 0.000000e+000 0.000000e+000 -1.000000e+000
      outer loop
         vertex 2.250000e+000 4.000000e+000 5.000000e-005
         vertex 6.750000e+000 5.038656e+000 5.000000e-005
         vertex 2.649122e+000 2.258255e+000 5.000000e-005
      endloop
   endfacet
   facet normal 0.000000e+000 0.000000e+000 -1.000000e+000
      outer loop
         vertex 3.349362e-001 9.174331e+000 5.000000e-005
         vertex 1.250000e+000 1.008939e+001 5.000000e-005
         vertex 0.000000e+000 7.924331e+000 5.000000e-005
      endloop
   endfacet
   facet normal 0.000000e+000 0.000000e+000 -1.000000e+000
      outer loop
         vertex 0.000000e+000 7.924331e+000 5.000000e-005
         vertex 1.250000e+000 1.008939e+001 5.000000e-005
         vertex 2.500000e+000 1.042433e+001 5.000000e-005
      endloop
   endfacet
   facet normal 0.000000e+000 0.000000e+000 -1.000000e+000
      outer loop
         vertex 2.250000e+000 4.868766e+000 5.000000e-005
         vertex 0.000000e+000 3.465984e+000 5.000000e-005
         vertex 5.500000e+000 1.008939e+001 5.000000e-005
      endloop
   endfacet
   facet normal 0.000000e+000 0.000000e+000 -1.000000e+000
      outer loop
         vertex 5.500000e+000 1.008939e+001 5.000000e-005
         vertex 0.000000e+000 3.465984e+000 5.000000e-005
         vertex 0.000000e+000 7.924331e+000 5.000000e-005
      endloop
   endfacet
   facet normal 0.000000e+000 0.000000e+000 -1.000000e+000
      outer loop
         vertex 5.500000e+000 1.008939e+001 5.000000e-005
         vertex 0.000000e+000 7.924331e+000 5.000000e-005
         vertex 4.250000e+000 1.042433e+001 5.000000e-005
      endloop
   endfacet
   facet normal 0.000000e+000 0.000000e+000 -1.000000e+000
      outer loop
         vertex 4.250000e+000 1.042433e+001 5.000000e-005
         vertex 0.000000e+000 7.924331e+000 5.000000e-005
         vertex 2.500000e+000 1.042433e+001 5.000000e-005
      endloop
   endfacet
   facet normal 0.000000e+000 0.000000e+000 -1.000000e+000
      outer loop
         vertex 4.852880e+001 2.145285e+001 5.000000e-005
         vertex 4.775000e+001 2.042433e+001 5.000000e-005
         vertex 4.765249e+001 2.216836e+001 5.000000e-005
      endloop
   endfacet
   facet normal 0.000000e+000 0.000000e+000 -1.000000e+000
      outer loop
         vertex 4.200000e+001 2.042433e+001 5.000000e-005
         vertex 4.247120e+001 2.145285e+001 5.000000e-005
         vertex 4.325000e+001 2.042433e+001 5.000000e-005
      endloop
   endfacet
   facet normal 0.000000e+000 0.000000e+000 -1.000000e+000
      outer loop
         vertex 4.325000e+001 2.042433e+001 5.000000e-005
         vertex 4.247120e+001 2.145285e+001 5.000000e-005
         vertex 4.334752e+001 2.216836e+001 5.000000e-005
      endloop
   endfacet
   facet normal 0.000000e+000 0.000000e+000 -1.000000e+000
      outer loop
         vertex 4.334752e+001 2.216836e+001 5.000000e-005
         vertex 4.444949e+001 2.242433e+001 5.000000e-005
         vertex 4.325000e+001 2.042433e+001 5.000000e-005
      endloop
   endfacet
   facet normal 0.000000e+000 0.000000e+000 -1.000000e+000
      outer loop
         vertex 4.325000e+001 2.042433e+001 5.000000e-005
         vertex 4.444949e+001 2.242433e+001 5.000000e-005
         vertex 4.655051e+001 2.242433e+001 5.000000e-005
      endloop
   endfacet
   facet normal 0.000000e+000 0.000000e+000 -1.000000e+000
      outer loop
         vertex 4.325000e+001 2.042433e+001 5.000000e-005
         vertex 4.655051e+001 2.242433e+001 5.000000e-005
         vertex 4.325000e+001 1.838400e+001 5.000000e-005
      endloop
   endfacet
   facet normal 0.000000e+000 0.000000e+000 -1.000000e+000
      outer loop
         vertex 8.850000e+001 1.042433e+001 5.000000e-005
         vertex 8.975000e+001 1.008939e+001 5.000000e-005
         vertex 8.875001e+001 4.868766e+000 5.000000e-005
      endloop
   endfacet
   facet normal 0.000000e+000 0.000000e+000 -1.000000e+000
      outer loop
         vertex 8.875001e+001 4.868766e+000 5.000000e-005
         vertex 8.975000e+001 1.008939e+001 5.000000e-005
         vertex 9.066506e+001 9.174331e+000 5.000000e-005
      endloop
   endfacet
   facet normal 0.000000e+000 0.000000e+000 -1.000000e+000
      outer loop
         vertex 8.875001e+001 4.868766e+000 5.000000e-005
         vertex 9.066506e+001 9.174331e+000 5.000000e-005
         vertex 9.100000e+001 7.924331e+000 5.000000e-005
      endloop
   endfacet
   facet normal 0.000000e+000 0.000000e+000 -1.000000e+000
      outer loop
         vertex 6.750000e+000 5.038656e+000 5.000000e-005
         vertex 8.770823e+000 8.942872e-001 5.000000e-005
         vertex 7.166954e+000 1.065188e-001 5.000000e-005
      endloop
   endfacet
   facet normal 0.000000e+000 0.000000e+000 -1.000000e+000
      outer loop
         vertex 2.649122e+000 2.258255e+000 5.000000e-005
         vertex 6.750000e+000 5.038656e+000 5.000000e-005
         vertex 3.766838e+000 8.640938e-001 5.000000e-005
      endloop
   endfacet
   facet normal 0.000000e+000 0.000000e+000 -1.000000e+000
      outer loop
         vertex 3.766838e+000 8.640938e-001 5.000000e-005
         vertex 6.750000e+000 5.038656e+000 5.000000e-005
         vertex 7.166954e+000 1.065188e-001 5.000000e-005
      endloop
   endfacet
   facet normal 0.000000e+000 0.000000e+000 -1.000000e+000
      outer loop
         vertex 3.766838e+000 8.640938e-001 5.000000e-005
         vertex 7.166954e+000 1.065188e-001 5.000000e-005
         vertex 5.380096e+000 9.573717e-002 5.000000e-005
      endloop
   endfacet
   facet normal 0.000000e+000 0.000000e+000 -1.000000e+000
      outer loop
         vertex 8.770823e+000 8.942872e-001 5.000000e-005
         vertex 6.750000e+000 5.038656e+000 5.000000e-005
         vertex 1.413884e+001 4.767225e+000 5.000000e-005
      endloop
   endfacet
   facet normal 0.000000e+000 0.000000e+000 -1.000000e+000
      outer loop
         vertex 1.413884e+001 4.767225e+000 5.000000e-005
         vertex 6.750000e+000 5.038656e+000 5.000000e-005
         vertex 1.213476e+001 8.824339e+000 5.000000e-005
      endloop
   endfacet
   facet normal 0.000000e+000 0.000000e+000 -1.000000e+000
      outer loop
         vertex 1.413884e+001 4.767225e+000 5.000000e-005
         vertex 1.213476e+001 8.824339e+000 5.000000e-005
         vertex 1.991139e+001 8.006495e+000 5.000000e-005
      endloop
   endfacet
   facet normal 0.000000e+000 0.000000e+000 -1.000000e+000
      outer loop
         vertex 1.991139e+001 8.006495e+000 5.000000e-005
         vertex 1.213476e+001 8.824339e+000 5.000000e-005
         vertex 1.788629e+001 1.202542e+001 5.000000e-005
      endloop
   endfacet
   facet normal 0.000000e+000 0.000000e+000 -1.000000e+000
      outer loop
         vertex 1.991139e+001 8.006495e+000 5.000000e-005
         vertex 1.788629e+001 1.202542e+001 5.000000e-005
         vertex 2.601402e+001 1.057031e+001 5.000000e-005
      endloop
   endfacet
   facet normal 0.000000e+000 0.000000e+000 -1.000000e+000
      outer loop
         vertex 2.601402e+001 1.057031e+001 5.000000e-005
         vertex 1.788629e+001 1.202542e+001 5.000000e-005
         vertex 2.394137e+001 1.460672e+001 5.000000e-005
      endloop
   endfacet
   facet normal 0.000000e+000 0.000000e+000 -1.000000e+000
      outer loop
         vertex 2.601402e+001 1.057031e+001 5.000000e-005
         vertex 2.394137e+001 1.460672e+001 5.000000e-005
         vertex 3.236800e+001 1.242560e+001 5.000000e-005
      endloop
   endfacet
   facet normal 0.000000e+000 0.000000e+000 -1.000000e+000
      outer loop
         vertex 3.236800e+001 1.242560e+001 5.000000e-005
         vertex 2.394137e+001 1.460672e+001 5.000000e-005
         vertex 3.023343e+001 1.653985e+001 5.000000e-005
      endloop
   endfacet
   facet normal 0.000000e+000 0.000000e+000 -1.000000e+000
      outer loop
         vertex 3.236800e+001 1.242560e+001 5.000000e-005
         vertex 3.023343e+001 1.653985e+001 5.000000e-005
         vertex 3.889138e+001 1.354844e+001 5.000000e-005
      endloop
   endfacet
   facet normal 0.000000e+000 0.000000e+000 -1.000000e+000
      outer loop
         vertex 3.889138e+001 1.354844e+001 5.000000e-005
         vertex 3.023343e+001 1.653985e+001 5.000000e-005
         vertex 3.669331e+001 1.780358e+001 5.000000e-005
      endloop
   endfacet
   facet normal 0.000000e+000 0.000000e+000 -1.000000e+000
      outer loop
         vertex 3.889138e+001 1.354844e+001 5.000000e-005
         vertex 3.669331e+001 1.780358e+001 5.000000e-005
         vertex 4.550000e+001 1.392433e+001 5.000000e-005
      endloop
   endfacet
   facet normal 0.000000e+000 0.000000e+000 -1.000000e+000
      outer loop
         vertex 4.550000e+001 1.392433e+001 5.000000e-005
         vertex 3.669331e+001 1.780358e+001 5.000000e-005
         vertex 4.325000e+001 1.838400e+001 5.000000e-005
      endloop
   endfacet
   facet normal 0.000000e+000 0.000000e+000 -1.000000e+000
      outer loop
         vertex 4.550000e+001 1.392433e+001 5.000000e-005
         vertex 4.325000e+001 1.838400e+001 5.000000e-005
         vertex 5.210862e+001 1.354844e+001 5.000000e-005
      endloop
   endfacet
   facet normal 0.000000e+000 0.000000e+000 -1.000000e+000
      outer loop
         vertex 8.561990e+001 9.573717e-002 5.000000e-005
         vertex 8.425000e+001 5.038656e+000 5.000000e-005
         vertex 8.723316e+001 8.640938e-001 5.000000e-005
      endloop
   endfacet
   facet normal 0.000000e+000 0.000000e+000 -1.000000e+000
      outer loop
         vertex 8.723316e+001 8.640938e-001 5.000000e-005
         vertex 8.425000e+001 5.038656e+000 5.000000e-005
         vertex 8.875001e+001 4.000000e+000 5.000000e-005
      endloop
   endfacet
   facet normal 0.000000e+000 0.000000e+000 -1.000000e+000
      outer loop
         vertex 8.723316e+001 8.640938e-001 5.000000e-005
         vertex 8.875001e+001 4.000000e+000 5.000000e-005
         vertex 8.835088e+001 2.258255e+000 5.000000e-005
      endloop
   endfacet
   facet normal 0.000000e+000 0.000000e+000 -1.000000e+000
      outer loop
         vertex 8.561990e+001 9.573717e-002 5.000000e-005
         vertex 8.383305e+001 1.065188e-001 5.000000e-005
         vertex 8.425000e+001 5.038656e+000 5.000000e-005
      endloop
   endfacet
   facet normal 0.000000e+000 0.000000e+000 -1.000000e+000
      outer loop
         vertex 8.425000e+001 5.038656e+000 5.000000e-005
         vertex 8.383305e+001 1.065188e-001 5.000000e-005
         vertex 8.222918e+001 8.942872e-001 5.000000e-005
      endloop
   endfacet
   facet normal 0.000000e+000 0.000000e+000 -1.000000e+000
      outer loop
         vertex 8.425000e+001 5.038656e+000 5.000000e-005
         vertex 8.222918e+001 8.942872e-001 5.000000e-005
         vertex 7.886523e+001 8.824339e+000 5.000000e-005
      endloop
   endfacet
   facet normal 0.000000e+000 0.000000e+000 -1.000000e+000
      outer loop
         vertex 7.886523e+001 8.824339e+000 5.000000e-005
         vertex 8.222918e+001 8.942872e-001 5.000000e-005
         vertex 7.686117e+001 4.767225e+000 5.000000e-005
      endloop
   endfacet
   facet normal 0.000000e+000 0.000000e+000 -1.000000e+000
      outer loop
         vertex 7.886523e+001 8.824339e+000 5.000000e-005
         vertex 7.686117e+001 4.767225e+000 5.000000e-005
         vertex 7.311371e+001 1.202542e+001 5.000000e-005
      endloop
   endfacet
   facet normal 0.000000e+000 0.000000e+000 -1.000000e+000
      outer loop
         vertex 7.311371e+001 1.202542e+001 5.000000e-005
         vertex 7.686117e+001 4.767225e+000 5.000000e-005
         vertex 7.108862e+001 8.006495e+000 5.000000e-005
      endloop
   endfacet
   facet normal 0.000000e+000 0.000000e+000 -1.000000e+000
      outer loop
         vertex 7.311371e+001 1.202542e+001 5.000000e-005
         vertex 7.108862e+001 8.006495e+000 5.000000e-005
         vertex 6.705863e+001 1.460672e+001 5.000000e-005
      endloop
   endfacet
   facet normal 0.000000e+000 0.000000e+000 -1.000000e+000
      outer loop
         vertex 6.705863e+001 1.460672e+001 5.000000e-005
         vertex 7.108862e+001 8.006495e+000 5.000000e-005
         vertex 6.498598e+001 1.057031e+001 5.000000e-005
      endloop
   endfacet
   facet normal 0.000000e+000 0.000000e+000 -1.000000e+000
      outer loop
         vertex 6.705863e+001 1.460672e+001 5.000000e-005
         vertex 6.498598e+001 1.057031e+001 5.000000e-005
         vertex 6.076657e+001 1.653985e+001 5.000000e-005
      endloop
   endfacet
   facet normal 0.000000e+000 0.000000e+000 -1.000000e+000
      outer loop
         vertex 6.076657e+001 1.653985e+001 5.000000e-005
         vertex 6.498598e+001 1.057031e+001 5.000000e-005
         vertex 5.863200e+001 1.242560e+001 5.000000e-005
      endloop
   endfacet
   facet normal 0.000000e+000 0.000000e+000 -1.000000e+000
      outer loop
         vertex 6.076657e+001 1.653985e+001 5.000000e-005
         vertex 5.863200e+001 1.242560e+001 5.000000e-005
         vertex 5.430669e+001 1.780358e+001 5.000000e-005
      endloop
   endfacet
   facet normal 0.000000e+000 0.000000e+000 -1.000000e+000
      outer loop
         vertex 5.430669e+001 1.780358e+001 5.000000e-005
         vertex 5.863200e+001 1.242560e+001 5.000000e-005
         vertex 5.210862e+001 1.354844e+001 5.000000e-005
      endloop
   endfacet
   facet normal 0.000000e+000 0.000000e+000 -1.000000e+000
      outer loop
         vertex 5.430669e+001 1.780358e+001 5.000000e-005
         vertex 5.210862e+001 1.354844e+001 5.000000e-005
         vertex 4.775000e+001 1.838400e+001 5.000000e-005
      endloop
   endfacet
   facet normal 0.000000e+000 0.000000e+000 -1.000000e+000
      outer loop
         vertex 4.775000e+001 1.838400e+001 5.000000e-005
         vertex 5.210862e+001 1.354844e+001 5.000000e-005
         vertex 4.325000e+001 1.838400e+001 5.000000e-005
      endloop
   endfacet
   facet normal 0.000000e+000 0.000000e+000 -1.000000e+000
      outer loop
         vertex 4.775000e+001 1.838400e+001 5.000000e-005
         vertex 4.325000e+001 1.838400e+001 5.000000e-005
         vertex 4.775000e+001 2.042433e+001 5.000000e-005
      endloop
   endfacet
   facet normal 0.000000e+000 0.000000e+000 -1.000000e+000
      outer loop
         vertex 4.775000e+001 2.042433e+001 5.000000e-005
         vertex 4.325000e+001 1.838400e+001 5.000000e-005
         vertex 4.655051e+001 2.242433e+001 5.000000e-005
      endloop
   endfacet
   facet normal 0.000000e+000 0.000000e+000 -1.000000e+000
      outer loop
         vertex 4.775000e+001 2.042433e+001 5.000000e-005
         vertex 4.655051e+001 2.242433e+001 5.000000e-005
         vertex 4.765249e+001 2.216836e+001 5.000000e-005
      endloop
   endfacet
   facet normal 1.000000e+000 -1.067522e-015 0.000000e+000
      outer loop
         vertex 4.775000e+001 2.042433e+001 5.000000e-005
         vertex 4.775000e+001 2.042433e+001 3.000050e+000
         vertex 4.775000e+001 1.838400e+001 5.000000e-005
      endloop
   endfacet
   facet normal 1.000000e+000 -1.067522e-015 0.000000e+000
      outer loop
         vertex 4.775000e+001 1.838400e+001 5.000000e-005
         vertex 4.775000e+001 2.042433e+001 3.000050e+000
         vertex 4.775000e+001 1.838400e+001 3.000050e+000
      endloop
   endfacet
   facet normal -1.000000e+000 1.067522e-015 0.000000e+000
      outer loop
         vertex 4.325000e+001 1.838400e+001 3.000050e+000
         vertex 4.325000e+001 2.042433e+001 3.000050e+000
         vertex 4.325000e+001 1.838400e+001 5.000000e-005
      endloop
   endfacet
   facet normal -1.000000e+000 1.067522e-015 0.000000e+000
      outer loop
         vertex 4.325000e+001 1.838400e+001 5.000000e-005
         vertex 4.325000e+001 2.042433e+001 3.000050e+000
         vertex 4.325000e+001 2.042433e+001 5.000000e-005
      endloop
   endfacet
   facet normal 5.290582e-001 -8.485855e-001 0.000000e+000
      outer loop
         vertex 2.250000e+000 4.868766e+000 3.000050e+000
         vertex 0.000000e+000 3.465984e+000 3.000050e+000
         vertex 2.250000e+000 4.868766e+000 5.000000e-005
      endloop
   endfacet
   facet normal 5.290582e-001 -8.485855e-001 0.000000e+000
      outer loop
         vertex 2.250000e+000 4.868766e+000 5.000000e-005
         vertex 0.000000e+000 3.465984e+000 3.000050e+000
         vertex 0.000000e+000 3.465984e+000 5.000000e-005
      endloop
   endfacet
   facet normal -1.000000e+000 0.000000e+000 0.000000e+000
      outer loop
         vertex 0.000000e+000 7.924331e+000 5.000000e-005
         vertex 0.000000e+000 3.465984e+000 5.000000e-005
         vertex 0.000000e+000 7.924331e+000 3.000050e+000
      endloop
   endfacet
   facet normal -1.000000e+000 0.000000e+000 0.000000e+000
      outer loop
         vertex 0.000000e+000 7.924331e+000 3.000050e+000
         vertex 0.000000e+000 3.465984e+000 5.000000e-005
         vertex 0.000000e+000 3.465984e+000 3.000050e+000
      endloop
   endfacet
   facet normal 0.000000e+000 1.000000e+000 0.000000e+000
      outer loop
         vertex 2.500000e+000 1.042433e+001 3.000050e+000
         vertex 4.250000e+000 1.042433e+001 3.000050e+000
         vertex 2.500000e+000 1.042433e+001 5.000000e-005
      endloop
   endfacet
   facet normal 0.000000e+000 1.000000e+000 0.000000e+000
      outer loop
         vertex 2.500000e+000 1.042433e+001 5.000000e-005
         vertex 4.250000e+000 1.042433e+001 3.000050e+000
         vertex 4.250000e+000 1.042433e+001 5.000000e-005
      endloop
   endfacet
   facet normal 0.000000e+000 1.000000e+000 0.000000e+000
      outer loop
         vertex 8.850000e+001 1.042433e+001 5.000000e-005
         vertex 8.675000e+001 1.042433e+001 5.000000e-005
         vertex 8.850000e+001 1.042433e+001 3.000050e+000
      endloop
   endfacet
   facet normal 0.000000e+000 1.000000e+000 0.000000e+000
      outer loop
         vertex 8.850000e+001 1.042433e+001 3.000050e+000
         vertex 8.675000e+001 1.042433e+001 5.000000e-005
         vertex 8.675000e+001 1.042433e+001 3.000050e+000
      endloop
   endfacet
   facet normal 1.000000e+000 0.000000e+000 0.000000e+000
      outer loop
         vertex 9.100000e+001 7.924331e+000 3.000050e+000
         vertex 9.100000e+001 3.465984e+000 3.000050e+000
         vertex 9.100000e+001 7.924331e+000 5.000000e-005
      endloop
   endfacet
   facet normal 1.000000e+000 0.000000e+000 0.000000e+000
      outer loop
         vertex 9.100000e+001 7.924331e+000 5.000000e-005
         vertex 9.100000e+001 3.465984e+000 3.000050e+000
         vertex 9.100000e+001 3.465984e+000 5.000000e-005
      endloop
   endfacet
   facet normal -5.290582e-001 -8.485855e-001 0.000000e+000
      outer loop
         vertex 8.875001e+001 4.868766e+000 5.000000e-005
         vertex 9.100000e+001 3.465984e+000 5.000000e-005
         vertex 8.875001e+001 4.868766e+000 3.000050e+000
      endloop
   endfacet
   facet normal -5.290582e-001 -8.485855e-001 0.000000e+000
      outer loop
         vertex 8.875001e+001 4.868766e+000 3.000050e+000
         vertex 9.100000e+001 3.465984e+000 5.000000e-005
         vertex 9.100000e+001 3.465984e+000 3.000050e+000
      endloop
   endfacet
   facet normal -5.079404e-001 -8.613921e-001 0.000000e+000
      outer loop
         vertex 8.222918e+001 8.942872e-001 3.000050e+000
         vertex 8.222918e+001 8.942872e-001 5.000000e-005
         vertex 8.383305e+001 1.065188e-001 5.000000e-005
      endloop
   endfacet
   facet normal -3.712187e-001 -9.285454e-001 0.000000e+000
      outer loop
         vertex 8.222918e+001 8.942872e-001 3.000050e+000
         vertex 8.383305e+001 1.065188e-001 5.000000e-005
         vertex 8.383305e+001 1.065188e-001 3.000050e+000
      endloop
   endfacet
   facet normal -8.217650e-002 -9.966178e-001 0.000000e+000
      outer loop
         vertex 8.383305e+001 1.065188e-001 3.000050e+000
         vertex 8.383305e+001 1.065188e-001 5.000000e-005
         vertex 8.561990e+001 9.573717e-002 5.000000e-005
      endloop
   endfacet
   facet normal 7.014403e-002 -9.975368e-001 0.000000e+000
      outer loop
         vertex 8.383305e+001 1.065188e-001 3.000050e+000
         vertex 8.561990e+001 9.573717e-002 5.000000e-005
         vertex 8.561990e+001 9.573717e-002 3.000050e+000
      endloop
   endfacet
   facet normal 3.599867e-001 -9.329574e-001 0.000000e+000
      outer loop
         vertex 8.561990e+001 9.573717e-002 3.000050e+000
         vertex 8.561990e+001 9.573717e-002 5.000000e-005
         vertex 8.723316e+001 8.640938e-001 5.000000e-005
      endloop
   endfacet
   facet normal 4.975088e-001 -8.674589e-001 0.000000e+000
      outer loop
         vertex 8.561990e+001 9.573717e-002 3.000050e+000
         vertex 8.723316e+001 8.640938e-001 5.000000e-005
         vertex 8.723316e+001 8.640938e-001 3.000050e+000
      endloop
   endfacet
   facet normal 7.303106e-001 -6.831152e-001 0.000000e+000
      outer loop
         vertex 8.723316e+001 8.640938e-001 3.000050e+000
         vertex 8.723316e+001 8.640938e-001 5.000000e-005
         vertex 8.835088e+001 2.258255e+000 5.000000e-005
      endloop
   endfacet
   facet normal 8.255903e-001 -5.642701e-001 0.000000e+000
      outer loop
         vertex 8.723316e+001 8.640938e-001 3.000050e+000
         vertex 8.835088e+001 2.258255e+000 5.000000e-005
         vertex 8.835088e+001 2.258255e+000 3.000050e+000
      endloop
   endfacet
   facet normal 9.548931e-001 -2.969499e-001 0.000000e+000
      outer loop
         vertex 8.835088e+001 2.258255e+000 3.000050e+000
         vertex 8.835088e+001 2.258255e+000 5.000000e-005
         vertex 8.875001e+001 4.000000e+000 5.000000e-005
      endloop
   endfacet
   facet normal 9.889162e-001 -1.484750e-001 0.000000e+000
      outer loop
         vertex 8.835088e+001 2.258255e+000 3.000050e+000
         vertex 8.875001e+001 4.000000e+000 5.000000e-005
         vertex 8.875001e+001 4.000000e+000 3.000050e+000
      endloop
   endfacet
   facet normal -9.889162e-001 -1.484750e-001 0.000000e+000
      outer loop
         vertex 2.250000e+000 4.000000e+000 3.000050e+000
         vertex 2.250000e+000 4.000000e+000 5.000000e-005
         vertex 2.649122e+000 2.258255e+000 5.000000e-005
      endloop
   endfacet
   facet normal -9.548931e-001 -2.969499e-001 0.000000e+000
      outer loop
         vertex 2.250000e+000 4.000000e+000 3.000050e+000
         vertex 2.649122e+000 2.258255e+000 5.000000e-005
         vertex 2.649122e+000 2.258255e+000 3.000050e+000
      endloop
   endfacet
   facet normal -8.255903e-001 -5.642701e-001 0.000000e+000
      outer loop
         vertex 2.649122e+000 2.258255e+000 3.000050e+000
         vertex 2.649122e+000 2.258255e+000 5.000000e-005
         vertex 3.766838e+000 8.640938e-001 5.000000e-005
      endloop
   endfacet
   facet normal -7.303106e-001 -6.831152e-001 0.000000e+000
      outer loop
         vertex 2.649122e+000 2.258255e+000 3.000050e+000
         vertex 3.766838e+000 8.640938e-001 5.000000e-005
         vertex 3.766838e+000 8.640938e-001 3.000050e+000
      endloop
   endfacet
   facet normal -4.975088e-001 -8.674589e-001 0.000000e+000
      outer loop
         vertex 3.766838e+000 8.640938e-001 3.000050e+000
         vertex 3.766838e+000 8.640938e-001 5.000000e-005
         vertex 5.380096e+000 9.573717e-002 5.000000e-005
      endloop
   endfacet
   facet normal -3.599867e-001 -9.329574e-001 0.000000e+000
      outer loop
         vertex 3.766838e+000 8.640938e-001 3.000050e+000
         vertex 5.380096e+000 9.573717e-002 5.000000e-005
         vertex 5.380096e+000 9.573717e-002 3.000050e+000
      endloop
   endfacet
   facet normal -7.014402e-002 -9.975368e-001 0.000000e+000
      outer loop
         vertex 5.380096e+000 9.573717e-002 3.000050e+000
         vertex 5.380096e+000 9.573717e-002 5.000000e-005
         vertex 7.166954e+000 1.065188e-001 5.000000e-005
      endloop
   endfacet
   facet normal 8.217650e-002 -9.966178e-001 0.000000e+000
      outer loop
         vertex 5.380096e+000 9.573717e-002 3.000050e+000
         vertex 7.166954e+000 1.065188e-001 5.000000e-005
         vertex 7.166954e+000 1.065188e-001 3.000050e+000
      endloop
   endfacet
   facet normal 3.712187e-001 -9.285454e-001 0.000000e+000
      outer loop
         vertex 7.166954e+000 1.065188e-001 3.000050e+000
         vertex 7.166954e+000 1.065188e-001 5.000000e-005
         vertex 8.770823e+000 8.942872e-001 5.000000e-005
      endloop
   endfacet
   facet normal 5.079404e-001 -8.613922e-001 0.000000e+000
      outer loop
         vertex 7.166954e+000 1.065188e-001 3.000050e+000
         vertex 8.770823e+000 8.942872e-001 5.000000e-005
         vertex 8.770823e+000 8.942872e-001 3.000050e+000
      endloop
   endfacet
   facet normal -1.718619e-001 9.851210e-001 0.000000e+000
      outer loop
         vertex 8.675000e+001 1.042433e+001 3.000050e+000
         vertex 8.675000e+001 1.042433e+001 5.000000e-005
         vertex 8.550000e+001 1.008939e+001 5.000000e-005
      endloop
   endfacet
   facet normal -3.437238e-001 9.390708e-001 0.000000e+000
      outer loop
         vertex 8.675000e+001 1.042433e+001 3.000050e+000
         vertex 8.550000e+001 1.008939e+001 5.000000e-005
         vertex 8.550000e+001 1.008939e+001 3.000050e+000
      endloop
   endfacet
   facet normal -6.413973e-001 7.672089e-001 0.000000e+000
      outer loop
         vertex 8.550000e+001 1.008939e+001 3.000050e+000
         vertex 8.550000e+001 1.008939e+001 5.000000e-005
         vertex 8.458494e+001 9.174331e+000 5.000000e-005
      endloop
   endfacet
   facet normal -7.672089e-001 6.413973e-001 0.000000e+000
      outer loop
         vertex 8.550000e+001 1.008939e+001 3.000050e+000
         vertex 8.458494e+001 9.174331e+000 5.000000e-005
         vertex 8.458494e+001 9.174331e+000 3.000050e+000
      endloop
   endfacet
   facet normal -9.390708e-001 3.437238e-001 0.000000e+000
      outer loop
         vertex 8.458494e+001 9.174331e+000 3.000050e+000
         vertex 8.458494e+001 9.174331e+000 5.000000e-005
         vertex 8.425000e+001 7.924331e+000 5.000000e-005
      endloop
   endfacet
   facet normal -9.851210e-001 1.718619e-001 0.000000e+000
      outer loop
         vertex 8.458494e+001 9.174331e+000 3.000050e+000
         vertex 8.425000e+001 7.924331e+000 5.000000e-005
         vertex 8.425000e+001 7.924331e+000 3.000050e+000
      endloop
   endfacet
   facet normal 9.851210e-001 1.718619e-001 0.000000e+000
      outer loop
         vertex 6.750000e+000 7.924331e+000 3.000050e+000
         vertex 6.750000e+000 7.924331e+000 5.000000e-005
         vertex 6.415063e+000 9.174331e+000 5.000000e-005
      endloop
   endfacet
   facet normal 9.390708e-001 3.437238e-001 0.000000e+000
      outer loop
         vertex 6.750000e+000 7.924331e+000 3.000050e+000
         vertex 6.415063e+000 9.174331e+000 5.000000e-005
         vertex 6.415063e+000 9.174331e+000 3.000050e+000
      endloop
   endfacet
   facet normal 7.672089e-001 6.413973e-001 0.000000e+000
      outer loop
         vertex 6.415063e+000 9.174331e+000 3.000050e+000
         vertex 6.415063e+000 9.174331e+000 5.000000e-005
         vertex 5.500000e+000 1.008939e+001 5.000000e-005
      endloop
   endfacet
   facet normal 6.413973e-001 7.672089e-001 0.000000e+000
      outer loop
         vertex 6.415063e+000 9.174331e+000 3.000050e+000
         vertex 5.500000e+000 1.008939e+001 5.000000e-005
         vertex 5.500000e+000 1.008939e+001 3.000050e+000
      endloop
   endfacet
   facet normal 3.437238e-001 9.390708e-001 0.000000e+000
      outer loop
         vertex 5.500000e+000 1.008939e+001 3.000050e+000
         vertex 5.500000e+000 1.008939e+001 5.000000e-005
         vertex 4.250000e+000 1.042433e+001 5.000000e-005
      endloop
   endfacet
   facet normal 1.718619e-001 9.851210e-001 0.000000e+000
      outer loop
         vertex 5.500000e+000 1.008939e+001 3.000050e+000
         vertex 4.250000e+000 1.042433e+001 5.000000e-005
         vertex 4.250000e+000 1.042433e+001 3.000050e+000
      endloop
   endfacet
   facet normal 1.718619e-001 9.851210e-001 0.000000e+000
      outer loop
         vertex 8.850000e+001 1.042433e+001 5.000000e-005
         vertex 8.850000e+001 1.042433e+001 3.000050e+000
         vertex 8.975000e+001 1.008939e+001 3.000050e+000
      endloop
   endfacet
   facet normal 3.437238e-001 9.390708e-001 0.000000e+000
      outer loop
         vertex 8.850000e+001 1.042433e+001 5.000000e-005
         vertex 8.975000e+001 1.008939e+001 3.000050e+000
         vertex 8.975000e+001 1.008939e+001 5.000000e-005
      endloop
   endfacet
   facet normal 6.413973e-001 7.672089e-001 0.000000e+000
      outer loop
         vertex 8.975000e+001 1.008939e+001 5.000000e-005
         vertex 8.975000e+001 1.008939e+001 3.000050e+000
         vertex 9.066506e+001 9.174331e+000 3.000050e+000
      endloop
   endfacet
   facet normal 7.672089e-001 6.413973e-001 0.000000e+000
      outer loop
         vertex 8.975000e+001 1.008939e+001 5.000000e-005
         vertex 9.066506e+001 9.174331e+000 3.000050e+000
         vertex 9.066506e+001 9.174331e+000 5.000000e-005
      endloop
   endfacet
   facet normal 9.390708e-001 3.437238e-001 0.000000e+000
      outer loop
         vertex 9.066506e+001 9.174331e+000 5.000000e-005
         vertex 9.066506e+001 9.174331e+000 3.000050e+000
         vertex 9.100000e+001 7.924331e+000 3.000050e+000
      endloop
   endfacet
   facet normal 9.851210e-001 1.718619e-001 0.000000e+000
      outer loop
         vertex 9.066506e+001 9.174331e+000 5.000000e-005
         vertex 9.100000e+001 7.924331e+000 3.000050e+000
         vertex 9.100000e+001 7.924331e+000 5.000000e-005
      endloop
   endfacet
   facet normal -9.851210e-001 1.718619e-001 0.000000e+000
      outer loop
         vertex 0.000000e+000 7.924331e+000 5.000000e-005
         vertex 0.000000e+000 7.924331e+000 3.000050e+000
         vertex 3.349362e-001 9.174331e+000 3.000050e+000
      endloop
   endfacet
   facet normal -9.390708e-001 3.437238e-001 0.000000e+000
      outer loop
         vertex 0.000000e+000 7.924331e+000 5.000000e-005
         vertex 3.349362e-001 9.174331e+000 3.000050e+000
         vertex 3.349362e-001 9.174331e+000 5.000000e-005
      endloop
   endfacet
   facet normal -7.672089e-001 6.413973e-001 0.000000e+000
      outer loop
         vertex 3.349362e-001 9.174331e+000 5.000000e-005
         vertex 3.349362e-001 9.174331e+000 3.000050e+000
         vertex 1.250000e+000 1.008939e+001 3.000050e+000
      endloop
   endfacet
   facet normal -6.413973e-001 7.672089e-001 0.000000e+000
      outer loop
         vertex 3.349362e-001 9.174331e+000 5.000000e-005
         vertex 1.250000e+000 1.008939e+001 3.000050e+000
         vertex 1.250000e+000 1.008939e+001 5.000000e-005
      endloop
   endfacet
   facet normal -3.437238e-001 9.390708e-001 0.000000e+000
      outer loop
         vertex 1.250000e+000 1.008939e+001 5.000000e-005
         vertex 1.250000e+000 1.008939e+001 3.000050e+000
         vertex 2.500000e+000 1.042433e+001 3.000050e+000
      endloop
   endfacet
   facet normal -1.718619e-001 9.851210e-001 0.000000e+000
      outer loop
         vertex 1.250000e+000 1.008939e+001 5.000000e-005
         vertex 2.500000e+000 1.042433e+001 3.000050e+000
         vertex 2.500000e+000 1.042433e+001 5.000000e-005
      endloop
   endfacet
   facet normal 0.000000e+000 -1.000000e+000 0.000000e+000
      outer loop
         vertex 4.325000e+001 2.042433e+001 3.000050e+000
         vertex 4.200000e+001 2.042433e+001 3.000050e+000
         vertex 4.325000e+001 2.042433e+001 5.000000e-005
      endloop
   endfacet
   facet normal 0.000000e+000 -1.000000e+000 0.000000e+000
      outer loop
         vertex 4.325000e+001 2.042433e+001 5.000000e-005
         vertex 4.200000e+001 2.042433e+001 3.000050e+000
         vertex 4.200000e+001 2.042433e+001 5.000000e-005
      endloop
   endfacet
   facet normal 0.000000e+000 -1.000000e+000 0.000000e+000
      outer loop
         vertex 4.900000e+001 2.042433e+001 5.000000e-005
         vertex 4.900000e+001 2.042433e+001 3.000050e+000
         vertex 4.775000e+001 2.042433e+001 5.000000e-005
      endloop
   endfacet
   facet normal 0.000000e+000 -1.000000e+000 0.000000e+000
      outer loop
         vertex 4.775000e+001 2.042433e+001 5.000000e-005
         vertex 4.900000e+001 2.042433e+001 3.000050e+000
         vertex 4.775000e+001 2.042433e+001 3.000050e+000
      endloop
   endfacet
   facet normal 0.000000e+000 1.000000e+000 0.000000e+000
      outer loop
         vertex 4.655051e+001 2.242433e+001 5.000000e-005
         vertex 4.444949e+001 2.242433e+001 5.000000e-005
         vertex 4.655051e+001 2.242433e+001 3.000050e+000
      endloop
   endfacet
   facet normal 0.000000e+000 1.000000e+000 0.000000e+000
      outer loop
         vertex 4.655051e+001 2.242433e+001 3.000050e+000
         vertex 4.444949e+001 2.242433e+001 5.000000e-005
         vertex 4.444949e+001 2.242433e+001 3.000050e+000
      endloop
   endfacet
   facet normal 1.503920e-001 9.886265e-001 0.000000e+000
      outer loop
         vertex 4.655051e+001 2.242433e+001 5.000000e-005
         vertex 4.655051e+001 2.242433e+001 3.000050e+000
         vertex 4.765249e+001 2.216836e+001 3.000050e+000
      endloop
   endfacet
   facet normal 3.007841e-001 9.536923e-001 0.000000e+000
      outer loop
         vertex 4.655051e+001 2.242433e+001 5.000000e-005
         vertex 4.765249e+001 2.216836e+001 3.000050e+000
         vertex 4.765249e+001 2.216836e+001 5.000000e-005
      endloop
   endfacet
   facet normal 5.707708e-001 8.211095e-001 0.000000e+000
      outer loop
         vertex 4.765249e+001 2.216836e+001 5.000000e-005
         vertex 4.765249e+001 2.216836e+001 3.000050e+000
         vertex 4.852880e+001 2.145285e+001 3.000050e+000
      endloop
   endfacet
   facet normal 6.903655e-001 7.234607e-001 0.000000e+000
      outer loop
         vertex 4.765249e+001 2.216836e+001 5.000000e-005
         vertex 4.852880e+001 2.145285e+001 3.000050e+000
         vertex 4.852880e+001 2.145285e+001 5.000000e-005
      endloop
   endfacet
   facet normal 8.742670e-001 4.854455e-001 0.000000e+000
      outer loop
         vertex 4.852880e+001 2.145285e+001 5.000000e-005
         vertex 4.852880e+001 2.145285e+001 3.000050e+000
         vertex 4.900000e+001 2.042433e+001 3.000050e+000
      endloop
   endfacet
   facet normal 9.385737e-001 3.450788e-001 0.000000e+000
      outer loop
         vertex 4.852880e+001 2.145285e+001 5.000000e-005
         vertex 4.900000e+001 2.042433e+001 3.000050e+000
         vertex 4.900000e+001 2.042433e+001 5.000000e-005
      endloop
   endfacet
   facet normal -9.385737e-001 3.450788e-001 0.000000e+000
      outer loop
         vertex 4.200000e+001 2.042433e+001 5.000000e-005
         vertex 4.200000e+001 2.042433e+001 3.000050e+000
         vertex 4.247120e+001 2.145285e+001 3.000050e+000
      endloop
   endfacet
   facet normal -8.742670e-001 4.854454e-001 0.000000e+000
      outer loop
         vertex 4.200000e+001 2.042433e+001 5.000000e-005
         vertex 4.247120e+001 2.145285e+001 3.000050e+000
         vertex 4.247120e+001 2.145285e+001 5.000000e-005
      endloop
   endfacet
   facet normal -6.903655e-001 7.234607e-001 0.000000e+000
      outer loop
         vertex 4.247120e+001 2.145285e+001 5.000000e-005
         vertex 4.247120e+001 2.145285e+001 3.000050e+000
         vertex 4.334752e+001 2.216836e+001 3.000050e+000
      endloop
   endfacet
   facet normal -5.707708e-001 8.211095e-001 0.000000e+000
      outer loop
         vertex 4.247120e+001 2.145285e+001 5.000000e-005
         vertex 4.334752e+001 2.216836e+001 3.000050e+000
         vertex 4.334752e+001 2.216836e+001 5.000000e-005
      endloop
   endfacet
   facet normal -3.007841e-001 9.536923e-001 0.000000e+000
      outer loop
         vertex 4.334752e+001 2.216836e+001 5.000000e-005
         vertex 4.334752e+001 2.216836e+001 3.000050e+000
         vertex 4.444949e+001 2.242433e+001 3.000050e+000
      endloop
   endfacet
   facet normal -1.503920e-001 9.886265e-001 0.000000e+000
      outer loop
         vertex 4.334752e+001 2.216836e+001 5.000000e-005
         vertex 4.444949e+001 2.242433e+001 3.000050e+000
         vertex 4.444949e+001 2.242433e+001 5.000000e-005
      endloop
   endfacet
endsolid