<?xml version="1.0" encoding="UTF-8"?>
<svg width="103px" height="59px" viewBox="0 0 103 59" version="1.1" xmlns="http://www.w3.org/2000/svg" xmlns:xlink="http://www.w3.org/1999/xlink">
    <defs>
        <polygon id="path-1" points="0 58.7541667 102.249677 58.7541667 102.249677 0 0 0"></polygon>
    </defs>
    <g id="Page-1" stroke="none" stroke-width="1" fill="none" fill-rule="evenodd">
        <g id="MINYC-1-home-1" transform="translate(-55.000000, -11.000000)">
            <g id="Group-16-Copy" transform="translate(55.000000, 11.000000)">
                <path d="M10.4979989,16.6924005 L8.38335854,16.6924005 L8.38335854,9.80652957 L6.16859621,16.6924005 L4.27930986,16.6924005 L2.03975542,10.2096962 L2.03975542,16.6924005 L0.000127139054,16.6924005 L0.000127139054,8.28014247 L3.59116973,8.28014247 C3.59116973,8.28014247 5.067572,12.5934866 5.11779193,13.4892715 C5.13018798,13.6152016 5.26781601,14.6372339 5.26781601,14.6372339 C5.35554196,14.0437446 5.41815794,13.7791962 5.45566396,13.4638952 C5.54307206,12.5934866 6.90695627,8.28014247 6.90695627,8.28014247 L10.4979989,8.28014247 L10.4979989,16.6924005 Z" id="Fill-1" fill="#343645"></path>
                <path d="M19.0440318,8.28026935 L16.4163854,8.28026935 L13.0004769,16.6928446 L15.2902512,16.6928446 L15.8909833,15.0027801 L19.3443978,15.0027801 L19.982318,16.6928446 L22.4850503,16.6928446 L19.0440318,8.28026935 Z M18.8059639,13.4386457 L16.4913975,13.4386457 L17.6426416,9.89483925 L18.8059639,13.4386457 Z" id="Fill-3" fill="#343645"></path>
                <path d="M24.9873694,8.28026935 L24.9873694,16.6928446 L28.077802,16.6928446 C29.8294603,16.6928446 30.8179664,16.4276618 31.7314605,15.7212478 C32.5696248,15.0659038 32.9952227,13.9683769 32.9952227,12.4676833 C32.9952227,11.1684145 32.6322407,10.1343285 31.9317046,9.42823172 C31.1056186,8.6079414 30.0045943,8.28026935 28.1025941,8.28026935 L24.9873694,8.28026935 Z M27.3645519,15.0532156 L27.3645519,9.91989839 L28.2278261,9.91989839 C29.7919543,9.91989839 30.6180403,10.8277371 30.6180403,12.5178016 C30.6180403,14.2459306 29.8294603,15.0532156 28.152814,15.0532156 L27.3645519,15.0532156 Z" id="Fill-5" fill="#343645"></path>
                <polygon id="Fill-7" fill="#343645" points="41.9540444 8.28026935 41.9540444 9.91989839 38.3254958 9.91989839 38.3254958 11.5595274 41.7038983 11.5595274 41.7038983 13.1988392 38.3254958 13.1988392 38.3254958 15.0532156 42.0414525 15.0532156 42.0414525 16.6928446 36.0732275 16.6928446 36.0732275 8.28026935"></polygon>
                <mask id="mask-2" fill="white">
                    <use xlink:href="#path-1"></use>
                </mask>
                <g id="Clip-10"></g>
                <polygon id="Fill-9" fill="#343645" mask="url(#mask-2)" points="50.587994 16.6922419 52.9651765 16.6922419 52.9651765 8.27998387 50.587994 8.27998387"></polygon>
                <path d="M64.3138628,16.6924005 L60.9354603,16.6924005 C59.9593502,14.7124113 58.7203801,11.811578 58.382508,10.4498199 L58.382508,16.6924005 L56.3428798,16.6924005 L56.3428798,8.28014247 L59.4711362,8.28014247 C59.9593502,9.06205108 61.5234784,12.8082339 62.1989046,14.7755349 L62.1989046,8.28014247 L64.3138628,8.28014247 L64.3138628,16.6924005 Z" id="Fill-11" fill="#343645" mask="url(#mask-2)"></path>
                <polygon id="Fill-12" fill="#343645" mask="url(#mask-2)" points="0.00343275447 19.9366075 11.9478291 19.9366075 22.9895381 40.1742419 23.0953814 40.1742419 23.0953814 19.9366075 34.1370904 19.9366075 34.1370904 57.7622688 22.7772159 57.7622688 11.1513029 37.1011667 11.0451418 37.1011667 11.0451418 57.7622688 0.00343275447 57.7622688"></polygon>
                <polygon id="Fill-13" fill="#343645" mask="url(#mask-2)" points="43.5797397 43.8297677 30.255249 19.936671 43.1550953 19.936671 49.4716814 33.8698699 56.0546237 19.936671 68.8479911 19.936671 55.2584154 43.8297677 55.2584154 57.7623323 43.5797397 57.7623323"></polygon>
                <path d="M92.7845244,9.43695484 C92.3779973,9.34337957 91.9638418,9.29643333 91.5538184,9.29643333 C86.8668371,9.29643333 83.7144243,15.3058688 83.5825175,15.5618527 L83.566943,15.5948419 C83.337457,16.1448742 83.1464306,16.6190946 82.9852818,17.0308258 C83.7586051,12.4833849 83.840292,3.00944409 72.114257,0.00012688172 C72.114257,0.00012688172 64.835864,10.0440839 82.2221296,19.4209602 C82.1912984,19.6921699 82.2478753,19.7771806 82.2996845,19.8545785 C82.3905889,19.9906591 82.5422022,20.0718634 82.705258,20.0718634 C83.0177023,20.0718634 83.2061859,20.0718634 84.8132236,17.194186 C87.3715792,12.6121699 90.0230642,11.9282774 91.3761416,11.9282774 C91.7683655,11.9282774 92.0007122,11.9904495 92.00103,11.9904495 L92.4205889,12.1122559 L93.2695599,9.54797634 L92.7845244,9.43695484 Z" id="Fill-14" fill="#343645" mask="url(#mask-2)"></path>
                <path d="M90.1880589,42.1028124 C88.8279888,45.0493231 86.3459167,47.0956081 82.8820131,47.0956081 C78.1359122,47.0956081 74.2890023,43.2561672 74.2890023,38.5196726 C74.2890023,33.7834952 78.1359122,29.9440543 82.8820131,29.9440543 C86.3468702,29.9440543 88.8302138,31.9916081 90.1896481,34.9397048 L102.178543,34.9397048 C100.406225,25.6836833 92.7581749,18.6867909 82.9668784,18.6867909 C71.8803529,18.6867909 62.8928931,27.6563769 62.8928931,38.7201457 C62.8928931,49.7845489 71.8803529,58.7541349 82.9668784,58.7541349 C92.8980278,58.7541349 100.638253,51.5555005 102.249741,42.1028124 L90.1880589,42.1028124 Z" id="Fill-15" fill="#343645" mask="url(#mask-2)"></path>
            </g>
        </g>
    </g>
</svg>