<svg width="352" height="375" viewBox="0 0 352 375" fill="none" xmlns="http://www.w3.org/2000/svg">
<path d="M219.539 26.4177H206.824C199.724 -3.15357 151.278 -3.15357 144.178 26.4177H131.463C128.155 20.2171 116.267 7.81603 97.6591 6.88593C79.0521 5.95583 46.1781 30.138 36.8741 31.3781H12.9951C22.7121 58.4542 36.8741 75.7122 38.7351 130.277C36.9781 138.131 27.5711 155.389 4.00114 161.59C11.4441 176.058 28.8111 206.048 38.7351 210.264C31.7061 224.939 20.4381 249.948 28.1911 281.261C35.9441 312.574 59.2041 324.045 92.0771 328.075L104.482 349.467C124.95 352.774 168.306 361.558 175.501 370.239C182.696 361.558 226.052 352.774 246.52 349.467L258.925 328.075C291.798 324.045 315.058 312.574 322.811 281.261C330.564 249.948 319.296 224.939 312.267 210.264C322.191 206.048 339.558 176.058 347.001 161.59C323.431 155.389 314.024 138.131 312.267 130.277C314.128 75.7122 328.29 58.4542 338.007 31.3781H314.128C304.824 30.138 271.95 5.95583 253.343 6.88593C234.735 7.81603 222.847 20.2171 219.539 26.4177Z" fill="#F2F2F2" stroke="#BDBDBD" stroke-width="8" stroke-linejoin="round"/>
<path d="M261.804 145.391C262.818 120.931 255.266 77.5816 192.19 76.728C114.876 75.6813 123.015 146.837 120.981 156.256C119.353 163.791 111.825 187.665 107.756 194.991H126.067C126.067 203.994 126.067 220.561 126.067 230.265C126.067 234.592 129.28 238.193 133.469 238.573H162.689V278.717H247.123C247.123 278.717 226.777 241.041 238.984 208.596C242.661 198.827 248.299 188.671 252.958 178.784" fill="white"/>
<path d="M261.804 145.391C262.818 120.931 255.266 77.5816 192.19 76.728C114.876 75.6813 123.015 146.837 120.981 156.256C119.353 163.791 111.825 187.665 107.756 194.991H126.067C126.067 203.994 126.067 220.561 126.067 230.265C126.067 234.592 129.28 238.193 133.469 238.573H162.689V278.717H247.123C247.123 278.717 226.777 241.041 238.984 208.596C242.661 198.827 248.299 188.671 252.958 178.784" stroke="black" stroke-width="11" stroke-linejoin="round"/>
<path d="M88.5532 117.36C88.5532 112.78 92.0219 109.067 96.3023 109.067H187.665C191.946 109.067 195.414 112.78 195.414 117.36V229.19C195.414 234.958 191.709 239.969 186.465 241.296L107.616 261.244C97.8841 263.705 88.5532 255.804 88.5532 245.101V117.36Z" fill="white" fill-opacity="0.2" stroke="black" stroke-width="11" stroke-linejoin="round"/>
<path d="M265.783 146.149H200.04C197.735 146.149 195.866 148.018 195.866 150.324V173.281C195.866 175.586 197.735 177.455 200.04 177.455H265.783C268.088 177.455 269.957 175.586 269.957 173.281V150.324C269.957 148.018 268.088 146.149 265.783 146.149Z" stroke="black" stroke-width="11" stroke-linejoin="round"/>
</svg>
