<svg width="352" height="375" viewBox="0 0 352 375" fill="none" xmlns="http://www.w3.org/2000/svg">
<path d="M219.539 26.4177H206.824C199.724 -3.15357 151.278 -3.15357 144.178 26.4177H131.463C128.155 20.2171 116.267 7.81603 97.6591 6.88593C79.0521 5.95583 46.1781 30.138 36.8741 31.3781H12.9951C22.7121 58.4542 36.8741 75.7122 38.7351 130.277C36.9781 138.131 27.5711 155.389 4.00114 161.59C11.4441 176.058 28.8111 206.048 38.7351 210.264C31.7061 224.939 20.4381 249.948 28.1911 281.261C35.9441 312.574 59.2041 324.045 92.0771 328.075L104.482 349.467C124.95 352.774 168.306 361.558 175.501 370.239C182.696 361.558 226.052 352.774 246.52 349.467L258.925 328.075C291.798 324.045 315.058 312.574 322.811 281.261C330.564 249.948 319.296 224.939 312.267 210.264C322.191 206.048 339.558 176.058 347.001 161.59C323.431 155.389 314.024 138.131 312.267 130.277C314.128 75.7122 328.29 58.4542 338.007 31.3781H314.128C304.824 30.138 271.95 5.95583 253.343 6.88593C234.735 7.81603 222.847 20.2171 219.539 26.4177Z" stroke="black" stroke-width="8" stroke-linejoin="round"/>
<path d="M262.186 146.739C263.186 123.299 255.74 81.7583 193.554 80.9403C117.331 79.9373 125.355 148.125 123.349 157.151C121.744 164.372 114.323 187.25 110.311 194.27H128.364C128.364 202.898 128.364 218.774 128.364 228.073C128.364 232.219 131.531 235.67 135.661 236.034L162.463 238.399L164.469 274.504H247.712C247.712 274.504 227.653 238.399 239.688 207.308C243.313 197.946 248.872 188.214 253.465 178.739" stroke="black" stroke-width="8" stroke-linejoin="round"/>
<path d="M88.2471 131.052C88.2471 126.634 91.8281 123.052 96.2471 123.052H190.568C194.987 123.052 198.568 126.634 198.568 131.052V238.923C198.568 244.487 194.743 249.321 189.329 250.601L107.927 269.842C97.8801 272.216 88.2471 264.595 88.2471 254.271V131.052Z" stroke="black" stroke-width="8" stroke-linejoin="round"/>
<path d="M266.001 147.239H203.001C200.792 147.239 199.001 149.03 199.001 151.239V173.239C199.001 175.448 200.792 177.239 203.001 177.239H266.001C268.21 177.239 270.001 175.448 270.001 173.239V151.239C270.001 149.03 268.21 147.239 266.001 147.239Z" stroke="black" stroke-width="8" stroke-linejoin="round"/>
</svg>
