<svg width="364" height="387" viewBox="0 0 364 387" fill="none" xmlns="http://www.w3.org/2000/svg">
<g filter="url(#filter0_d)">
<path d="M225.539 24.4177H212.824C205.724 -5.15357 157.278 -5.15357 150.178 24.4177H137.463C134.155 18.2171 122.267 5.81603 103.659 4.88593C85.0521 3.95583 52.1781 28.138 42.8741 29.3781H18.9951C28.7121 56.4542 42.8741 73.7122 44.7351 128.277C42.9781 136.131 33.5711 153.389 10.0011 159.59C17.4441 174.058 34.8111 204.048 44.7351 208.264C37.7061 222.939 26.4381 247.948 34.1911 279.261C41.9441 310.574 65.2041 322.045 98.0771 326.075L110.482 347.467C130.95 350.774 174.306 359.558 181.501 368.239C188.696 359.558 232.052 350.774 252.52 347.467L264.925 326.075C297.798 322.045 321.058 310.574 328.811 279.261C336.564 247.948 325.296 222.939 318.267 208.264C328.191 204.048 345.558 174.058 353.001 159.59C329.431 153.389 320.024 136.131 318.267 128.277C320.128 73.7122 334.29 56.4542 344.007 29.3781H320.128C310.824 28.138 277.95 3.95583 259.343 4.88593C240.735 5.81603 228.847 18.2171 225.539 24.4177Z" fill="#006DFF"/>
</g>
<path d="M268.186 144.739C269.186 121.299 261.74 79.7583 199.554 78.9403C123.331 77.9373 131.355 146.125 129.349 155.151C127.744 162.372 120.323 185.25 116.311 192.27H134.364C134.364 200.898 134.364 216.774 134.364 226.073C134.364 230.219 137.531 233.67 141.661 234.034L168.463 236.399L170.469 272.504H253.712C253.712 272.504 233.653 236.399 245.688 205.308C249.313 195.946 254.872 186.214 259.465 176.739" fill="white"/>
<path d="M268.186 144.739C269.186 121.299 261.74 79.7583 199.554 78.9403C123.331 77.9373 131.355 146.125 129.349 155.151C127.744 162.372 120.323 185.25 116.311 192.27H134.364C134.364 200.898 134.364 216.774 134.364 226.073C134.364 230.219 137.531 233.67 141.661 234.034L168.463 236.399L170.469 272.504H253.712C253.712 272.504 233.653 236.399 245.688 205.308C249.313 195.946 254.872 186.214 259.465 176.739" stroke="black" stroke-width="8" stroke-linejoin="round"/>
<path d="M94.2471 121.052C94.2471 116.634 97.8281 113.052 102.247 113.052H196.568C200.987 113.052 204.568 116.634 204.568 121.052V228.923C204.568 234.487 200.743 239.321 195.329 240.601L113.927 259.842C103.88 262.216 94.2471 254.595 94.2471 244.271V121.052Z" fill="white" fill-opacity="0.6" stroke="black" stroke-width="8" stroke-linejoin="round"/>
<path d="M272.001 137.239H209.001C206.792 137.239 205.001 139.03 205.001 141.239V163.239C205.001 165.448 206.792 167.239 209.001 167.239H272.001C274.21 167.239 276.001 165.448 276.001 163.239V141.239C276.001 139.03 274.21 137.239 272.001 137.239Z" stroke="black" stroke-width="8" stroke-linejoin="round"/>
<defs>
<filter id="filter0_d" x="0.00114441" y="0.239258" width="363" height="386" filterUnits="userSpaceOnUse" color-interpolation-filters="sRGB">
<feFlood flood-opacity="0" result="BackgroundImageFix"/>
<feColorMatrix in="SourceAlpha" type="matrix" values="0 0 0 0 0 0 0 0 0 0 0 0 0 0 0 0 0 0 127 0"/>
<feOffset dy="8"/>
<feGaussianBlur stdDeviation="5"/>
<feColorMatrix type="matrix" values="0 0 0 0 0 0 0 0 0 0 0 0 0 0 0 0 0 0 0.1 0"/>
<feBlend mode="normal" in2="BackgroundImageFix" result="effect1_dropShadow"/>
<feBlend mode="normal" in="SourceGraphic" in2="effect1_dropShadow" result="shape"/>
</filter>
</defs>
</svg>
