<svg width="357" height="380" viewBox="0 0 357 380" fill="none" xmlns="http://www.w3.org/2000/svg">
<path d="M222.538 29.1785H209.823C202.723 -0.392826 154.277 -0.392826 147.177 29.1785H134.462C131.154 22.9779 119.266 10.5768 100.658 9.64668C82.051 8.71658 49.177 32.8988 39.873 34.1389H15.994C25.711 61.215 39.873 78.473 41.734 133.038C39.977 140.892 30.57 158.15 7 164.351C14.443 178.819 31.81 208.809 41.734 213.025C34.705 227.7 23.437 252.709 31.19 284.022C38.943 315.335 62.203 326.806 95.076 330.836L107.481 352.228C127.949 355.535 171.305 364.319 178.5 373C185.695 364.319 229.051 355.535 249.519 352.228L261.924 330.836C294.797 326.806 318.057 315.335 325.81 284.022C333.563 252.709 322.295 227.7 315.266 213.025C325.19 208.809 342.557 178.819 350 164.351C326.43 158.15 317.023 140.892 315.266 133.038C317.127 78.473 331.289 61.215 341.006 34.1389H317.127C307.823 32.8988 274.949 8.71658 256.342 9.64668C237.734 10.5768 225.846 22.9779 222.538 29.1785Z" fill="#F2F2F2" stroke="#BDBDBD" stroke-width="13" stroke-linejoin="round"/>
<path d="M265.185 149.5C266.185 126.06 258.739 84.519 196.553 83.701C120.33 82.698 128.354 150.886 126.348 159.912C124.743 167.133 117.322 190.011 113.31 197.031H131.363C131.363 205.659 131.363 221.535 131.363 230.834C131.363 234.98 134.53 238.431 138.66 238.795L165.462 241.16L167.468 277.265H250.711C250.711 277.265 230.652 241.16 242.687 210.069C246.312 200.707 251.871 190.975 256.464 181.5" stroke="black" stroke-width="13" stroke-linejoin="round"/>
<path d="M87.246 125.813C87.246 121.395 90.827 117.813 95.246 117.813H189.567C193.986 117.813 197.567 121.395 197.567 125.813V233.684C197.567 239.248 193.742 244.082 188.328 245.362L106.926 264.603C96.879 266.977 87.246 259.356 87.246 249.032V125.813Z" fill="white" fill-opacity="0.5" stroke="black" stroke-width="13" stroke-linejoin="round"/>
<path d="M268.75 150H201.817C199.47 150 197.567 151.791 197.567 154V176C197.567 178.209 199.47 180 201.817 180H268.75C271.097 180 273 178.209 273 176V154C273 151.791 271.097 150 268.75 150Z" stroke="black" stroke-width="13" stroke-linejoin="round"/>
</svg>
