<svg xmlns="http://www.w3.org/2000/svg" width="90" height="50" viewBox="0 0 540 150">
  <g>
    <polygon points="329.1 146.9 329.1 .2 355.7 .2 355.7 146.9"></polygon>
    <path d="M436.9,145 C431.7,146.7 422.4,148.3 415.5,148.3 C392.4,148.3 382.7,137.8 382.7,116.5 L382.7,58.5 L364.6,58.5 L364.6,36.6 L382.7,36.6 L382.7,0.1 L409.3,0.1 L409.3,36.6 L436.1,36.6 L436.1,58.5 L409.3,58.5 L409.3,111.1 C409.3,120.3 412.5,124.7 421,124.7 C426.2,124.7 432.7,123.4 436.9,121.7 L436.9,145 Z"></path>
    <polygon points="29.9 58.8 84 58.8 84 .2 113 .2 113 146.9 84 146.9 84 85.8 29.9 85.8 29.9 146.9 .9 146.9 .9 .2 29.9 .2"></polygon>
    <path d="M219.5 88.4C219.5 59.7 206.9 34 172.4 34 139.9 34 122.7 59 122.7 91.8 122.7 126.8 141.8 149.6 176.4 149.6 190.4 149.6 206.3 147.1 215.7 142.2L215.7 118.3C206.5 123.2 193.1 126.8 180.8 126.8 163.3 126.8 152.4 118.6 150.2 99.8L219.1 99.8C219.5 96 219.5 92.1 219.5 88.4zM150 81C151.9 62.8 160 55.5 172.8 55.5 185 55.5 193.1 65.9 193.1 81L150 81zM272.2 34C257.5 34 245.3 36.4 235.7 40.7L235.7 64.6C245.3 59.8 257.3 57.1 268.8 57.1 286.3 57.1 290.1 66.1 290.2 80.8 283.9 79 276.1 77.9 268.5 77.9 244.1 77.9 226.1 91 226.1 114.5 226.1 135.9 240 149.4 261.8 149.4 274.4 149.4 284 145.3 291.2 136.8L291.2 146.8 317 146.8 317 76.1C317 50.7 303.3 34 272.2 34zM268.2 129.3C258.1 129.3 251.9 124.1 251.9 113.6 251.9 103.6 257.8 96.4 273 96.4 279 96.4 285.1 97.4 290.2 98.8L290.2 104.4C290.2 120 280.2 129.3 268.2 129.3zM503.9 34C491.6 34 480.9 39.2 474.4 46.8L474.4.1 447.7.1 447.7 146.8 474.4 146.8 474.4 86C474.4 68.1 481.3 57.5 495.6 57.5 507.1 57.5 513 65.3 513 80.5L513 146.8 539.7 146.8 539.7 75.3C539.6 52.3 530.7 34 503.9 34z"></path>
  </g>
</svg>
