<?xml version="1.0" encoding="UTF-8" standalone="no"?>
<svg
   xmlns:dc="http://purl.org/dc/elements/1.1/"
   xmlns:cc="http://creativecommons.org/ns#"
   xmlns:rdf="http://www.w3.org/1999/02/22-rdf-syntax-ns#"
   xmlns:svg="http://www.w3.org/2000/svg"
   xmlns="http://www.w3.org/2000/svg"
   xmlns:sodipodi="http://sodipodi.sourceforge.net/DTD/sodipodi-0.dtd"
   xmlns:inkscape="http://www.inkscape.org/namespaces/inkscape"
   viewBox="0 0 386.999 57.708"
   version="1.1"
   id="svg18"
   sodipodi:docname="nypost.svg"
   inkscape:version="0.92.3 (2405546, 2018-03-11)">
  <metadata
     id="metadata24">
    <rdf:RDF>
      <cc:Work
         rdf:about="">
        <dc:format>image/svg+xml</dc:format>
        <dc:type
           rdf:resource="http://purl.org/dc/dcmitype/StillImage" />
        <dc:title></dc:title>
      </cc:Work>
    </rdf:RDF>
  </metadata>
  <defs
     id="defs22" />
  <sodipodi:namedview
     pagecolor="#ffffff"
     bordercolor="#666666"
     borderopacity="1"
     objecttolerance="10"
     gridtolerance="10"
     guidetolerance="10"
     inkscape:pageopacity="0"
     inkscape:pageshadow="2"
     inkscape:window-width="768"
     inkscape:window-height="480"
     id="namedview20"
     showgrid="false"
     inkscape:zoom="0.6304926"
     inkscape:cx="26.963045"
     inkscape:cy="28.854"
     inkscape:window-x="0"
     inkscape:window-y="0"
     inkscape:window-maximized="0"
     inkscape:current-layer="svg18" />
  <path
     fill="#211F20"
     d="M260.122 1.337h-15.075l-6.11 4.582 1.05-4.678h-14.924l-2.41 2.142c-.606-.352-1.85-1.077-2.49-1.503-.95-.528-3.063-.543-3.302-.543h-23.176l-3.172 2.467c-.807-.734-2.848-2.384-5.393-2.924-4.6-1.087-5.797-.892-7.286-.818-.452.023-.916.046-1.453.046-3.27 0-6.803 1.116-8.413 1.693l.063-.562-15.117.1-6.363 5.09-.17-5.09h-14.734l-3.33 2.462.932-2.463h-13.205l-5.35 3.845-.166-3.845H97.312l-4.173 3.11-.33-3.205H57.162l-.36.19.098-.197-13.5.103-4.24 3.08-.585-3.176H24.377l-11.65 9.32L0 57.33h12.562l6.574-4.845.692 4.845h12.24l1.773-1.495.518.048.87 1.447h24.245l5.368-3.927-.64 3.927h12.197l7.436-5.205-1.24 5.205H95.04l12.462-9.37 14.91-30.543 2.317 19.816-5.66 20.097h13.71l8.96-6.878c.867 1.706 3.543 6.14 8.242 6.868 1.536.288 4.044.383 4.15.387h.02c1.903 0 3.073-.017 5.025-.388 2.295-.436 3.55-.97 5.632-1.86l.16-.067c2.095-.895 4.745-2.516 6.233-3.466l-1.098 5.403h12.977l4.963-3.412-.853 3.412h27.297l5.95-4.288 1.4 4.288h15.082l11.873-9.52-5.408-25.333 16.735-21.14z"
     id="path2" />
  <path
     fill="#231F20"
     d="M358.936 1.243l-2.583 1.78c-.646-.395-2.13-1.276-3.27-1.738-3.04-1.23-5.054-1.317-8.26-1.27-3.89.06-6.575.467-10.473 2.523-1.724.91-3.816 2.65-4.783 3.49-.648-1.1-2.108-3.305-3.793-4.07-3.877-1.79-6.352-1.787-10.376-1.66-3.702.118-5.85.57-9.183 1.933-2.318.95-5.233 2.99-6.413 3.847-.458-.806-1.32-2.257-1.998-3-.956-1.275-3.472-1.772-3.756-1.824l-23.473-.01L259.68 9.9l-13.206 47.43H259.9l12.02-9.21 1.626-4.97c.74.013 2.35.02 3.53-.105.86-.093 1.977-.318 2.73-.483-.28 1.803-.738 6.004.582 8.594 2.47 4.844 6.862 5.83 11.237 6.173 1.008.087 1.903.13 2.735.13 2.982 0 5.21-.555 8.275-1.576 3.104-1.035 7.08-3.61 8.403-4.5.737.92 2.563 3.07 4.28 4.073 2.443 1.43 4.23 1.604 6.944 1.87.972.097 1.838.143 2.653.143 2.828 0 5.13-.537 8.5-1.98 3.238-1.367 8.052-4.45 10.305-5.94l-1.892 7.404h12.745l11.84-9.027 8.14-28.485 9.744-8.326 2.7-9.87h-28.06z"
     id="path4" />
  <path
     fill="#FFF"
     d="M54.715 2.85h-9.282l-6.015 19.87L37.23 2.85H25.38L13.8 45.93l-.063.24h9.09L29.6 22.92l2.563 23.25h10.15L54.646 3.09M117.528 2.85L107.34 23.41l1.982-20.35.02-.207H99.177l-9.61 20.13L91.54 3.06l.02-.21H58.105L46.338 45.93l-.065.24h22.892l2.78-7.946h-12.69l2.92-10.214H73.71l2.385-7.946H64.37l2.907-9.08H79.61l-2.445 34.983-.014.202H87.5l10.928-23.316L96.06 46.17h9.976l20.86-43.047.13-.272M185.83 25.02l.096.015 3.096-10.834h-.052c.04-.197.13-.543.216-.88.427-1.666 1.223-4.765.81-6.347-.938-4.38-3.998-5.2-5.257-5.35-2.88-.54-3.653-.546-5.718-.566l-.652-.006c-1.444-.014-2.37-.027-3.908.195-2.304.332-3.596.63-5.636 1.625-1.353.66-2.082 1.13-3.254 2.105-2.145 1.786-4.304 5.567-4.412 5.77l-7.57 27.82c-.03.146-.73 3.642.405 5.435.62.98 1.273 1.38 2.176 1.93l.344.21c1.924 1.194 3.345 1.394 5.497 1.694l.252.036c1.028.145 1.897.212 2.735.212 1.258 0 2.44-.154 3.943-.402 2.072-.343 3.342-.582 5.347-1.528 1.57-.74 2.428-1.3 3.824-2.486 1.6-1.36 3.68-4.134 3.84-4.634h.004c1.057-3.774 3.83-13.643 3.96-13.97l-.084-.04zM222.435 6.776c-.23-.89-.492-1.39-1.08-2.063-.608-.7-1.1-.975-1.853-1.368-.43-.225-1.13-.473-1.16-.483l-23.473-.01L183.1 45.93l-.065.24h10.604l5.107-17.404 4.364-.003c.358.067 1.338.35 1.566.84.155.333.044.977-.012 1.196l-3.972 15.132-.063.237h11.17l4.577-16.21c.03-.093.705-2.266-.02-3.378-.358-.546-.718-.772-1.215-1.085l-.168-.106c-.38-.24-.92-.468-1.3-.614.564-.255 1.56-.723 2.243-1.145l.29-.177c.688-.42 1.184-.722 1.825-1.363.413-.412.94-1.126.964-1.156l3.44-11.622c.013-.064.248-1.58 0-2.536M292.205 28.69c.54-.714.777-1.296 1.054-1.97.11-.277.23-.572.384-.9 2.527-5.47 4.347-14.895 4.36-14.968.022-.076.58-1.87.19-3.034-.07-.29-.092-.56-.108-.822-.03-.4-.06-.816-.28-1.292-.36-.784-.757-1.147-1.373-1.673-.465-.397-.836-.573-1.268-.777-.222-.104-.463-.22-.748-.378l-.044-.024h-22.42l-12.05 43.08-.067.24h10.415l3.972-13.047c.695.03 3.72.162 6.293.162 1.72 0 2.91-.058 3.533-.172 1.65-.29 2.717-.653 4.253-1.456 1.652-.86 2.744-1.43 3.905-2.966M327.895 7.63c-.054-.223-.1-.445-.146-.663-.222-1.064-.43-2.07-1.372-2.584-1.145-.763-2.05-1.366-3.52-1.9-1.92-.695-3.192-.757-5.118-.85l-.235-.01c-.685-.035-1.237-.05-1.74-.05-1.37 0-2.54.12-4.168.43-1.71.326-2.685.57-4.294 1.24-1.924.804-3.07 1.408-4.778 2.87-1.213 1.035-2.707 2.972-2.77 3.054l-8.457 29.23c-.015.152-.342 3.772.882 5.607.74 1.112 1.447 1.557 2.517 2.23 1.766 1.113 3.133 1.29 5.022 1.54.233.03.476.06.727.096 1.21.166 2.154.24 3.063.24 1.064 0 2.11-.098 3.612-.336 2.195-.348 3.438-.61 5.35-1.53 1.622-.778 2.52-1.383 3.827-2.583 1.546-1.418 3.306-4.13 3.455-4.625h.002c1.107-3.695 4.008-13.357 4.15-13.687l-.09-.045.103.014 3.285-11.59h-.052c.032-.142.09-.358.147-.57.356-1.317 1.015-3.77.595-5.526"
     id="path6" />
  <path
     fill="#231F20"
     d="M316.247 10.71c-.237-.474-1.234-.728-2.03-.857-.255-.042-.506-.063-.748-.063-1.02 0-1.826.362-2.774.836-.807.404-1.567 2.102-1.61 2.197l-6.622 22.712c-.025.11-.583 2.71.97 3.434.71.267 1.494.512 2.392.512.175 0 .352-.01.53-.028.84-.096 1.527-.452 2.08-.738l.26-.134c.826-.445 1.134-1.34 1.318-1.876.033-.095.07-.206.1-.278h.007c.198 0 .266 0 5.67-19.72l.837-3.368c.022-.05.604-1.254-.38-2.63"
     id="path8" />
  <path
     fill="#FFF"
     d="M145.605 17.765l-.92-14.913h-10.8l3.43 25.523-4.783 17.795h10.414l4.95-17.133L165.67 2.852h-10.675M234 16.506l3.824-13.655H226.84l-12.713 43.077-.072.242h11.46l5.583-18.4 3.358 18.245.027.154h12.025l-4.946-23.977 15.08-19.036.24-.306h-10.5M360.007 2.85l-2.088 7.757h6.71l-9.956 35.322-.068.24h10.325l10.025-35.185h7.188l2.31-7.892.07-.242M349.434 25.256c-.732-1.103-1.394-1.758-2.156-2.516-.334-.33-.69-.683-1.08-1.102-.59-.635-1.1-1.127-1.587-1.6-.647-.63-1.258-1.222-2-2.083-.272-.316-.528-.573-.773-.823-.544-.55-1.013-1.025-1.377-1.882-.44-1.04-.73-1.725-.55-2.816.11-.665.194-1.063.613-1.51.32-.34.626-.42 1.086-.542l.245-.066c.613-.172.95-.256 1.533-.184.68.085 1.08.287 1.593.797.415.413.586.712.708 1.232.102.445.05.763-.02 1.164-.028.175-.06.36-.08.572l-.007.06c-.067.694-.108 1.113-.27 1.807-.157.66-.557 1.666-.56 1.676l-.104.26h10.446l.04-.138c.006-.024.688-2.433 1.042-3.98.102-.442.208-.823.31-1.182.237-.842.442-1.57.453-2.643v-.13c.016-1.618.026-2.786-.882-4.23-.64-1.015-1.23-1.498-2.232-2.138-1.007-.644-1.726-.83-2.812-1.115l-.174-.045c-1.187-.31-1.934-.366-3.065-.45l-.795-.06c-.802-.064-1.435-.114-2.106-.114-.636 0-1.258.047-1.958.147-.626.09-1.077.21-1.553.338-.28.076-.57.154-.92.233-.424.095-.784.153-1.134.208-.606.098-1.18.19-1.92.463-1.177.436-1.84.898-2.76 1.54l-.402.278c-1.027.71-1.608 1.14-2.484 2.01l-.236.23c-.678.67-1.168 1.15-1.688 2.08-.45.808-.612 1.376-.838 2.16l-.124.433c-.29.997-.438 1.518-.573 2.486l-.053.377c-.144.99-.246 1.708-.038 2.805.15.807.375 1.28.685 1.936l.178.378c.627 1.353 1.286 2.17 2.053 3.115.313.39.64.793.994 1.27.893 1.2 1.4 1.878 2.37 3.036.454.54.84.95 1.21 1.346.402.428.783.833 1.25 1.396.166.2.317.373.46.535.35.396.626.71.94 1.238l.08.135c.433.72.693 1.155.844 1.98.164.896.144 1.43-.09 2.28-.194.7-.326 1.12-.807 1.62-.576.602-1.074.85-1.972.985-.29.043-.527.062-.746.062-.527 0-.977-.125-1.5-.42-.59-.33-.88-.552-1.155-1.06-.267-.492-.265-.864-.262-1.427v-.186c0-.498.096-.828.215-1.245.053-.184.107-.38.16-.605.158-.692.468-1.775.47-1.787l.068-.24h-10.78l-.05.116c-.015.037-.382.926-.57 1.527-.226.707-.32 1.19-.44 1.804-.04.208-.083.428-.134.675-.09.43-.19.804-.282 1.155-.217.822-.405 1.532-.383 2.576.025 1.23.133 2.033.677 3.287.414.952.752 1.544 1.556 2.33.68.664 1.23.93 1.995 1.297l.322.156c1.58.77 2.604.98 4.407 1.247.86.127 1.605.186 2.35.186.857 0 1.666-.074 2.805-.186 2.232-.22 3.508-.403 5.53-1.146 1.506-.553 2.36-.98 3.82-1.91 1.323-.843 2.126-1.377 3.252-2.584 1.128-1.208 1.688-2.037 2.398-3.548.78-1.66 1.014-2.673 1.246-4.31.305-2.163.438-3.385-.1-5.373-.416-1.528-.94-2.315-1.822-3.647"
     id="path10" />
  <path
     fill="#231F20"
     d="M178.225 10.67c-.557-.63-1.172-.74-1.92-.82-.687-.075-1.088.027-1.766.194-.62.153-.962.27-1.476.59-.437.276-.963.86-.985.886l-7.04 24.095c-.016.052-.386 1.278-.09 2.018.258.646.66.95 1.226 1.233.356.178.688.253 1.11.253.168 0 .34-.01.526-.023.11-.008.227-.016.395-.023.89-.04 1.53-.07 2.32-.597.57-.38.86-.694 1.196-1.294.095-.172.128-.42.157-.64.01-.06.02-.144.032-.21h.024c.197 0 .264 0 5.668-19.723l.842-3.374c.017-.04.43-.988.295-1.628-.09-.43-.27-.66-.515-.938M210.428 12.375c-.018-.11-.026-.217-.034-.32-.032-.367-.064-.715-.405-1.022-.297-.267-.55-.352-.945-.424-.28-.052-.884-.006-.886-.004h-4.206l-3.163 10.16-.074.244h5.686l.035-.014c.037-.016.915-.378 1.377-.79.548-.49.742-.974.967-1.534.065-.162.134-.334.216-.517.396-.883.543-1.482.748-2.31l.115-.464c.08-.323.177-.606.27-.88.23-.68.43-1.267.298-2.125"
     id="path12" />
  <path
     d="M286.62 11.34c-.264-.332-.536-.455-.853-.597-.08-.036-.162-.074-.252-.118-.534-.262-1.248-.394-2.124-.394-1.463 0-2.865.367-2.924.383l-.105.027-4 13.912-.042.143.13.073c.024.015.636.366 1.082.49.322.092.608.13.95.13.15 0 .298-.006.462-.013.11-.006.224-.01.35-.014l.186-.004c.73-.02 1.21-.032 1.95-.29 1.086-.376 1.728-.864 2.457-1.864.41-.565.555-1.034.722-1.577.07-.227.146-.47.247-.737.783-2.073 1.607-5.474 1.612-5.498.014-.047.353-1.17.385-1.938.01-.19.033-.37.053-.542.068-.542.13-1.054-.282-1.57"
     id="path14" />
  <path
     fill="none"
     d="M0 0h387v57.708H0z"
     id="path16" />
</svg>
