<svg xmlns="http://www.w3.org/2000/svg" xmlns:xlink="http://www.w3.org/1999/xlink" viewBox="0 0 171.61 103.2"><defs><style>.a{fill:none;}.b{fill:#f7ce3c;}.c{fill:#77787b;}.d{clip-path:url(#a);}.e{fill:#fff;}.f{fill:#231f20;}</style><clipPath id="a"><rect class="a" width="171.61" height="103.2"/></clipPath></defs><title>ccny-spitzer-mark-cube</title><rect class="b" y="68.64" width="171.61" height="34.56"/><rect class="c" width="171.61" height="68.64"/><g class="d"><path class="e" d="M154.5,46.22a9,9,0,0,1,1.12.18c.26.08.31.25.29.38a9.86,9.86,0,0,1-2.15,2.67,2.59,2.59,0,0,1-1.12.6c0-4.23,0-7.12,0-9.13a6.13,6.13,0,0,1,.26-2.24c0-.08-.12-.28-.19-.28a12.48,12.48,0,0,1-3.53.7,1,1,0,0,0,0,.65,7.89,7.89,0,0,1,1.2.18c.29.1.38.35.41.68,0,.63,0,2.79,0,8.33,0,1.23,0,4.08,0,4.86,0,.53-.14.7-.53.83a5,5,0,0,1-.88.18c-.12.08-.1.65,0,.73.38,0,1.07-.07,2.39-.07,1.05,0,2,.07,2.39.07a1,1,0,0,0,.1-.73c-.41,0-.74-.13-1-.18-.46-.13-.6-.33-.6-.93,0-1,0-2,0-3.1a.92.92,0,0,1,.84.4,44.83,44.83,0,0,0,3.22,4.18,1.71,1.71,0,0,0,1.08.4,20.29,20.29,0,0,0,2.34-.05,1.09,1.09,0,0,0,.09-.73,2.29,2.29,0,0,1-1.77-.53,30,30,0,0,1-3.73-4.6.17.17,0,0,1,0-.15L157.08,47a3.18,3.18,0,0,1,2-.93,1,1,0,0,0,0-.75,37.45,37.45,0,0,1-4.54.23,1,1,0,0,0-.07.7m-6.65-1.05a1.92,1.92,0,0,0-1.22.48,7.72,7.72,0,0,0-1.5,1.59s-.12,0-.12-.05c0-.48,0-1.58,0-1.94,0-.05-.07-.1-.12-.1a8.91,8.91,0,0,1-2.91.93,1.27,1.27,0,0,0-.12.55c1.08.4,1.27.7,1.31,1.06s0,1.06,0,2c0,1.74,0,3.82-.07,4.22s-.19.6-.43.71a3.87,3.87,0,0,1-.93.2,1.09,1.09,0,0,0,0,.73c.43,0,1.65-.07,2.39-.07,1,0,2.51.07,2.79.07a1.09,1.09,0,0,0,.09-.73,8.55,8.55,0,0,1-1.5-.25c-.36-.12-.48-.38-.5-.8s0-3.09,0-4.8a2.37,2.37,0,0,1,.19-.85c.31-.53.79-1.06,1.27-1.06a2.58,2.58,0,0,1,1.55.78.74.74,0,0,0,.19-.1,5.91,5.91,0,0,0,.74-1.58,1.12,1.12,0,0,0,0-.4,1.29,1.29,0,0,0-1.12-.55m-12.52,1c2,0,3.32,2,3.32,4.88a4.24,4.24,0,0,1-.91,3.17,2,2,0,0,1-1.46.53c-1.91,0-3.32-2-3.32-5,0-1.91.6-2.82,1.22-3.25a2.07,2.07,0,0,1,1.15-.35m.81-1a5.83,5.83,0,0,0-3.13,1,4.9,4.9,0,0,0-2.08,4.2c0,2.59,1.26,5.38,4.75,5.38a5.36,5.36,0,0,0,2.77-.93,5.3,5.3,0,0,0,2.22-4.61c0-2.82-1.67-5.05-4.54-5.05M119,40.61c.5.08.81.1,1.1.18.86.23,1.08.43,2,2.14s2.37,4.6,2.87,5.81a4,4,0,0,1,.19,1.21c0,1.08,0,2,0,3.25,0,.78-.17,1.21-.81,1.38a15.58,15.58,0,0,1-1.62.25.91.91,0,0,0,0,.7c.67,0,1.75-.07,3.44-.07,1.38,0,2.7.07,3.3.07a1,1,0,0,0,.07-.7A10.91,10.91,0,0,1,128,54.6c-.65-.15-.76-.55-.79-1.66,0-1.28,0-2.54,0-3.52a2.91,2.91,0,0,1,.19-.88c.55-1.13,2.32-4.43,3.35-6.11.62-1,1-1.41,1.67-1.61l1-.2c.09-.07.09-.65,0-.7-.81,0-1.38.07-2.53.07-.84,0-1.91,0-2.63-.07-.12,0-.17.58-.07.7.53.1.81.13,1.12.2.67.15.69.5.48,1-.45,1.16-2.13,4.35-3,5.79,0,0-.12,0-.14,0-.5-.88-2.39-4.7-3-6.11-.17-.35-.14-.6.17-.71s.6-.13.86-.18a.73.73,0,0,0,0-.7c-.29,0-1.84.07-2.65.07-1.1,0-2.36-.07-3-.07a1,1,0,0,0,0,.7m-17.44,5.56a4.58,4.58,0,0,1,.91.15c.53.18.67.48,1,1.51.57,1.56,1.77,5.73,2.27,7.75a4.26,4.26,0,0,1,1.15,0c.57-1.81,1.91-5.22,2.39-6.61a.08.08,0,0,1,.12,0c.31.75,1.86,5.1,2.29,6.66a4.46,4.46,0,0,1,1.17,0c.5-1.56,2.25-6.62,2.8-8.07.26-.63.45-1,1.1-1.16a2,2,0,0,1,.65-.18,1,1,0,0,0,0-.73c-.45,0-1.1.07-2.08.07-.79,0-1.79-.07-2.13-.07a1.2,1.2,0,0,0-.1.73,6.15,6.15,0,0,1,1.1.23c.45.15.45.38.41.78-.22,1-1.34,4.53-1.77,5.69,0,0-.07,0-.1,0-.17-.43-1.08-2.94-1.67-4.77-.29-.86-.5-1.51-.62-2a4.55,4.55,0,0,1-1.17,0c-.41,1.59-1.67,5.08-2.29,6.69,0,0,0,0-.1,0-.31-.94-1.46-5-1.65-5.94a.36.36,0,0,1,.24-.48,9.5,9.5,0,0,1,.93-.2,1.07,1.07,0,0,0,0-.73c-.45,0-1.6.07-2.44.07-1.17,0-2-.07-2.37-.07a1,1,0,0,0,0,.73m-4.81,0c1.29,0,2.08,1.43,2.2,2.69a.35.35,0,0,1-.12.23,34.2,34.2,0,0,1-4.06.15c-.07,0-.12-.13-.12-.18.12-1.79,1-2.89,2.1-2.89M100.9,53a4,4,0,0,1-2.72,1.06A3.27,3.27,0,0,1,95.57,53a4.59,4.59,0,0,1-1-2.57c0-.13,0-.25.14-.28a38.49,38.49,0,0,0,6.26-.55,1.17,1.17,0,0,0,.19-.58c-.24-.08-.33-.18-.36-.28-.19-1.41-1-3.57-3.35-3.57A5.14,5.14,0,0,0,94.9,46a5.27,5.27,0,0,0-2.1,4.55,5.83,5.83,0,0,0,1.36,4,3.77,3.77,0,0,0,2.91,1.21,5.41,5.41,0,0,0,3.8-1.88,1.83,1.83,0,0,0,.12-.68.4.4,0,0,0-.1-.15M76,40.61a3.76,3.76,0,0,1,1.91.55,1.37,1.37,0,0,1,.64,1.23c0,5.28-.12,9.39-.22,10.69,0,1-.36,1.31-.91,1.49a7,7,0,0,1-1.27.23,1.24,1.24,0,0,0,0,.73c.5,0,1.41-.07,2.87-.07s2.41.07,3,.07c.07-.1.14-.63,0-.73a7.74,7.74,0,0,1-1.43-.25c-.62-.15-.93-.5-1-1.51-.07-1.41-.07-7.3,0-9.89,0,0,.07,0,.1,0,1.43,1.89,8,10.54,9.27,12.45.29,0,1.38,0,1.65,0,0-.83,0-2.29,0-3.44.07-4.75,0-8,.19-9.91,0-.68.19-1.13.81-1.36a7.53,7.53,0,0,1,1.05-.25.9.9,0,0,0,0-.7c-.31,0-1.72.07-2.53.07-1.46,0-2.56-.07-3.18-.07a1,1,0,0,0,0,.7,9.8,9.8,0,0,1,1.6.3c.72.2.86.6.91,1.33.12,1.81.1,6.52.1,10,0,0,0,.05-.1,0-1.15-1.41-6-7.7-8.49-10.92A5.62,5.62,0,0,1,80.06,40c-.19,0-.6,0-1.07,0-1.19,0-2.39-.07-3-.07a1,1,0,0,0,0,.7M63.84,54.8a.86.86,0,0,0,0,.73c.5,0,1.39-.07,2.41-.07,1.38,0,2.29.07,2.87.07a1.08,1.08,0,0,0,.07-.73,9.54,9.54,0,0,1-1.27-.2c-.5-.13-.67-.38-.69-.93-.07-1.36-.07-4.25-.09-6.69,0-.08.09-.23.14-.23l2.37,0a10.31,10.31,0,0,1,.21-1.33c-.33,0-.93.08-2.56.08-.07,0-.14-.13-.14-.18s0-.4,0-.58c0-1.89.07-3.7.74-4.46a1.2,1.2,0,0,1,1-.45,3.32,3.32,0,0,1,2,1.06.31.31,0,0,0,.26,0,5.34,5.34,0,0,0,.81-1.41.53.53,0,0,0,0-.28,2,2,0,0,0-1.75-.8,4.29,4.29,0,0,0-2.29.93c-2,1.49-2.51,3.4-2.53,6a.33.33,0,0,1-.1.18,4.66,4.66,0,0,1-1.17.4,1.59,1.59,0,0,0-.24.73l1.36.08c.07,0,.14.18.14.23,0,2.52,0,5.41-.07,6.77,0,.45-.1.73-.48.88ZM57,46.15c2,0,3.32,2,3.32,4.88a4.24,4.24,0,0,1-.91,3.17,2,2,0,0,1-1.46.53c-1.91,0-3.32-2-3.32-5,0-1.91.6-2.82,1.22-3.25A2.06,2.06,0,0,1,57,46.15m.81-1a5.84,5.84,0,0,0-3.13,1,4.91,4.91,0,0,0-2.08,4.2c0,2.59,1.27,5.38,4.75,5.38a5.2,5.2,0,0,0,5-5.53c0-2.82-1.67-5.05-4.54-5.05"/><path class="e" d="M155.62,19.34c1.29,0,2.08,1.44,2.2,2.7a.35.35,0,0,1-.12.23,33.94,33.94,0,0,1-4.06.15c-.07,0-.12-.13-.12-.18.12-1.79,1-2.9,2.1-2.9m4.16,6.92a4,4,0,0,1-2.72,1.06,3.27,3.27,0,0,1-2.6-1.11,4.58,4.58,0,0,1-1-2.57c0-.13,0-.25.14-.28a38.46,38.46,0,0,0,6.26-.55,1.17,1.17,0,0,0,.19-.58c-.24-.08-.33-.18-.36-.28-.19-1.41-1-3.57-3.35-3.57a5.13,5.13,0,0,0-2.58.83,5.27,5.27,0,0,0-2.1,4.55,5.83,5.83,0,0,0,1.36,4A3.77,3.77,0,0,0,156,29a5.4,5.4,0,0,0,3.8-1.88,1.8,1.8,0,0,0,.12-.68.38.38,0,0,0-.1-.15M146,34.16a3.66,3.66,0,0,1-2.46-.8,2.24,2.24,0,0,1-.79-1.71,2.45,2.45,0,0,1,1.31-2,1.68,1.68,0,0,1,.86-.25,8.67,8.67,0,0,1,2.94.43,1.79,1.79,0,0,1,1.22,1.79c0,1.23-.86,2.52-3.08,2.52m-1-14.84c1.77,0,2.37,1.66,2.37,3.17a3.27,3.27,0,0,1-.64,2.19,1.49,1.49,0,0,1-1.1.45c-1.65,0-2.37-1.69-2.37-3.3s.67-2.52,1.75-2.52m.77-.93a5.61,5.61,0,0,0-3,1.1,3.68,3.68,0,0,0-1.34,2.92,3.44,3.44,0,0,0,2.2,3.57.1.1,0,0,1,0,.15c-.34.28-1.22.83-1.58,1.06a2.15,2.15,0,0,0-.09.43,2.16,2.16,0,0,0,1.5,1.56s0,.08,0,.08a17.18,17.18,0,0,0-2.32,2,2.92,2.92,0,0,0-.17,1,3.17,3.17,0,0,0,1.14,2.34,4.39,4.39,0,0,0,2.87.9,5.56,5.56,0,0,0,2.73-.7,4.92,4.92,0,0,0,2.91-4.2A2.49,2.49,0,0,0,149,28a22.35,22.35,0,0,0-3.95-.5c-.5,0-1-.28-1-.75a.73.73,0,0,1,.62-.65,2.88,2.88,0,0,1,.46,0,4.94,4.94,0,0,0,2.53-1,3.82,3.82,0,0,0,1.41-3.27,4.83,4.83,0,0,0-.19-1.23s0-.13,0-.13a4.33,4.33,0,0,0,.57,0,1,1,0,0,0,.84-.3,3.12,3.12,0,0,0,.6-1.41s-.24-.2-.31-.18a1.55,1.55,0,0,1-1.43.55,3.68,3.68,0,0,1-1.36-.25,5.28,5.28,0,0,0-2.13-.48m-10.25,1c1.29,0,2.08,1.44,2.2,2.7a.34.34,0,0,1-.12.23,34,34,0,0,1-4.06.15c-.07,0-.12-.13-.12-.18.12-1.79,1-2.9,2.1-2.9m4.16,6.92A4,4,0,0,1,137,27.32a3.27,3.27,0,0,1-2.6-1.11,4.58,4.58,0,0,1-1-2.57c0-.13,0-.25.14-.28a38.48,38.48,0,0,0,6.26-.55,1.18,1.18,0,0,0,.19-.58c-.24-.08-.33-.18-.36-.28-.19-1.41-1-3.57-3.34-3.57a5.14,5.14,0,0,0-2.58.83,5.27,5.27,0,0,0-2.1,4.55,5.83,5.83,0,0,0,1.36,4,3.77,3.77,0,0,0,2.91,1.2,5.41,5.41,0,0,0,3.8-1.88,1.84,1.84,0,0,0,.12-.68.41.41,0,0,0-.1-.15m-13.43,2.49c.31,0,1.43-.07,2.36-.07,1.27,0,2,.07,2.46.07a1.27,1.27,0,0,0,.1-.73,2.77,2.77,0,0,1-1-.23c-.43-.15-.5-.45-.53-1.13s-.07-2.39-.07-6.34c0-2.16,0-5,0-6.29a6.92,6.92,0,0,1,.21-2.19.38.38,0,0,0-.17-.23,11.84,11.84,0,0,1-3.51.93.72.72,0,0,0,0,.63,8.61,8.61,0,0,1,1.24.23c.31.08.33.5.36.78.07.76.07,4.45.07,6.24,0,4.1,0,5.84-.1,6.64a.73.73,0,0,1-.38.7,4.38,4.38,0,0,1-1.05.25,1.26,1.26,0,0,0,0,.73m-5.38,0c.31,0,1.43-.07,2.36-.07,1.27,0,2,.07,2.46.07a1.28,1.28,0,0,0,.1-.73,2.78,2.78,0,0,1-1-.23c-.43-.15-.5-.45-.53-1.13s-.07-2.39-.07-6.34c0-2.16,0-5,0-6.29a6.89,6.89,0,0,1,.21-2.19.37.37,0,0,0-.17-.23,11.83,11.83,0,0,1-3.51.93.72.72,0,0,0,0,.63,8.55,8.55,0,0,1,1.24.23c.31.08.33.5.36.78.07.76.07,4.45.07,6.24,0,4.1,0,5.84-.1,6.64a.73.73,0,0,1-.38.7,4.39,4.39,0,0,1-1.05.25,1.24,1.24,0,0,0,0,.73m-6-9.38c2,0,3.32,2,3.32,4.88a4.24,4.24,0,0,1-.91,3.17,2,2,0,0,1-1.46.53c-1.91,0-3.32-2-3.32-5,0-1.91.6-2.82,1.22-3.25a2.06,2.06,0,0,1,1.15-.35m.81-1a5.85,5.85,0,0,0-3.13,1,4.91,4.91,0,0,0-2.08,4.2c0,2.59,1.27,5.38,4.75,5.38a5.2,5.2,0,0,0,5-5.53c0-2.82-1.67-5.05-4.54-5.05m-7.86-1.21c0,.13.64,0,.74,0a35,35,0,0,1,.38-3.88,41.66,41.66,0,0,0-4.71-.5,9.46,9.46,0,0,0-4.85,1.15,7.71,7.71,0,0,0-3.8,6.92c0,5.23,3,8.3,8.29,8.3a12,12,0,0,0,3.66-.63,8,8,0,0,0,1.81-3.4c0-.18-.45-.4-.57-.4A9.08,9.08,0,0,1,107,27.16a3.84,3.84,0,0,1-2.63.86C100.13,28,98,24.62,98,20.6c0-4.25,2-6.94,5.45-6.94a6.63,6.63,0,0,1,3,.55c.88.45,1.2,1,1.43,3"/><path class="e" d="M81,19.39c.38.05.57.1.81.15.67.2.93.65,1.55,2.29.74,1.86,1.77,4.65,2.29,6.09,0,.1.19.43.19.45a32.52,32.52,0,0,1-3.51,5.51,1.18,1.18,0,0,0,0,.4,3.57,3.57,0,0,0,1.24.68l.17-.1c.17-.35.45-.88.74-1.41a93.2,93.2,0,0,0,5.64-12.73c.21-.65.5-1,.93-1.13a3.41,3.41,0,0,1,.86-.2,1.08,1.08,0,0,0,0-.73c-.67,0-1.36.07-2.22.07s-1.77-.07-2.05-.07a1.07,1.07,0,0,0-.1.73,6.19,6.19,0,0,1,1.05.2.55.55,0,0,1,.41.73,29.55,29.55,0,0,1-2,5.74s-.07,0-.1,0c-.17-.33-1.74-4.6-2.15-6a.39.39,0,0,1,.19-.43,6.14,6.14,0,0,1,.88-.2,1.07,1.07,0,0,0,0-.73c-.36,0-1.41.07-2.44.07s-1.89-.07-2.32-.07c-.1,0-.14.58-.07.73m-.7.6a12.71,12.71,0,0,1,.22-1.38c-.36,0-1.77.13-2.92.13,0,0-.1-.1-.1-.15,0-1.76.07-2.89.12-3.32a.85.85,0,0,0-.43,0,7.14,7.14,0,0,1-1.53,1.16v2.14a.24.24,0,0,1-.1.18,5.3,5.3,0,0,1-1.12.28,2,2,0,0,0-.21.83l1.29.1a.24.24,0,0,1,.14.23c0,1,0,3.27,0,4.71A6.23,6.23,0,0,0,76,27.77a2.22,2.22,0,0,0,2.1,1.2,3.07,3.07,0,0,0,2.37-1.1,2.21,2.21,0,0,0,.07-.78,2.37,2.37,0,0,1-1.48.43,1.41,1.41,0,0,1-1.41-1,6.89,6.89,0,0,1-.14-1.81c0-1.23,0-3.45,0-4.63,0,0,0-.13.1-.13l2.72,0m-6.81,8a7.21,7.21,0,0,1-1-.2c-.36-.12-.5-.4-.5-.86,0-1.13,0-2.82,0-4.2s0-3.27,0-4.4a10.66,10.66,0,0,1-3.1.73.77.77,0,0,0-.1.6,3,3,0,0,1,1.15.6.82.82,0,0,1,.17.53c0,.5,0,1.41,0,2.39,0,1.38,0,3,0,3.67s-.12.78-.43.91a4.93,4.93,0,0,1-1,.23,1,1,0,0,0,0,.73c.41,0,1.34-.07,2.34-.07,1.22,0,2,.07,2.44.07a1.07,1.07,0,0,0,.1-.73M72,14.79a1.33,1.33,0,0,0-.24-.73,1,1,0,0,0-.69-.2,1.94,1.94,0,0,0-1.14.45,1.27,1.27,0,0,0-.12.73,1.24,1.24,0,0,0,.62,1A2.23,2.23,0,0,0,71.53,16a1.65,1.65,0,0,0,.5-1.23m-6,2.39c0,.13.64,0,.74,0a35.36,35.36,0,0,1,.38-3.88,41.68,41.68,0,0,0-4.71-.5,9.46,9.46,0,0,0-4.85,1.15,7.71,7.71,0,0,0-3.8,6.92c0,5.23,3,8.3,8.29,8.3a12,12,0,0,0,3.66-.63,8,8,0,0,0,1.81-3.4c0-.18-.45-.4-.57-.4a9.11,9.11,0,0,1-1.79,2.46,3.84,3.84,0,0,1-2.63.86c-4.25,0-6.38-3.4-6.38-7.42,0-4.25,2-6.94,5.45-6.94a6.63,6.63,0,0,1,3,.55c.88.45,1.19,1,1.43,3"/><path class="e" d="M45.15,19.34c1.29,0,2.08,1.43,2.2,2.69a.34.34,0,0,1-.12.23,34.37,34.37,0,0,1-4.06.15c-.07,0-.12-.13-.12-.18.12-1.79,1-2.89,2.1-2.89m4.16,6.92a4,4,0,0,1-2.72,1.06A3.28,3.28,0,0,1,44,26.21a4.57,4.57,0,0,1-1-2.57c0-.13,0-.25.14-.28a38.5,38.5,0,0,0,6.26-.55,1.18,1.18,0,0,0,.19-.58c-.24-.08-.33-.18-.36-.28-.19-1.41-1-3.57-3.35-3.57a5.14,5.14,0,0,0-2.58.83,5.27,5.27,0,0,0-2.1,4.55,5.84,5.84,0,0,0,1.36,4A3.77,3.77,0,0,0,45.48,29a5.4,5.4,0,0,0,3.8-1.88,1.79,1.79,0,0,0,.12-.68.4.4,0,0,0-.1-.15M20.8,28a.86.86,0,0,0,0,.73c.67,0,2.37-.07,3.46-.07s2.41,0,3.49.07a1,1,0,0,0,.1-.73,8.27,8.27,0,0,1-1.58-.28c-.53-.15-.72-.4-.77-1.31-.07-1.28-.1-8.22-.1-11.9a.34.34,0,0,1,.14-.22c.55,0,4,0,5.17,0a.32.32,0,0,1,.22.28c0,.93,0,2.05,0,8,0,.58,0,3.57,0,4.18s-.1.93-.53,1.08a4.81,4.81,0,0,1-1,.18,1,1,0,0,0,0,.73c.45,0,1.65-.07,2.41-.07s2.17.07,2.48.07c.07-.1.12-.65,0-.73-.43,0-.62-.1-.91-.15-.5-.18-.57-.38-.62-1.18s0-3.83,0-5.56a.84.84,0,0,1,.29-.6A3.23,3.23,0,0,1,35,19.84a2.11,2.11,0,0,1,2.25,1.81,36.86,36.86,0,0,1,.1,4.88c0,1-.1,1.18-.45,1.31a6.72,6.72,0,0,1-1,.18,1.09,1.09,0,0,0,0,.73c.33,0,1.44,0,2.18-.07,1.07,0,2.15.07,2.53.07a1.09,1.09,0,0,0,.1-.73,3.32,3.32,0,0,1-1.22-.33.59.59,0,0,1-.31-.58c0-1.11,0-3.37,0-4.73,0-2.49-1.1-4-3-4a5.88,5.88,0,0,0-3.3,1.51s-.1,0-.1,0c0-.7,0-3.68,0-5.33,0-1.86,0-2.66,0-2.84s-.07-.13-.14-.15a6.9,6.9,0,0,1-1.65.38c-.07,0-.12.13-.12.18v1a.13.13,0,0,1-.12.13l-10.9,0a4.32,4.32,0,0,1-1.91-.4.36.36,0,0,0-.29.08c-.07,1.11-.29,2.94-.45,4,0,.13.62.28.74.2a12.24,12.24,0,0,1,1-2.29,1.07,1.07,0,0,1,.88-.55c.91,0,2.94,0,3.35,0,.09,0,.19.15.19.25,0,4.13,0,9.44-.07,11.4,0,1.18-.14,1.69-.91,1.84A13.41,13.41,0,0,1,20.8,28"/></g><path class="f" d="M11.85,83.27c.41-.08.47-.34.49-.95,0-1,0-3.74,0-5.88,0-.05-.05-.13-.1-.13-.22,0-1.32,0-1.81,0a.58.58,0,0,0-.48.29,6.15,6.15,0,0,0-.52,1.19c-.06,0-.39,0-.4-.1.09-.56.21-1.5.25-2.07a.21.21,0,0,1,.16,0,2.29,2.29,0,0,0,1,.19h5.91a.07.07,0,0,0,.06-.06v-.51s0-.09.06-.09a3.9,3.9,0,0,0,.89-.19s.08,0,.08.08,0,.5,0,1.46,0,2.4,0,2.76c0,0,0,0,.05,0a3.26,3.26,0,0,1,1.79-.78c1,0,1.62.78,1.62,2.06,0,.7,0,1.87,0,2.44a.3.3,0,0,0,.17.3,1.87,1.87,0,0,0,.66.17.54.54,0,0,1-.05.38c-.21,0-.79-.05-1.37,0l-1.18,0a.53.53,0,0,1,0-.37,3.86,3.86,0,0,0,.52-.09c.19-.06.23-.16.25-.67a18,18,0,0,0-.05-2.51,1.13,1.13,0,0,0-1.22-.93,1.81,1.81,0,0,0-1,.35.42.42,0,0,0-.16.31c0,.89,0,2.5,0,2.86s.06.52.34.61.26.05.49.08c.05,0,0,.32,0,.38s-.85,0-1.35,0-1.06,0-1.31,0a.47.47,0,0,1,0-.37,2.75,2.75,0,0,0,.52-.09c.23-.08.27-.19.29-.56s0-1.85,0-2.15c0-3.08,0-3.67,0-4.15a.17.17,0,0,0-.12-.14c-.61,0-2.5,0-2.8,0a.17.17,0,0,0-.08.12c0,1.9,0,5.48.05,6.14,0,.47.13.6.41.67a4.75,4.75,0,0,0,.85.14.48.48,0,0,1-.05.38c-.58,0-1.37,0-1.89,0s-1.52,0-1.88,0a.43.43,0,0,1,0-.37A7.77,7.77,0,0,0,11.85,83.27Zm15.06-.7a.89.89,0,0,1-.06.35,3,3,0,0,1-2.06,1,2.1,2.1,0,0,1-1.58-.62,2.91,2.91,0,0,1-.74-2.06,2.66,2.66,0,0,1,1.14-2.34,2.87,2.87,0,0,1,1.4-.43,1.91,1.91,0,0,1,1.81,1.84c0,.05.06.1.19.14a.59.59,0,0,1-.1.3,22,22,0,0,1-3.39.29c-.05,0-.08.08-.08.14A2.29,2.29,0,0,0,24,82.46a1.82,1.82,0,0,0,1.41.57,2.25,2.25,0,0,0,1.48-.54A.2.2,0,0,1,26.91,82.57Zm-3.45-2.15s0,.09.06.09a19.35,19.35,0,0,0,2.2-.08.18.18,0,0,0,.06-.12c-.06-.65-.49-1.39-1.19-1.39S23.53,79.5,23.47,80.42Zm6.79-4.69c.3,0,.74,0,1.49,0s1.24,0,2.09,0,2.28.29,2.28,1.81a1.84,1.84,0,0,1-1.26,1.66,0,0,0,0,0,0,.05,2.05,2.05,0,0,1,1.83,2,2.37,2.37,0,0,1-1.62,2.23,5.16,5.16,0,0,1-2,.32c-.58,0-2.1-.06-3,0-.06,0-.08-.34,0-.37.23,0,.61-.05.83-.1s.38-.19.41-.66,0-1.55,0-2.94c0-1.62,0-2.46,0-2.94s-.13-.48-.35-.54a5.35,5.35,0,0,0-.75-.12A.44.44,0,0,1,30.26,75.73Zm2.33.51a.29.29,0,0,0-.1.21c0,.38,0,1.75,0,2.67a.08.08,0,0,0,.06.06c.14,0,.44,0,.8,0a2.13,2.13,0,0,0,1-.16,1.34,1.34,0,0,0,.61-1.2c0-1.13-.7-1.65-1.93-1.65A2.52,2.52,0,0,0,32.59,76.23Zm2.89,5.31c0-1.23-.88-1.9-2.34-1.9a4.29,4.29,0,0,0-.62,0s-.06,0-.06.05c0,.82,0,2.4,0,2.93a.75.75,0,0,0,.3.49,2.25,2.25,0,0,0,1,.18A1.57,1.57,0,0,0,35.48,81.54Zm6.77,1a.89.89,0,0,1-.06.35,3,3,0,0,1-2.06,1,2.1,2.1,0,0,1-1.58-.62,2.91,2.91,0,0,1-.74-2.06,2.66,2.66,0,0,1,1.14-2.34,2.88,2.88,0,0,1,1.4-.43,1.91,1.91,0,0,1,1.81,1.84c0,.05.06.1.19.14a.59.59,0,0,1-.1.3,22,22,0,0,1-3.39.29c-.05,0-.08.08-.08.14a2.29,2.29,0,0,0,.53,1.32,1.82,1.82,0,0,0,1.41.57,2.25,2.25,0,0,0,1.48-.54A.2.2,0,0,1,42.24,82.57ZM38.8,80.42s0,.09.06.09a19.35,19.35,0,0,0,2.2-.08.18.18,0,0,0,.06-.12c-.06-.65-.49-1.39-1.19-1.39S38.86,79.5,38.8,80.42Zm8-1.7a.57.57,0,0,1,0,.21,3,3,0,0,1-.4.82l-.1.05a1.42,1.42,0,0,0-.84-.4c-.26,0-.52.27-.69.54a1.16,1.16,0,0,0-.1.44c0,.88,0,2.21,0,2.47s.08.35.27.41a5,5,0,0,0,.82.13.54.54,0,0,1-.05.38c-.16,0-1,0-1.52,0s-1.06,0-1.3,0a.54.54,0,0,1,0-.37,2.23,2.23,0,0,0,.51-.1c.13-.05.21-.13.23-.36s0-1.28,0-2.18c0-.48,0-.87,0-1s-.13-.34-.71-.54c0-.06,0-.26.06-.28a5,5,0,0,0,1.58-.48s.06,0,.06.05c0,.18,0,.75,0,1,0,0,0,0,.06,0a4,4,0,0,1,.82-.82,1.07,1.07,0,0,1,.66-.25A.71.71,0,0,1,46.82,78.72Zm.87,4.59c.18-.05.26-.23.27-.45,0-.4,0-1.31,0-2.12,0-.5,0-.84,0-1s-.19-.31-.67-.49a.38.38,0,0,1,.06-.3,5.19,5.19,0,0,0,1.59-.48.15.15,0,0,1,.05.09c0,.14,0,.52,0,.74,0,0,0,0,.06,0a3.11,3.11,0,0,1,1.76-.84,1.41,1.41,0,0,1,1.24.67,2.84,2.84,0,0,1,.34,1.53c0,.73,0,1.89,0,2.34a.25.25,0,0,0,.13.25,2,2,0,0,0,.65.17.48.48,0,0,1,0,.38c-.18,0-.57,0-1.24,0s-1,0-1.28,0a.54.54,0,0,1,0-.37,3.35,3.35,0,0,0,.53-.09c.18-.06.22-.19.23-.53,0-.73,0-2,0-2.51A1.23,1.23,0,0,0,51,79.5a1.11,1.11,0,0,0-.8-.3,1.69,1.69,0,0,0-1.08.41.6.6,0,0,0-.13.47c0,.92,0,2.18,0,2.77,0,.3.06.39.25.44a2.75,2.75,0,0,0,.54.1.64.64,0,0,1,0,.38c-.19,0-.56,0-1.27,0s-1.1,0-1.26,0a.47.47,0,0,1,0-.37Zm8.7-3.7a1.17,1.17,0,0,0-1-.49.87.87,0,0,0-.52.13,2.82,2.82,0,0,0-.54.93c0,.05-.39-.14-.38-.26a2.61,2.61,0,0,1,.3-.76,4.17,4.17,0,0,1,1.7-.71,1.47,1.47,0,0,1,1.28.69,2.47,2.47,0,0,1,.3,1.28c0,.67-.05,1.67-.05,2.19,0,.27.1.52.49.52a1.2,1.2,0,0,0,.45-.06,1,1,0,0,1-.05.39,1.51,1.51,0,0,1-1.06.45.66.66,0,0,1-.66-.34,1.2,1.2,0,0,1-.1-.32s0,0-.05,0a3.67,3.67,0,0,1-1.54.67,1.09,1.09,0,0,1-.71-.32,1.7,1.7,0,0,1-.44-1.14,1.83,1.83,0,0,1,.23-.74c.43-.23,2-.6,2.45-.84a.22.22,0,0,0,.08-.13,1.64,1.64,0,0,0,0-.35A1.32,1.32,0,0,0,56.38,79.6Zm.12,1.63a10.16,10.16,0,0,0-1.54.6.74.74,0,0,0-.13.41.85.85,0,0,0,.91.88,1.3,1.3,0,0,0,.66-.21.35.35,0,0,0,.14-.3c0-.27,0-1.11,0-1.33C56.57,81.27,56.53,81.22,56.5,81.23Zm6.19-2.51a.54.54,0,0,1,0,.21,3,3,0,0,1-.4.82l-.1.05a1.42,1.42,0,0,0-.84-.4c-.26,0-.52.27-.69.54a1.15,1.15,0,0,0-.1.44c0,.88,0,2.21,0,2.47s.08.35.27.41a5,5,0,0,0,.82.13.54.54,0,0,1-.05.38c-.16,0-1,0-1.52,0s-1.06,0-1.3,0a.53.53,0,0,1,0-.37,2.22,2.22,0,0,0,.5-.1c.13-.05.21-.13.23-.36s0-1.28,0-2.18c0-.48,0-.87,0-1s-.13-.34-.71-.54c0-.06,0-.26.06-.28a5,5,0,0,0,1.58-.48s.06,0,.06.05c0,.18,0,.75,0,1,0,0,0,0,.06,0a4,4,0,0,1,.82-.82,1.07,1.07,0,0,1,.66-.25A.71.71,0,0,1,62.7,78.72Zm6.06,4.74a7.73,7.73,0,0,1-1.68.49s-.08-.08-.09-.17,0-.44,0-.63c0,0,0-.05-.06-.05a4,4,0,0,1-1.81.76,1.8,1.8,0,0,1-1.41-.69,2.89,2.89,0,0,1-.58-1.84A2.73,2.73,0,0,1,64,79.25a4.08,4.08,0,0,1,2.33-.82c.21,0,.44,0,.58.05s.05,0,.05-.05c0-1.52,0-1.93,0-2.25s-.08-.35-.27-.41a4.93,4.93,0,0,0-.75-.13c0-.08,0-.31.05-.35a7.08,7.08,0,0,0,2.1-.34.28.28,0,0,1,.06.18,1.89,1.89,0,0,0-.14,1c0,.7-.05,1.71-.05,3.72,0,1.5,0,2.57,0,2.85s.12.41.25.44a3.1,3.1,0,0,0,.6,0A.8.8,0,0,1,68.76,83.46Zm-4.09-4.09a2.1,2.1,0,0,0-.56,1.57c0,1.4.75,2.13,1.74,2.13a1.59,1.59,0,0,0,1-.35.42.42,0,0,0,.1-.27c0-.31,0-2,0-2.55a.66.66,0,0,0-.28-.6,1.74,1.74,0,0,0-1.06-.3A1.35,1.35,0,0,0,64.67,79.37Zm9.85.23a1.17,1.17,0,0,0-1-.49.87.87,0,0,0-.52.13,2.82,2.82,0,0,0-.54.93c0,.05-.39-.14-.38-.26a2.61,2.61,0,0,1,.3-.76,4.18,4.18,0,0,1,1.7-.71,1.47,1.47,0,0,1,1.28.69,2.47,2.47,0,0,1,.3,1.28c0,.67-.05,1.67-.05,2.19,0,.27.1.52.49.52a1.2,1.2,0,0,0,.45-.06,1,1,0,0,1-.05.39,1.51,1.51,0,0,1-1.06.45.66.66,0,0,1-.66-.34,1.18,1.18,0,0,1-.1-.32s0,0-.05,0a3.67,3.67,0,0,1-1.54.67,1.09,1.09,0,0,1-.71-.32,1.7,1.7,0,0,1-.44-1.14,1.84,1.84,0,0,1,.23-.74c.43-.23,2-.6,2.45-.84a.22.22,0,0,0,.08-.13,1.64,1.64,0,0,0,0-.35A1.32,1.32,0,0,0,74.52,79.6Zm.12,1.63a10.17,10.17,0,0,0-1.54.6.74.74,0,0,0-.13.41.85.85,0,0,0,.91.88,1.3,1.3,0,0,0,.66-.21.35.35,0,0,0,.14-.3c0-.27,0-1.11,0-1.33C74.7,81.27,74.66,81.22,74.63,81.23Zm2.79,2.07c.18-.05.26-.23.27-.45,0-.4,0-1.31,0-2.12,0-.5,0-.84,0-1s-.19-.31-.67-.49a.38.38,0,0,1,.06-.3,5.18,5.18,0,0,0,1.59-.48.15.15,0,0,1,.05.09c0,.14,0,.52,0,.74,0,0,0,0,.06,0a3.11,3.11,0,0,1,1.76-.84,1.41,1.41,0,0,1,1.24.67,2.84,2.84,0,0,1,.34,1.53c0,.73,0,1.89,0,2.34a.25.25,0,0,0,.13.25,2,2,0,0,0,.65.17.48.48,0,0,1,0,.38c-.18,0-.57,0-1.24,0s-1,0-1.28,0a.53.53,0,0,1,0-.37,3.35,3.35,0,0,0,.53-.09c.18-.06.22-.19.23-.53,0-.73,0-2,0-2.51a1.23,1.23,0,0,0-.36-.76,1.11,1.11,0,0,0-.8-.3,1.69,1.69,0,0,0-1.08.41.6.6,0,0,0-.13.47c0,.92,0,2.18,0,2.77,0,.3.06.39.25.44a2.74,2.74,0,0,0,.54.1.63.63,0,0,1,0,.38c-.19,0-.56,0-1.27,0s-1.1,0-1.26,0a.47.47,0,0,1,0-.37Zm11.92.16a7.72,7.72,0,0,1-1.68.49s-.08-.08-.09-.17,0-.44,0-.63c0,0,0-.05-.06-.05a4,4,0,0,1-1.81.76,1.8,1.8,0,0,1-1.41-.69,2.89,2.89,0,0,1-.58-1.84,2.73,2.73,0,0,1,.95-2.08,4.08,4.08,0,0,1,2.33-.82c.21,0,.44,0,.58.05s.05,0,.05-.05c0-1.52,0-1.93,0-2.25s-.08-.35-.27-.41a4.92,4.92,0,0,0-.75-.13c0-.08,0-.31.05-.35a7.07,7.07,0,0,0,2.1-.34.28.28,0,0,1,.07.18,1.9,1.9,0,0,0-.14,1c0,.7-.05,1.71-.05,3.72,0,1.5,0,2.57,0,2.85s.12.41.25.44a3.1,3.1,0,0,0,.6,0A.82.82,0,0,1,89.34,83.46Zm-4.09-4.09a2.1,2.1,0,0,0-.56,1.57c0,1.4.75,2.13,1.74,2.13a1.6,1.6,0,0,0,1-.35.42.42,0,0,0,.1-.27c0-.31,0-2,0-2.55a.66.66,0,0,0-.29-.6,1.74,1.74,0,0,0-1.06-.3A1.35,1.35,0,0,0,85.25,79.37Zm8,2.82c.66-1.57,1.88-4.87,2.16-5.7a4,4,0,0,0,.22-.74h.86a6.88,6.88,0,0,0,.21.67c.26.74,1.7,4.84,2.15,5.92.37.87.47.93,1.4,1,.05,0,0,.32,0,.38-.34,0-1,0-1.58,0s-1.43,0-1.7,0a.54.54,0,0,1,0-.37,4.11,4.11,0,0,0,.71-.14.24.24,0,0,0,.14-.32c-.16-.56-.54-1.65-.78-2.23a.2.2,0,0,0-.12-.09c-.18,0-.63,0-1.22,0-.83,0-.92,0-1.08,0s-.12.08-.13.12a16,16,0,0,0-.7,2.1c0,.22,0,.36.41.47a5,5,0,0,0,.62.1.63.63,0,0,1,0,.38c-.27,0-.93,0-1.66,0s-1.14,0-1.39,0a.47.47,0,0,1,0-.37C92.67,83.28,92.83,83.19,93.26,82.19Zm2.47-5.08c-.22.65-.75,2.11-1,2.8,0,.05,0,.08.05.09s.54,0,1,0c.31,0,.74,0,.87,0s.06-.05,0-.1c-.26-.8-.75-2.24-1-2.8C95.78,77.1,95.74,77.09,95.73,77.11Zm5.11,6.19c.18-.05.26-.23.27-.45,0-.4,0-1.31,0-2.12,0-.5,0-.84,0-1s-.2-.31-.67-.49a.38.38,0,0,1,.06-.3,5.19,5.19,0,0,0,1.59-.48.15.15,0,0,1,.05.09c0,.14,0,.52,0,.74,0,0,0,0,.06,0a3.11,3.11,0,0,1,1.76-.84,1.41,1.41,0,0,1,1.24.67,2.84,2.84,0,0,1,.34,1.53c0,.73,0,1.89,0,2.34a.26.26,0,0,0,.13.25,2,2,0,0,0,.65.17.48.48,0,0,1,0,.38c-.18,0-.57,0-1.24,0s-1,0-1.28,0a.53.53,0,0,1,0-.37,3.32,3.32,0,0,0,.53-.09c.18-.06.22-.19.23-.53,0-.73,0-2,0-2.51a1.23,1.23,0,0,0-.36-.76,1.11,1.11,0,0,0-.8-.3,1.7,1.7,0,0,0-1.08.41.61.61,0,0,0-.13.47c0,.92,0,2.18,0,2.77,0,.3.07.39.25.44a2.76,2.76,0,0,0,.54.1.64.64,0,0,1,0,.38c-.19,0-.56,0-1.27,0s-1.1,0-1.26,0a.47.47,0,0,1,0-.37Zm6.48,0c.18-.05.26-.23.27-.45,0-.4,0-1.31,0-2.12,0-.5,0-.84,0-1s-.19-.31-.67-.49a.38.38,0,0,1,.07-.3,5.18,5.18,0,0,0,1.59-.48.15.15,0,0,1,.05.09c0,.14,0,.52,0,.74,0,0,0,0,.06,0a3.11,3.11,0,0,1,1.76-.84,1.41,1.41,0,0,1,1.24.67,2.85,2.85,0,0,1,.34,1.53c0,.73,0,1.89,0,2.34a.25.25,0,0,0,.13.25,2,2,0,0,0,.65.17.48.48,0,0,1,0,.38c-.18,0-.57,0-1.24,0s-1,0-1.28,0a.54.54,0,0,1,0-.37,3.36,3.36,0,0,0,.53-.09c.18-.06.22-.19.23-.53,0-.73,0-2,0-2.51a1.23,1.23,0,0,0-.36-.76,1.11,1.11,0,0,0-.8-.3,1.69,1.69,0,0,0-1.08.41.6.6,0,0,0-.13.47c0,.92,0,2.18,0,2.77,0,.3.06.39.25.44a2.75,2.75,0,0,0,.55.1.65.65,0,0,1,0,.38c-.2,0-.56,0-1.27,0s-1.1,0-1.26,0a.48.48,0,0,1,0-.37ZM118,82.57a.88.88,0,0,1-.06.35,3,3,0,0,1-2.06,1,2.1,2.1,0,0,1-1.58-.62,2.91,2.91,0,0,1-.74-2.06,2.67,2.67,0,0,1,1.14-2.34,2.87,2.87,0,0,1,1.4-.43,1.91,1.91,0,0,1,1.81,1.84c0,.05.06.1.2.14a.6.6,0,0,1-.1.3,22,22,0,0,1-3.39.29c-.05,0-.08.08-.08.14a2.29,2.29,0,0,0,.53,1.32,1.82,1.82,0,0,0,1.41.57,2.25,2.25,0,0,0,1.48-.54A.19.19,0,0,1,118,82.57Zm-3.45-2.15s0,.09.07.09a19.35,19.35,0,0,0,2.2-.08.18.18,0,0,0,.06-.12c-.06-.65-.49-1.39-1.19-1.39S114.63,79.5,114.56,80.42Zm8.24,2.72a2.1,2.1,0,0,0,1.27.35,1.3,1.3,0,0,0,1.39-1.36c0-.86-.53-1.26-1.7-1.94s-1.93-1.3-1.93-2.46a2.28,2.28,0,0,1,2.55-2.19,14.28,14.28,0,0,1,2,.22,16.5,16.5,0,0,0-.22,1.79c0,.08-.34.08-.37,0-.08-.76-.2-1.13-.51-1.33a1.76,1.76,0,0,0-1-.27,1.32,1.32,0,0,0-1.36,1.32,1.65,1.65,0,0,0,.88,1.48c.52.34,1.17.65,1.61.91a2.21,2.21,0,0,1,1.24,1.92c0,1.27-1,2.4-2.88,2.4a4.77,4.77,0,0,1-1.87-.4,10.2,10.2,0,0,1-.36-1.94c0-.08.34-.16.4-.12A2.81,2.81,0,0,0,122.8,83.14Zm4.45-4.25a6.27,6.27,0,0,0,1.74-.6s.1.06.1.09a7.57,7.57,0,0,0,0,.82s.05,0,.06,0a3.48,3.48,0,0,1,1.85-.79,1.75,1.75,0,0,1,1.28.6,2.59,2.59,0,0,1,.61,1.7,2.87,2.87,0,0,1-1.13,2.38,3.74,3.74,0,0,1-2.12.78,3,3,0,0,1-.52-.08s-.06,0-.06,0c0,.88,0,1.57,0,2,0,.29.09.43.39.48a7.53,7.53,0,0,0,.78.1.47.47,0,0,1-.05.38h-.52a24,24,0,0,0-2.55.16.57.57,0,0,1,0-.39l.56-.13c.26-.09.31-.22.35-.63s0-1.18,0-3.28c0-1.71,0-2.27,0-2.72,0-.25-.07-.36-.2-.44a1.92,1.92,0,0,0-.61-.17A.43.43,0,0,1,127.25,78.89Zm1.92.74a.36.36,0,0,0-.13.27c0,.32,0,2,0,2.46a.78.78,0,0,0,.26.6,1.58,1.58,0,0,0,1,.31,1.39,1.39,0,0,0,.91-.35,2.15,2.15,0,0,0,.6-1.67,2.47,2.47,0,0,0-.44-1.52,1.36,1.36,0,0,0-1.1-.52A1.85,1.85,0,0,0,129.17,79.63Zm7.13,4.15c-.25,0-.66,0-1.32,0s-1,0-1.27,0a.48.48,0,0,1,0-.37,2.82,2.82,0,0,0,.56-.12c.17-.06.21-.17.23-.47s0-1.18,0-1.89c0-.5,0-1,0-1.23a.4.4,0,0,0-.09-.27,1.65,1.65,0,0,0-.62-.31.38.38,0,0,1,.05-.31,6,6,0,0,0,1.68-.37c0,.58,0,1.48,0,2.27s0,1.58,0,2.16a.4.4,0,0,0,.27.44,4.27,4.27,0,0,0,.54.1A.53.53,0,0,1,136.3,83.77Zm-1-6.55a1.26,1.26,0,0,1-.58,0,.71.71,0,0,1-.27-.91,1.09,1.09,0,0,1,.62-.23.55.55,0,0,1,.38.1.66.66,0,0,1,.13.38A.83.83,0,0,1,135.3,77.22Zm3.27,2s-.05.05-.05.06c0,.61,0,1.75,0,2.38a3.37,3.37,0,0,0,.08.93.76.76,0,0,0,.76.5,1.33,1.33,0,0,0,.8-.22,1.09,1.09,0,0,1,0,.4,1.7,1.7,0,0,1-1.28.57,1.21,1.21,0,0,1-1.14-.62,3,3,0,0,1-.18-1.48c0-.74,0-1.9,0-2.42a.12.12,0,0,0-.08-.12l-.7-.05a1,1,0,0,1,.12-.43,3.07,3.07,0,0,0,.61-.14s.05-.05.05-.09v-1.1a3.86,3.86,0,0,0,.83-.6.5.5,0,0,1,.23,0,16.94,16.94,0,0,0-.07,1.71s0,.08.05.08c.62,0,1.39,0,1.58-.07a6.42,6.42,0,0,0-.12.71Zm6.23-.45c-.43.86-1.93,3.25-2.59,4.33,0,0,0,.09,0,.09a12.84,12.84,0,0,0,1.68.1c.18,0,.53-.31.92-1.19a1.07,1.07,0,0,1,.36-.08s0,0,0,0a7.21,7.21,0,0,1-.45,1.45.46.46,0,0,1-.38.27c-.88,0-3-.09-3.55-.08a.71.71,0,0,1-.06-.23c.69-1,2.15-3.26,2.72-4.38a0,0,0,0,0,0-.06c-.37,0-1.31,0-1.57,0s-.5.13-.91,1.14a.58.58,0,0,1-.37-.12c.13-.53.26-1.22.31-1.63a2.92,2.92,0,0,0,.91.13h1.8c.56,0,.89,0,1.09,0C144.79,78.6,144.8,78.76,144.8,78.8Zm5.44,3.77a.88.88,0,0,1-.06.35,3,3,0,0,1-2.06,1,2.1,2.1,0,0,1-1.58-.62,2.91,2.91,0,0,1-.74-2.06,2.66,2.66,0,0,1,1.14-2.34,2.87,2.87,0,0,1,1.4-.43,1.91,1.91,0,0,1,1.81,1.84c0,.05.06.1.19.14a.58.58,0,0,1-.1.3,22,22,0,0,1-3.39.29c-.05,0-.08.08-.08.14a2.29,2.29,0,0,0,.53,1.32,1.82,1.82,0,0,0,1.41.57,2.25,2.25,0,0,0,1.48-.54A.21.21,0,0,1,150.24,82.57Zm-3.45-2.15s0,.09.06.09a19.35,19.35,0,0,0,2.2-.08.17.17,0,0,0,.07-.12c-.07-.65-.49-1.39-1.19-1.39S146.86,79.5,146.79,80.42Zm8-1.7a.61.61,0,0,1,0,.21,3,3,0,0,1-.4.82l-.1.05a1.42,1.42,0,0,0-.84-.4c-.26,0-.52.27-.69.54a1.16,1.16,0,0,0-.1.44c0,.88,0,2.21,0,2.47s.08.35.27.41a5,5,0,0,0,.82.13.54.54,0,0,1-.05.38c-.16,0-1,0-1.52,0s-1.06,0-1.29,0a.53.53,0,0,1,0-.37,2.23,2.23,0,0,0,.5-.1c.13-.05.21-.13.23-.36s0-1.28,0-2.18c0-.48,0-.87,0-1s-.13-.34-.71-.54a.62.62,0,0,1,.06-.28,5,5,0,0,0,1.58-.48s.06,0,.06.05c0,.18,0,.75,0,1,0,0,0,0,.06,0a4,4,0,0,1,.82-.82,1.07,1.07,0,0,1,.66-.25A.71.71,0,0,1,154.82,78.72Z"/><path class="f" d="M10.4,94.21a1.81,1.81,0,0,0,1.1.3,1.12,1.12,0,0,0,1.2-1.18c0-.74-.46-1.09-1.47-1.68s-1.67-1.12-1.67-2.13a2,2,0,0,1,2.21-1.89,12.32,12.32,0,0,1,1.7.19,14.56,14.56,0,0,0-.19,1.55c0,.07-.29.07-.32,0-.07-.66-.17-1-.44-1.15A1.53,1.53,0,0,0,11.6,88a1.14,1.14,0,0,0-1.18,1.14,1.42,1.42,0,0,0,.76,1.28c.45.29,1,.56,1.39.78a1.91,1.91,0,0,1,1.08,1.66,2.21,2.21,0,0,1-2.49,2.07,4.11,4.11,0,0,1-1.61-.35,8.83,8.83,0,0,1-.31-1.68c0-.07.29-.13.35-.1A2.43,2.43,0,0,0,10.4,94.21Z"/><path class="f" d="M16.89,94.86a1.85,1.85,0,0,1-1.6-.77,2.66,2.66,0,0,1-.44-1.5,2.22,2.22,0,0,1,1.13-2,3.13,3.13,0,0,1,1.42-.46,2.2,2.2,0,0,1,.92.17.74.74,0,0,1,.34.29,1.12,1.12,0,0,1,0,.18,1.14,1.14,0,0,1-.38.46.18.18,0,0,1-.11,0,1.79,1.79,0,0,0-1.23-.59c-.84,0-1.2.75-1.2,1.51a2.19,2.19,0,0,0,.41,1.38,1.52,1.52,0,0,0,1.27.58,1.88,1.88,0,0,0,1.28-.54.09.09,0,0,1,.06.07,1.14,1.14,0,0,1-.06.33A2.39,2.39,0,0,1,16.89,94.86Z"/><path class="f" d="M19.28,87.5A5.8,5.8,0,0,0,21,87.13s.08.12.08.16-.11.29-.12,1.05,0,2.15,0,2.46c0,0,0,0,.06,0a2.74,2.74,0,0,1,1.52-.67c.88,0,1.39.69,1.39,1.79,0,.62,0,1.59,0,2.08a.31.31,0,0,0,.15.28,1.52,1.52,0,0,0,.55.13s0,.3,0,.32-.63,0-1.12,0-.92,0-1.06,0a.47.47,0,0,1,0-.32,3.08,3.08,0,0,0,.45-.08c.17-.06.21-.13.22-.58a17.57,17.57,0,0,0,0-2.18,1,1,0,0,0-1-.81,1.55,1.55,0,0,0-.87.3.38.38,0,0,0-.13.27c0,.77,0,2.17,0,2.49s.06.45.29.53l.43.07c.06,0,0,.28,0,.32s-.53,0-1.18,0-.88,0-1.08,0a.41.41,0,0,1,0-.32,2,2,0,0,0,.4-.08c.19-.07.23-.17.25-.48s0-1.6,0-1.86c0-2.71,0-3.43,0-3.84,0-.17-.06-.27-.21-.3a4.85,4.85,0,0,0-.54-.08C19.22,87.75,19.23,87.52,19.28,87.5Z"/><path class="f" d="M30,92.39a2.32,2.32,0,0,1-1,2,2.59,2.59,0,0,1-1.3.42,2.36,2.36,0,0,1-1.25-4.27,2.83,2.83,0,0,1,1.47-.45A2.09,2.09,0,0,1,30,92.39Zm-3-1.66a1.58,1.58,0,0,0-.57,1.45c0,1.32.66,2.22,1.56,2.22a1,1,0,0,0,.68-.23,1.83,1.83,0,0,0,.43-1.41c0-1.3-.6-2.17-1.56-2.17A1,1,0,0,0,27,90.73Z"/><path class="f" d="M35.83,92.39a2.32,2.32,0,0,1-1,2,2.59,2.59,0,0,1-1.3.42,2.36,2.36,0,0,1-1.25-4.27,2.83,2.83,0,0,1,1.47-.45A2.09,2.09,0,0,1,35.83,92.39Zm-3-1.66a1.58,1.58,0,0,0-.57,1.45c0,1.32.66,2.22,1.56,2.22a1,1,0,0,0,.68-.23,1.82,1.82,0,0,0,.43-1.41c0-1.3-.6-2.17-1.56-2.17A1,1,0,0,0,32.78,90.73Z"/><path class="f" d="M36.7,94.43a2.19,2.19,0,0,0,.49-.11.32.32,0,0,0,.18-.31c0-.36,0-1.13,0-3,0-.79,0-2.44,0-2.78,0-.12,0-.31-.17-.35a4.36,4.36,0,0,0-.58-.1.31.31,0,0,1,0-.28,5.8,5.8,0,0,0,1.65-.41.17.17,0,0,1,.08.1,2.93,2.93,0,0,0-.1,1c0,.57,0,1.84,0,2.8,0,1.76,0,2.52,0,2.82s0,.44.25.5a1.36,1.36,0,0,0,.47.1.55.55,0,0,1,0,.32c-.2,0-.56,0-1.15,0-.44,0-1,0-1.11,0A.53.53,0,0,1,36.7,94.43Z"/><path class="f" d="M46.86,92.39a2.32,2.32,0,0,1-1,2,2.59,2.59,0,0,1-1.3.42,2.36,2.36,0,0,1-1.25-4.27,2.83,2.83,0,0,1,1.47-.45A2.09,2.09,0,0,1,46.86,92.39Zm-3-1.66a1.58,1.58,0,0,0-.57,1.45c0,1.32.66,2.22,1.56,2.22a1,1,0,0,0,.68-.23,1.83,1.83,0,0,0,.43-1.41c0-1.3-.6-2.17-1.56-2.17A1,1,0,0,0,43.82,90.73Z"/><path class="f" d="M48.28,94.35c.18-.07.22-.19.22-.39,0-.6,0-1.89,0-3,0,0,0-.1-.07-.1l-.64,0a.69.69,0,0,1,.11-.32,2.24,2.24,0,0,0,.55-.18.14.14,0,0,0,0-.08,3,3,0,0,1,1.19-2.69,2.07,2.07,0,0,1,1.08-.41,1,1,0,0,1,.82.36.23.23,0,0,1,0,.12,2.36,2.36,0,0,1-.38.63.15.15,0,0,1-.12,0,1.58,1.58,0,0,0-.93-.47.58.58,0,0,0-.46.2,3.49,3.49,0,0,0-.35,2c0,.08,0,.2,0,.26s0,.08.07.08c.76,0,1,0,1.2,0a4.3,4.3,0,0,0-.1.59H49.45s-.07.07-.07.1c0,1.09,0,2.37,0,3,0,.25.09.36.32.41a4.75,4.75,0,0,0,.59.09.46.46,0,0,1,0,.32c-.27,0-.69,0-1.34,0-.48,0-.9,0-1.13,0a.37.37,0,0,1,0-.32Z"/><path class="f" d="M54.29,93.39c.57-1.36,1.62-4.21,1.87-4.93a3.51,3.51,0,0,0,.19-.64h.74c0,.17.1.37.18.58.22.64,1.47,4.19,1.86,5.12.32.75.4.81,1.21.91,0,0,0,.28,0,.32-.29,0-.86,0-1.37,0s-1.23,0-1.47,0a.46.46,0,0,1,0-.32,3.58,3.58,0,0,0,.62-.12.21.21,0,0,0,.12-.28c-.13-.48-.47-1.42-.67-1.93a.17.17,0,0,0-.1-.08c-.16,0-.55,0-1.05,0-.72,0-.79,0-.93,0s-.1.07-.11.1a14,14,0,0,0-.6,1.81c0,.19,0,.31.36.4a4.15,4.15,0,0,0,.54.09.54.54,0,0,1,0,.32c-.24,0-.81,0-1.43,0s-1,0-1.2,0a.41.41,0,0,1,0-.32C53.78,94.33,53.92,94.25,54.29,93.39ZM56.43,89c-.19.56-.65,1.83-.84,2.42,0,0,0,.07,0,.08h1.65a.06.06,0,0,0,0-.09c-.22-.69-.65-1.94-.83-2.42C56.47,89,56.44,89,56.43,89Z"/><path class="f" d="M64.06,90.39a.48.48,0,0,1,0,.18,2.59,2.59,0,0,1-.35.71l-.09,0A1.23,1.23,0,0,0,62.9,91c-.22,0-.45.24-.59.47a1,1,0,0,0-.09.38c0,.76,0,1.91,0,2.14s.07.3.24.36a4.26,4.26,0,0,0,.71.11.47.47,0,0,1,0,.32c-.13,0-.86,0-1.31,0s-.92,0-1.12,0a.46.46,0,0,1,0-.32,1.91,1.91,0,0,0,.44-.09c.11,0,.18-.11.2-.31s0-1.11,0-1.88c0-.41,0-.75,0-.88s-.11-.29-.62-.47c0-.06,0-.22.06-.25a4.34,4.34,0,0,0,1.37-.41s.06,0,.06,0,0,.65,0,.86c0,0,0,0,.06,0a3.5,3.5,0,0,1,.71-.71.93.93,0,0,1,.57-.21A.61.61,0,0,1,64.06,90.39Z"/><path class="f" d="M66.72,94.86a1.85,1.85,0,0,1-1.6-.77,2.66,2.66,0,0,1-.44-1.5,2.22,2.22,0,0,1,1.13-2,3.13,3.13,0,0,1,1.42-.46,2.2,2.2,0,0,1,.92.17.74.74,0,0,1,.34.29,1.11,1.11,0,0,1,0,.18,1.14,1.14,0,0,1-.38.46.18.18,0,0,1-.11,0,1.79,1.79,0,0,0-1.23-.59c-.84,0-1.2.75-1.2,1.51A2.19,2.19,0,0,0,66,93.53a1.52,1.52,0,0,0,1.27.58,1.88,1.88,0,0,0,1.28-.54.09.09,0,0,1,.06.07,1.14,1.14,0,0,1-.06.33A2.39,2.39,0,0,1,66.72,94.86Z"/><path class="f" d="M69.12,87.5a5.8,5.8,0,0,0,1.68-.37s.08.12.08.16-.11.29-.12,1.05,0,2.15,0,2.46c0,0,0,0,.06,0a2.74,2.74,0,0,1,1.52-.67c.88,0,1.39.69,1.39,1.79,0,.62,0,1.59,0,2.08a.31.31,0,0,0,.15.28,1.52,1.52,0,0,0,.55.13s0,.3,0,.32-.63,0-1.12,0-.92,0-1.06,0a.47.47,0,0,1,0-.32,3.08,3.08,0,0,0,.45-.08c.17-.06.21-.13.22-.58a17.69,17.69,0,0,0,0-2.18,1,1,0,0,0-1-.81,1.55,1.55,0,0,0-.87.3.38.38,0,0,0-.13.27c0,.77,0,2.17,0,2.49s.06.45.29.53l.43.07c.06,0,0,.28,0,.32s-.53,0-1.18,0-.88,0-1.08,0a.41.41,0,0,1,0-.32,2,2,0,0,0,.4-.08c.19-.07.23-.17.25-.48s0-1.6,0-1.86c0-2.71,0-3.43,0-3.84,0-.17-.06-.27-.21-.3a4.82,4.82,0,0,0-.54-.08C69.06,87.75,69.07,87.52,69.12,87.5Z"/><path class="f" d="M77.3,94.75c-.21,0-.57,0-1.14,0s-.91,0-1.1,0a.41.41,0,0,1,0-.32,2.47,2.47,0,0,0,.48-.1c.15-.06.18-.15.2-.4s0-1,0-1.64c0-.44,0-.84,0-1.06a.35.35,0,0,0-.08-.24,1.41,1.41,0,0,0-.54-.27.33.33,0,0,1,0-.27,5.23,5.23,0,0,0,1.46-.32c0,.5,0,1.28,0,2s0,1.37,0,1.87a.34.34,0,0,0,.24.38,3.67,3.67,0,0,0,.47.09A.46.46,0,0,1,77.3,94.75Zm-.86-5.67a1.08,1.08,0,0,1-.5,0,.61.61,0,0,1-.24-.78.94.94,0,0,1,.54-.2.47.47,0,0,1,.32.09.57.57,0,0,1,.11.32A.72.72,0,0,1,76.44,89.09Z"/><path class="f" d="M79.54,90.85s0,0,0,.06c0,.53,0,1.51,0,2.06a2.9,2.9,0,0,0,.07.81.66.66,0,0,0,.66.44,1.15,1.15,0,0,0,.69-.19,1,1,0,0,1,0,.35,1.47,1.47,0,0,1-1.11.49,1.05,1.05,0,0,1-1-.54A2.64,2.64,0,0,1,78.64,93c0-.64,0-1.65,0-2.09a.11.11,0,0,0-.07-.1l-.6,0a.88.88,0,0,1,.1-.37,2.55,2.55,0,0,0,.53-.12.1.1,0,0,0,0-.08v-1a3.34,3.34,0,0,0,.72-.51.43.43,0,0,1,.2,0c0,.19-.06.69-.06,1.48,0,0,0,.07,0,.07.54,0,1.2,0,1.37-.06a5.4,5.4,0,0,0-.1.62Z"/><path class="f" d="M85.51,93.71a.76.76,0,0,1-.06.3,2.58,2.58,0,0,1-1.78.84,1.81,1.81,0,0,1-1.37-.54,2.51,2.51,0,0,1-.64-1.78,2.3,2.3,0,0,1,1-2,2.48,2.48,0,0,1,1.21-.37,1.65,1.65,0,0,1,1.57,1.59s.06.09.17.12a.51.51,0,0,1-.09.26,19,19,0,0,1-2.93.25s-.07.07-.07.12A2,2,0,0,0,83,93.62a1.57,1.57,0,0,0,1.22.49,2,2,0,0,0,1.28-.47A.17.17,0,0,1,85.51,93.71Zm-3-1.86s0,.08.06.08a16.75,16.75,0,0,0,1.9-.07.15.15,0,0,0,.06-.1c-.06-.56-.43-1.2-1-1.2S82.59,91.06,82.53,91.85Z"/><path class="f" d="M88.62,94.86a1.85,1.85,0,0,1-1.6-.77,2.66,2.66,0,0,1-.44-1.5,2.22,2.22,0,0,1,1.13-2,3.13,3.13,0,0,1,1.42-.46,2.2,2.2,0,0,1,.92.17.75.75,0,0,1,.34.29,1.07,1.07,0,0,1,0,.18,1.13,1.13,0,0,1-.38.46.18.18,0,0,1-.11,0,1.79,1.79,0,0,0-1.23-.59c-.84,0-1.2.75-1.2,1.51a2.19,2.19,0,0,0,.41,1.38,1.52,1.52,0,0,0,1.27.58,1.88,1.88,0,0,0,1.28-.54.09.09,0,0,1,.06.07,1.14,1.14,0,0,1-.06.33A2.39,2.39,0,0,1,88.62,94.86Z"/><path class="f" d="M92.68,90.85s0,0,0,.06c0,.53,0,1.51,0,2.06a2.89,2.89,0,0,0,.07.81.66.66,0,0,0,.66.44,1.15,1.15,0,0,0,.69-.19.94.94,0,0,1,0,.35,1.47,1.47,0,0,1-1.11.49,1.05,1.05,0,0,1-1-.54A2.64,2.64,0,0,1,91.77,93c0-.64,0-1.65,0-2.09a.11.11,0,0,0-.07-.1l-.6,0a.88.88,0,0,1,.1-.37,2.53,2.53,0,0,0,.53-.12.11.11,0,0,0,0-.08v-1a3.35,3.35,0,0,0,.72-.51.43.43,0,0,1,.2,0,14.42,14.42,0,0,0-.06,1.48s0,.07,0,.07c.54,0,1.2,0,1.37-.06a5.63,5.63,0,0,0-.1.62Z"/><path class="f" d="M94.7,90.38a8.43,8.43,0,0,0,1.56-.18,21,21,0,0,0-.07,2.18,6.2,6.2,0,0,0,.06,1.14.84.84,0,0,0,.92.65,1.39,1.39,0,0,0,.92-.35.4.4,0,0,0,.12-.27c0-.16,0-1.09,0-2.43,0-.13,0-.28-.21-.33a4.66,4.66,0,0,0-.72-.12.45.45,0,0,1,.06-.3,11,11,0,0,0,1.78-.16c0,.2,0,.55,0,1v2.53c0,.3.07.4.25.41a3.45,3.45,0,0,0,.47,0,.64.64,0,0,1,0,.32c-.41.17-1.23.4-1.46.46,0,0-.06-.06-.07-.1s0-.46,0-.63a0,0,0,0,0-.07,0,2.43,2.43,0,0,1-1.48.71c-1.1,0-1.32-.76-1.33-1.51,0-.54,0-1.71,0-2.18,0-.19,0-.33-.18-.38a4.73,4.73,0,0,0-.52-.1C94.62,90.61,94.64,90.41,94.7,90.38Z"/><path class="f" d="M103.84,90.39a.5.5,0,0,1,0,.18,2.63,2.63,0,0,1-.35.71l-.09,0a1.23,1.23,0,0,0-.73-.35c-.22,0-.45.24-.59.47a1,1,0,0,0-.09.38c0,.76,0,1.91,0,2.14s.07.3.24.36a4.27,4.27,0,0,0,.71.11.47.47,0,0,1,0,.32c-.13,0-.86,0-1.31,0s-.92,0-1.12,0a.46.46,0,0,1,0-.32,1.91,1.91,0,0,0,.44-.09c.11,0,.18-.11.2-.31s0-1.11,0-1.88c0-.41,0-.75,0-.88s-.11-.29-.62-.47a.54.54,0,0,1,.06-.25,4.34,4.34,0,0,0,1.37-.41s.06,0,.06,0,0,.65,0,.86c0,0,0,0,.06,0a3.51,3.51,0,0,1,.71-.71.93.93,0,0,1,.57-.21A.62.62,0,0,1,103.84,90.39Z"/><path class="f" d="M108.29,93.71a.75.75,0,0,1-.06.3,2.58,2.58,0,0,1-1.78.84,1.81,1.81,0,0,1-1.37-.54,2.51,2.51,0,0,1-.64-1.78,2.3,2.3,0,0,1,1-2,2.49,2.49,0,0,1,1.21-.37,1.65,1.65,0,0,1,1.57,1.59s.06.09.17.12a.5.5,0,0,1-.09.26,19,19,0,0,1-2.93.25s-.07.07-.07.12a2,2,0,0,0,.46,1.14,1.57,1.57,0,0,0,1.22.49,1.94,1.94,0,0,0,1.28-.47A.16.16,0,0,1,108.29,93.71Zm-3-1.86s0,.08.06.08a16.75,16.75,0,0,0,1.9-.07.15.15,0,0,0,.06-.1c-.06-.56-.43-1.2-1-1.2S105.37,91.06,105.31,91.85Z"/></svg>