<svg xmlns="http://www.w3.org/2000/svg" viewBox="0 0 775.78 97.15"><defs><style>.cls-1{fill:#1d1d1b;}.cls-2{fill:#e30613;}.cls-10,.cls-3,.cls-9{fill:#fff;}.cls-3,.cls-4,.cls-5,.cls-6,.cls-7{fill-rule:evenodd;}.cls-4{fill:#dadada;}.cls-5{fill:#c6c6c6;}.cls-6{fill:#c1c8cc;}.cls-7,.cls-8{fill:#ededed;}.cls-10{font-size:35px;font-family:Georgia-Bold, Georgia;font-weight:700;}.cls-11{font-size:40.95px;font-family:Arial-BoldMT, Arial;}</style></defs><title>WZ-Logo</title><g id="Ebene_2" data-name="Ebene 2"><g id="Ebene_1-2" data-name="Ebene 1"><path class="cls-1" d="M37.51,72.64l7.27-25L36.57,20.15c-1.68-5.32-3-9.81-3.85-11.27S30,6.93,28.05,7V2.8c4.25.37,7.68.67,10.3.67s7.1-.3,10.82-.67V7A3.25,3.25,0,0,0,46.3,8.45a5.66,5.66,0,0,0-.14,3.25c.41,2.06,1,3.86,2.17,7.79L51,27.76l2-7.39c.65-2,1.39-4.47,1.45-4.84s.37-1.09.94-3.76a4.32,4.32,0,0,0-.29-2.89C54,6.71,52.24,7,49.17,7V2.8c3.73.37,6.69.67,9.48.67A84.62,84.62,0,0,0,67.4,2.8V7c-3.41,0-4.55,0-6,2s-2.47,5.77-4.29,11.48l-4.2,13.9L64.16,71.49l10.32-41.6c2.7-9.22,4.13-14.72,4.49-17.54.13-1,.83-2.43-.44-4.12C77.45,6.79,74.94,7,73.06,7h-.31V2.8c.13,0,0,.14,0,.14l2.89.2c4.24.23,6.66.33,7.23.33,1.32,0,3.59-.3,6.81-.67V7.24c-1.85-.17-2.53-.19-3.31.7a22,22,0,0,0-3,7c-.73,2.85-2,7.62-4,15.11L66.05,80.08c-1.84,6.4-3,11.15-3.95,14.74H59L47,54.51,35.11,94.69H31.79l-.37-1.27-.73-2.62L12,27.87c-1.8-6.49-2.9-9.73-3.79-12.92-1.58-5.7-2.25-5.85-4-7.3C3.33,6.94,1.65,7.07,0,7V2.8c4.13.37,8.74.8,12.33.8,3.31,0,8.71-.43,12-.8V7c-1.26.13-2.67-.11-3.48.47a3.26,3.26,0,0,0-1.24,2.89c0,1.92,1.63,6.85,3.27,12.84L37.51,72.64"/><path class="cls-1" d="M105.29,40.54v37.1q0,5.3.13,7.11a8,8,0,0,0,.62,2.87c.61,1.43,2,2.18,4.32,2.25h.85V93c-4.46-.29-8.11-.44-11-.44s-6,.15-9.35.44V89.87h.85q3.4,0,4.24-2t.83-10.23V40.54c0-3.57,0-5.93-.13-7.11A8.43,8.43,0,0,0,96,30.56q-.9-2.14-4.31-2.25h-.85V25.42q4.86.41,10.21.4t10.12-.4v2.89h-.85c-2.31,0-3.73.65-4.27,2s-.8,4.73-.8,10.26"/><path class="cls-1" d="M471.38,40.54v37.1q0,5.3.13,7.11a7.81,7.81,0,0,0,.62,2.87c.61,1.43,2,2.18,4.31,2.25h.86V93c-4.46-.29-8.11-.44-11-.44s-6,.15-9.35.44V89.87h.85c2.27,0,3.69-.67,4.24-2s.83-4.74.83-10.23V40.54c0-3.57-.05-5.93-.13-7.11a8.2,8.2,0,0,0-.63-2.87q-.9-2.14-4.31-2.25H457V25.42c3.24.27,6.63.4,10.21.4s6.88-.13,10.12-.4v2.89h-.86c-2.3,0-3.72.65-4.26,2s-.8,4.73-.8,10.26"/><path class="cls-1" d="M147.72,40.26l-2.18.54c-.43-3-.36-5.47-.87-6.71a6.29,6.29,0,0,0-2.39-3c-1.57-1-4.1-1.52-8.72-1.52a50.36,50.36,0,0,0-5.33.32s-.16,1.85-.16,3.17V55.21h2.58c4.35,0,7.35-.26,8.47-1.19s2-3.43,2.07-7.59h2.41c-.27,3.74-.34,6.69-.34,9.41,0,4-.07,9,.21,12.91l-2.06.64c-.14-3.77-.66-7.15-2.29-8.66-1-.95-4.68-1.19-9.73-1.19-.19,0,.86,0-1.32.08V75.17c0,3.91,0,6.64.13,8.16a7.07,7.07,0,0,0,.52,2.75A3.79,3.79,0,0,0,131.38,88a25.16,25.16,0,0,0,6.32.57,20.59,20.59,0,0,0,5.67-.64,9.42,9.42,0,0,0,3.86-2.64c1.54-1.66,1.63-3.73,2.67-8.3l1.85.32-2,15.71c-9.6-.36-15.64-.55-20.83-.55s-10.43.19-15.35.55V89.87h.75c2.37,0,3.84-.66,4.39-2s.83-4.72.83-10.25V40.54c0-5.59-.25-8.82-.66-9.68q-.94-2.45-4.56-2.55h-.75V25.42q6,.51,14.15.51c6.66,0,12.44-.17,19.63-.51l.33,14.84"/><path class="cls-1" d="M245.12,40.26l-2.18.54c-.44-3-.37-5.47-.87-6.71a6.31,6.31,0,0,0-2.4-3c-1.57-1-4.1-1.52-8.71-1.52a50.11,50.11,0,0,0-5.33.32s-.17,1.85-.17,3.17V55.21H228c4.35,0,7.36-.26,8.48-1.19s1.95-3.43,2.06-7.59H241c-.27,3.74-.35,6.69-.35,9.41,0,4-.07,9,.22,12.91l-2.07.64c-.14-3.77-.65-7.15-2.28-8.66-1-.95-4.68-1.19-9.73-1.19-.2,0,.85,0-1.33.08V75.17c0,3.91,0,6.64.13,8.16a7.27,7.27,0,0,0,.52,2.75A3.81,3.81,0,0,0,228.78,88a25.05,25.05,0,0,0,6.32.57,20.51,20.51,0,0,0,5.66-.64,9.52,9.52,0,0,0,3.87-2.64c1.53-1.66,1.62-3.73,2.66-8.3l1.86.32-2,15.71c-9.6-.36-15.65-.55-20.83-.55s-10.45.19-15.36.55V89.87h.75q3.57,0,4.39-2c.55-1.31.83-4.72.83-10.25V40.54q0-8.38-.65-9.68-1-2.45-4.57-2.55H211V25.42q6,.51,14.15.51c6.66,0,12.45-.17,19.64-.51l.33,14.84"/><path class="cls-1" d="M450.21,40.26,448,40.8c-.44-3-.37-5.47-.88-6.71a6.29,6.29,0,0,0-2.39-3c-1.57-1-4.1-1.52-8.71-1.52a50.42,50.42,0,0,0-5.34.32s-.16,1.85-.16,3.17V55.21h2.58c4.35,0,7.35-.26,8.47-1.19s2-3.43,2.07-7.59h2.41c-.26,3.74-.34,6.69-.34,9.41,0,4-.07,9,.22,12.91l-2.07.64c-.14-3.77-.65-7.15-2.29-8.66-1-.95-4.68-1.19-9.73-1.19-.2,0,.86,0-1.32.08V75.17c0,3.91,0,6.64.13,8.16a7.07,7.07,0,0,0,.52,2.75A3.79,3.79,0,0,0,433.87,88a25.16,25.16,0,0,0,6.32.57,20.65,20.65,0,0,0,5.67-.64,9.42,9.42,0,0,0,3.86-2.64c1.54-1.66,1.63-3.73,2.67-8.3l1.86.32-2,15.71c-9.6-.36-15.64-.55-20.83-.55S421,92.65,416.1,93V89.87h.75c2.37,0,3.84-.66,4.39-2s.83-4.72.83-10.25V40.54c0-5.59-.25-8.82-.65-9.68q-1-2.45-4.57-2.55h-.75V25.42q6,.51,14.15.51c6.66,0,12.45-.17,19.64-.51l.32,14.84"/><path class="cls-1" d="M168.44,25.42l29.81,48.52V50.35c0-10-.22-16.06-.87-18.32s-2.83-3.72-6.42-3.72h-.2l.09-2.89a82.51,82.51,0,0,0,8.6.42c3.14,0,6.47-.15,9.15-.42l-.11,2.89h-.2a8.82,8.82,0,0,0-4.17,1.09,4.78,4.78,0,0,0-1.74,2.74,13.07,13.07,0,0,0-.42,3,64.87,64.87,0,0,0-.2,12.19l-.2,41.41c.18,2.82.28,4.54.28,5.47h-2.43c-.2-.36-.55-.94-1-1.75L164.67,38.74l.36,30c.1,10.51-.68,14.36,1.09,18.29a4.83,4.83,0,0,0,4.18,2.82h1.93V93c-4.56-.29-7.39-.44-9.46-.44s-4.85.15-8.51.44V89.87h1.39c2.1,0,3.16-1.09,4.09-2.88,1.27-2.43,1.6-5.79,1.49-12.54L161.34,40c-.11-4.55-.07-5.74-.44-6.61-.34-1.19-1.91-3.93-2.78-4.44a7.42,7.42,0,0,0-3.76-.78h-.2l.05-2.79c2.78.2,5.53.42,7.5.42s4.28-.22,6.73-.42"/><path class="cls-1" d="M594.89,25.42l29.82,48.52V50.35c0-10-.22-16.06-.87-18.32s-2.83-3.72-6.43-3.72h-.2l.09-2.89a82.71,82.71,0,0,0,8.61.42c3.14,0,6.47-.15,9.14-.42l-.11,2.89h-.2a8.85,8.85,0,0,0-4.17,1.09,4.78,4.78,0,0,0-1.73,2.74,12.5,12.5,0,0,0-.43,3,64.36,64.36,0,0,0-.19,12.19L628,88.78c.17,2.82.28,4.54.28,5.47h-2.43c-.2-.36-.55-.94-1-1.75L591.13,38.74l.35,30c.1,10.51-.67,14.36,1.11,18.29a4.79,4.79,0,0,0,4.16,2.82h1.94V93c-4.56-.29-7.39-.44-9.46-.44s-4.85.15-8.52.44V89.87h1.39c2.12,0,3.16-1.09,4.1-2.88,1.27-2.43,1.59-5.79,1.49-12.54l.1-34.41c-.11-4.55-.07-5.74-.43-6.61-.34-1.19-1.91-3.93-2.78-4.44a7.44,7.44,0,0,0-3.77-.78h-.2l.06-2.79c2.78.2,5.53.42,7.49.42s4.29-.22,6.73-.42"/><path class="cls-1" d="M480.59,22.63h1.75c.15,1.12.25,2.14,1.6,2.43,1.74.36,10.26.26,15.59.36h3.26c7.76,0,17.48.23,19.77-.15.87-.14,1.75-.28,2.11-2.64l1.67,0c-1.34,6.54-.88,12.07-1.09,16l-1.89.87a23.54,23.54,0,0,0-.87-5.92c-1.09-3.32-3.16-3.42-6.39-3.42l-7.59.07h-1.1V77.59c0,5.63.24,8.88.61,9.78q.9,2.44,4.31,2.5h1.82V93c-3.89-.29-8.1-.44-10.91-.44s-7.31.15-11.53.44V89.87h1.94q3.57,0,4.42-2t.85-10.28V30.24h-4.41c-3.22,0-9.2-.63-10.57.54s-1.89,3.17-2.62,8.44h-2.1c.72-4.54.94-10.4,1.37-16.58"/><path class="cls-1" d="M542.89,39l.43,22.55c0,5.53-.26,9.71,0,12.53a25.93,25.93,0,0,0,1.53,7.21c2.06,5,5.35,7.93,10.9,7.93,6.33,0,10.18-3.91,12-11,.93-3.59,1-10,1-19.09l.06-14.12c0-7.62.23-12.32-.59-14.14-1.2-2.63-3.13-2.63-5.17-2.63h-.7V25.42a80,80,0,0,0,8.15.4c2.53,0,5-.13,8.11-.4v2.89h-.91c-2.21,0-3.62.63-4.24,2.63s-.93,7-.93,14.14l.44,15.51q0,14-1.91,20c-2.83,9-7.28,13.58-16.79,13.58-6.38,0-11.61-1.87-14.94-5.84a18.05,18.05,0,0,1-3.61-6.66c-1-3.34-1.35-8.4-1.35-15.22l-.07-25.3c0-5.59,0-9.07-.61-10.56s-2.51-2.31-4.95-2.31h-.16V25.42c.28,0,1.61,0,4,0q.6,0,3,.15c2.32.13,4.22.2,5.7.2,2.13,0,5.56-.13,8.16-.4v2.89H548.2c-2.28,0-3.73.65-4.37,2s-.94,4.23-.94,8.78"/><path class="cls-1" d="M683.85,44,682,44a30,30,0,0,0-3.38-9.51,10.36,10.36,0,0,0-3.74-4,14.82,14.82,0,0,0-7.58-2.51c-6.55,0-10.15,2.43-14.09,8.27-2.42,3.56-3,6-4.18,11.57-.84,3.76-.64,7.65-.64,11.68a47.9,47.9,0,0,0,3.29,17.72c1.45,3.65,3.66,7.51,6.39,9.58a13.3,13.3,0,0,0,8.7,3,24.81,24.81,0,0,0,4.35-.34A4.16,4.16,0,0,0,673.93,88V74.64c0-2.63.07-4.71-1-5.68s-1.78-1.45-4.72-1.45h-.41V64.44c4.89.32,8.18.47,10.85.47,2.89,0,5.71-.52,8.55-.4v3a4.25,4.25,0,0,0-3.59,1.3c-.8,1.16-1.09,3.64-1.09,6.71v2.54c0,3.29-.13,6.63,0,8.81,0,.69,1.58.81,1.62,1.37s.12,1.27.18,1.74c-5.84,2.6-13.6,4.39-18.64,4.39a27,27,0,0,1-11.13-2.58A23.09,23.09,0,0,1,646.37,85a31.78,31.78,0,0,1-4.1-7.21,48,48,0,0,1-3.62-18.91,48.44,48.44,0,0,1,3.67-19,28.72,28.72,0,0,1,9.52-11.74,24.35,24.35,0,0,1,14-4.4c3.77,0,7.12,1.1,12.19,2.71a15.26,15.26,0,0,0,5,.93L683.85,44"/><path class="cls-1" d="M267.38,35.72l.05-5.44.05-1.4a27.24,27.24,0,0,1,3.14,0,9.57,9.57,0,0,1,7.7,3.69c1.88,2.42,2.92,6.23,2.92,10.72,0,4.06-.4,7.8-1.95,10.29a10,10,0,0,1-3.9,3.25c-1.62.88-4.42,1.08-6.27,1.08h-1.74V35.72Zm15.16,50.57c1.53,3,2.94,5.41,4,6.07s4.63.94,8,.65h4.55V89.92a9.67,9.67,0,0,1-4.76-2.66c-1.2-1.36-2.44-5.05-5-9.78l-7.17-15.35-.65-1.51c-.63-1.1-.38-.83-.64-1.19a15.5,15.5,0,0,0,6.92-6.83c1.73-3.09,2.24-6.27,2.18-10.4-.11-6.82-.87-8.55-3.77-12.31-1.29-1.68-1.91-1.95-3.93-2.95A18.18,18.18,0,0,0,275,25.42a37.49,37.49,0,0,0-4.15,0q-6.26.54-9.6.54a80,80,0,0,1-8.3-.51v2.91h.8c2.42.07,3.95.93,4.59,2.56.42.86.64,4.08.64,9.67V77.64c0,5.53-.28,8.94-.85,10.25s-2,2-4.38,2h-.8V93q4.24-.44,7-.44c.9,0,2.74.08,5.55.21,1.94.09,4.29.15,7.06.23h1.79V89.87h-2C270,89.8,268.55,89,268,87.32q-.56-1.29-.6-9.68v-16l1.33,0c.63,0,1.72-.08,3.26-.22l10.57,24.8"/><path class="cls-1" d="M356.08.94,358.75,0c.58,1.51.75,2.75,2.89,3s9.38.1,15.82.1h4c4.31,0,12.49,0,25-.31,1.89-.06,2.94-.15,3.89-.15l-1.44,3c-.71,1.19-1.73,3.32-4.19,8.23l-3.25,6.86L368.72,86.21l2.27,0,14.42.09c4.25,0,10.11.28,12.19-.13,2.84-.58,3.34-.58,4.91-1.8a15.25,15.25,0,0,0,4.28-6.19c.93-2.31,1.07-3.74,2.25-8.44l2.83.86-1.41,8.24c-1,5.79-1.75,8.83-2.41,14.19-6.1-.39-15.83-.45-29.17-.45-9.38,0-18.27.06-26.69.45l.84-2.28c.57-1.06,1.54-2.92,2.91-5.52,1.52-2.89,2.69-6,4.12-8.52l33.57-67.3H380.35c-8,0-14.52-.37-17.55,1.73-3.54,2.46-3.83,6.53-5.06,13.08l-3,.06L356.08.94"/><path class="cls-2" d="M324,32.68a5.06,5.06,0,0,1-2.16.41,19.56,19.56,0,0,1-4-.2c-.75-.19-2.2-.56-2.23-1.59s1.16-1.57,1.51-1.69.54,0,.6.12c0,0,.06.32-.35.47a.73.73,0,0,0-.42.78c0,.42,1,.86,1.87.92a28.65,28.65,0,0,0,4.59-.06c.48-.17,1-.47.9-.86a1.31,1.31,0,0,1,.22.9,1.57,1.57,0,0,1-.51.8"/><path class="cls-3" d="M349.2,82.1a4.69,4.69,0,0,1-.35-.54h0l-.34,3.78,1.18.09.28-3.07a.92.92,0,0,1-.73-.25"/><path class="cls-3" d="M303.45,81.87a3.2,3.2,0,0,1-.33.07,1.88,1.88,0,0,1,.63.91l-.06-1c-.09.07-.16,0-.24,0"/><path class="cls-3" d="M303.11,83.85a1,1,0,0,1-.48-.06l.13,2.28,1.18-.11-.18-2.88a.91.91,0,0,1-.16.44.72.72,0,0,1-.49.33"/><path class="cls-4" d="M354.26,74.05s-.94-1.79-1.87-3.67l-.36.73a12.28,12.28,0,0,0,2.23,2.94"/><path class="cls-5" d="M359.44,59.46l-1.05-1.08-.18.35a6.92,6.92,0,0,0,1.23.73"/><path class="cls-4" d="M300.29,58.26a9.21,9.21,0,0,0,1-4.35c-.77,1.41-1.44,2.72-1.78,3.4s-.7,1.53-1.13,2.59a5.19,5.19,0,0,0,1.87-1.64"/><path class="cls-4" d="M300,50.4a10.36,10.36,0,0,1,1-1.09,7.52,7.52,0,0,0-1.22-2.61,5,5,0,0,0-.44-.49,62.75,62.75,0,0,0-4.76,5.46,10.06,10.06,0,0,1-.82,1v1.94l.58-.09c1.72-.37,5.08-3.34,5.64-4.13"/><path class="cls-4" d="M297,44.87c-.25-.07-.51-.11-.78-.16-.7.36-1.38.69-1.89.93l-.55.24v.42a11.42,11.42,0,0,0,3-1.3l.21-.13"/><path class="cls-4" d="M355.82,65.56a.3.3,0,0,1-.21.08l-.83,0-.6,1.19.2.29c.88,1.21,3.16,3.1,4.58,1.73A12.43,12.43,0,0,1,356.64,65c-.17-.48-.41-1.06-.68-1.69l0,2.06a.32.32,0,0,1-.1.2"/><path class="cls-4" d="M297.57,57.79a58.1,58.1,0,0,0,3.73-5.17s0-.06.06-.1c0-.46,0-.91-.07-1.35-.51.63-1,1.18-1.18,1.45-.8,1-4.29,5.09-4.85,6-.33.51-1,1.41-1.52,2.06h.92a20.32,20.32,0,0,0,2.91-2.86"/><path class="cls-4" d="M353.75,52.85l-.55,1.09c.9,1,1.94,2.05,2.61,2.71a21.12,21.12,0,0,0,2.4,2.08l.18-.35a17.33,17.33,0,0,1-1.75-2c-.42-.64-1.85-2.31-2.89-3.5"/><path class="cls-4" d="M360.81,52.78s-1.26-.42-3.4-2.86c-.51-.58-1-1.09-1.41-1.57l-1.58,3.15a9.73,9.73,0,0,0,3.71,1.94,2.75,2.75,0,0,0,2.68-.66"/><path class="cls-4" d="M344,28.79l-1.47.53-.75,12.81,1.67,0A28.64,28.64,0,0,1,344.59,37a27.81,27.81,0,0,0-1-3.79.37.37,0,0,1,.23-.46.35.35,0,0,1,.45.21c0,.1.51,1.48.89,3.07a4.38,4.38,0,0,1,1.09-1.1,6.65,6.65,0,0,1,3.09-.85,1.59,1.59,0,0,1-.28-.34,29.46,29.46,0,0,0,3.63-.06c1.9-.24,1.89-.84,2.2-1.31,0,0-2.73-.67-3.81-.78a19.26,19.26,0,0,1-4.87-1.11,4.55,4.55,0,0,1-.59,0c-1.18-.11-1.27-.8-1.59-1.63"/><path class="cls-4" d="M351,61.43l4.16.11c-.76-1.64-1.57-3.3-1.93-4.23-.2-.5-.48-1.12-.81-1.8L350.19,60c.17.3.32.57.44.76s.21.39.37.67"/><path class="cls-4" d="M351.62,70.38c.14.25.27.5.41.73l.36-.73c-.22-.45-.45-.9-.65-1.34l-.12,1.34"/><path class="cls-4" d="M358.61,45.33l-.91-.4-.29.57a14.23,14.23,0,0,0,2.95.63s-.56-.24-1.75-.8"/><path class="cls-4" d="M296.2,44.71c.27,0,.53.09.78.16.78-.45,2.41-1.23,3.54-1.77a12.34,12.34,0,0,0-1.24-.23c-.27.17-.51.33-.68.46a18,18,0,0,1-2.4,1.38"/><path class="cls-4" d="M292.56,46.43a4.35,4.35,0,0,0,1.2-.13v-.42l-1.2.55"/><path class="cls-4" d="M291.77,54a2.19,2.19,0,0,0,2,.65V52.68c-1.34,1.52-2,1.29-2,1.29"/><path class="cls-4" d="M293.12,61.45a4.56,4.56,0,0,0,1.54-.8h-.92l-.62.8"/><path class="cls-4" d="M299.31,46.21a5,5,0,0,1,.44.49A7.52,7.52,0,0,1,301,49.31c1.12-1.09,2.73-2.53,2.95-2.8a2.7,2.7,0,0,1,.71-.58l-.51-.69A4.68,4.68,0,0,0,302,43.61s-.07,0-.09,0c-.75.76-1.74,1.76-2.32,2.38-.07.08-.16.16-.24.26"/><path class="cls-3" d="M317.66,51.6c-.65-1.89-2.44-3.11-3.63-3.05a1.89,1.89,0,0,0-1.07.37.73.73,0,0,1-.46.17c-.35,0-1.35-1.19-1.83-2.08a5,5,0,0,0-.89-1.1,9.06,9.06,0,0,1-.7-.75,3.84,3.84,0,0,1-1.06-2,24.39,24.39,0,0,1,.07-5.9,15.31,15.31,0,0,1,1.39-4.87.36.36,0,0,0-.15-.48.38.38,0,0,0-.49.16,15.65,15.65,0,0,0-1.46,5.13,27.46,27.46,0,0,0-.06,6.14,4.69,4.69,0,0,0,1.21,2.29c.29.33.53.58.74.79a3.88,3.88,0,0,1,.77.94s1.4,2.45,2.46,2.45a1.36,1.36,0,0,0,.85-.3,1.18,1.18,0,0,1,.72-.24A3.66,3.66,0,0,1,317,51.83a.37.37,0,0,0,.46.22.35.35,0,0,0,.22-.45"/><path class="cls-3" d="M344.85,38.91c0,.48,0,.93,0,1.37a10,10,0,0,1-.27,3.91A4.48,4.48,0,0,1,343,46.52a5.75,5.75,0,0,0-1.43,1.76,2.86,2.86,0,0,1-.16.25l-.07.12c-.54.81-.77,1-.89,1a1.14,1.14,0,0,1-.41-.17,2.62,2.62,0,0,0-1.31-.37c-1.16,0-2.69.81-3.5,3.1a.36.36,0,0,0,.23.45.35.35,0,0,0,.45-.21c.68-1.93,1.9-2.62,2.82-2.62a1.92,1.92,0,0,1,1,.28,1.63,1.63,0,0,0,.75.25c.59,0,1.05-.64,1.48-1.3l.08-.1.17-.29a5.38,5.38,0,0,1,1.21-1.53,5.17,5.17,0,0,0,1.92-2.66,10.73,10.73,0,0,0,.33-4.21c0-.44,0-.88-.06-1.35a14.59,14.59,0,0,0-.44-2.89,5.62,5.62,0,0,0-.53,1,11,11,0,0,1,.26,1.93"/><path class="cls-3" d="M343.78,32.73a.37.37,0,0,0-.23.46,27.81,27.81,0,0,1,1,3.79,5.62,5.62,0,0,1,.53-1c-.38-1.59-.86-3-.89-3.07a.35.35,0,0,0-.45-.21"/><path class="cls-4" d="M301.52,75v.6s.09-.31.11-.33l-.11-.27"/><path class="cls-4" d="M300.67,73l-.25-.58-.1,0a8.36,8.36,0,0,1-2.63-1.82,4.58,4.58,0,0,1-.47-.53,5.71,5.71,0,0,1-.94-3.93v0a6,6,0,0,1,.53-2.12l-.29-.69a6.45,6.45,0,0,0-.81,2.77,10.43,10.43,0,0,0,0,1.48C295,69.21,294,70.89,294,70.89a5,5,0,0,0,2.74-.6,5.46,5.46,0,0,0,.56.64,9,9,0,0,0,2.7,1.89c-.83,1.2-1.55,2.12-1.55,2.12a10.08,10.08,0,0,0,2.16-1.89l.12,0-.05-.13"/><path class="cls-4" d="M306.18,52c0-2.81-.29-4.06-1.07-5.36-.16.18-.36.38-.55.57-.39.4-2.05,2.44-3.27,4,0,.44.07.89.07,1.35a32.53,32.53,0,0,1,3-3.47,32.81,32.81,0,0,0-3.06,4.86,9.21,9.21,0,0,1-1,4.35,5.19,5.19,0,0,1-1.87,1.64c-.26.62-.52,1.29-.77,2a5.68,5.68,0,0,0-1.13,1.37l.29.69a5.09,5.09,0,0,1,.31-.55A5.5,5.5,0,0,1,300.48,61a5.82,5.82,0,0,1,1.78-.2c.22-.15.44-.31.65-.48a9.25,9.25,0,0,0,2-2.5l.68-1.49a12.07,12.07,0,0,0,.58-4.36"/><path class="cls-4" d="M347.83,64.71l-.64,0-.41,0V61.89l1.21,0,.77,0,.44,0,.29-.57-1,0-.76,0-1.27,0a.25.25,0,0,0-.16.06l0,0a.32.32,0,0,0-.08.21v3.33a.29.29,0,0,0,.27.29l.85,0h.22l.28-.56"/><path class="cls-4" d="M355.37,64.43l0,.62h-.29l-.28.56.83,0a.3.3,0,0,0,.21-.08.32.32,0,0,0,.1-.2l0-2.06v0l-.58,1.17"/><path class="cls-4" d="M355.71,61.55h-.55L351,61.43l-1.51,0-.29.57,2.13,0,4.08.11,0,2.31.58-1.17v0l0-1.38a.28.28,0,0,0-.28-.3"/><path class="cls-4" d="M353,65l-3.12-.14-.76,0-1.32-.06-.28.56,1.85.09h.26l0,.5L349,73c-.14-.88-.34-1.95-.63-3.26-.33-1.49-.65-2.86-1-4.13L344.71,71s0,0,0,.06c1.11,2.67,2.34,4.73,3.64,5.58,0,0,.05,0,.07-.06a1.86,1.86,0,0,1,.31-.2,3.82,3.82,0,0,1,.53-.23.15.15,0,0,1,.07,0l.16-1.8.64-7.29.13-1.44V65.4l1.27,0L351.26,68l-.13,1.4-.39,4.27.7-1.41.18-1.9.12-1.34.33-3.56,1.31,0c.3.5.57.93.8,1.26l.6-1.19.28-.56L353,65"/><path class="cls-4" d="M356.46,41.64a2.93,2.93,0,0,0,2.68-1.79,6.37,6.37,0,0,1-2.92-.53c-1.18-.53-3.51-1.9-4-2.18-.66-.43-3.23-2.17-3.79-2.17a26.21,26.21,0,0,1,3.75.42,20.76,20.76,0,0,0,3.87.47,8.69,8.69,0,0,0,1.67-.23s-1.48-.2-2.2-.36-2-.24-2.62-.36-2.31-.34-2.62-.42a2,2,0,0,1-1-.43,6.65,6.65,0,0,0-3.09.85,4.38,4.38,0,0,0-1.09,1.1,14.59,14.59,0,0,1,.44,2.89c0,.47,0,.91.06,1.35a10.73,10.73,0,0,1-.33,4.21,5.17,5.17,0,0,1-1.92,2.66,5.38,5.38,0,0,0-1.21,1.53l-.17.29-.08.1c-.43.66-.89,1.3-1.48,1.3a1.63,1.63,0,0,1-.75-.25,1.92,1.92,0,0,0-1-.28c-.92,0-2.14.69-2.82,2.62a.35.35,0,0,1-.45.21.36.36,0,0,1-.23-.45c.81-2.29,2.34-3.1,3.5-3.1a2.62,2.62,0,0,1,1.31.37,1.14,1.14,0,0,0,.41.17c.12,0,.35-.17.89-1l.07-.12a2.86,2.86,0,0,0,.16-.25A5.75,5.75,0,0,1,343,46.52a4.48,4.48,0,0,0,1.65-2.33,10,10,0,0,0,.27-3.91c0-.44,0-.89,0-1.37a11,11,0,0,0-.26-1.93,28.64,28.64,0,0,0-1.15,5.11l-1.67,0,.75-12.81,1.47-.53c.32.83.41,1.52,1.59,1.63a4.55,4.55,0,0,0,.59,0l-.49-.19s3.69-.48,4.85-1.48c.43-.37,1.11-1,1.11-1l-.24-.16a11.17,11.17,0,0,0-.93.82,5.68,5.68,0,0,1-2.35.71,22.12,22.12,0,0,1-2.32.12s.87-.75,1.43-1.31a2.25,2.25,0,0,0,.48-1.24,8.74,8.74,0,0,1-2.21.88,11.88,11.88,0,0,1-2.38,0,1.83,1.83,0,0,0-.48-1.42s-1.43,2.2-2.32,2.08-2.53,1.12-2.92,1.91a3.05,3.05,0,0,0,.66,3.21c.41.54.91.36,1.31.12a1.47,1.47,0,0,1,1.13-.35c.47.07.54,1.06.59,2,.06,1.13.52,3.94.06,3.87s-1.61-2.68-2.74-2.74a1.84,1.84,0,0,0-1.91,2,4.28,4.28,0,0,0,1.5,3.63s.17.42-.78.95c-1.86,1.05-2.28,1.13-3,1.13-.95,0-1.9-.23-2.38.49s-.72,1.06-.72,1.06a2,2,0,0,1-1.6-.31,2,2,0,0,1-.25-1.75,21.58,21.58,0,0,0,.44-2.34,14.33,14.33,0,0,0,1.39,1.9.87.87,0,0,0,1.24,0,1,1,0,0,0,.39-.92s-.43.53-.91.49-.87-1.12-.95-2a5.38,5.38,0,0,1,.44-2.11,6.05,6.05,0,0,0,2.41,2.86c.64.24.8-.47.8-.47a5.33,5.33,0,0,1-1.19-2.19,19.57,19.57,0,0,1-.4-3,23.48,23.48,0,0,0-.79-3.4,2.07,2.07,0,0,1,.77-.12c.95-.06,1.43.18,2.27,1.31a6.91,6.91,0,0,1,1,3,3.46,3.46,0,0,0,.35-2.74c-.17-1-1.6-2.38-2.2-2.86a19,19,0,0,0-2.26-1.31,8.19,8.19,0,0,0,2.56-.54,4.82,4.82,0,0,0,2.56-1.84,2.65,2.65,0,0,0,0-2.32A17.48,17.48,0,0,1,335,27.7a2.21,2.21,0,0,1-2,.42A14.31,14.31,0,0,1,331,26.57a4.53,4.53,0,0,0-1.57-.64l.24-3.23h.43V21.39h-2l-.14,2.06-.53,0V22.34h.18V21h-2.5v1.37h.17v1.13l-.53,0-.13-2.06h-2V22.7H323l.24,3.23a5.36,5.36,0,0,0-1,.7,1.41,1.41,0,0,0-.48,1l-.87.22a2.07,2.07,0,0,0-1.42,1.21,2,2,0,0,0,.25,1.5l.22.42.35-.34c.26-.26,1-.25,1.81-.25h.38c1,0,1.73.41,1.92,1.06s-.41,1.16-1,1.65a3.71,3.71,0,0,1-1.18.65l-.63.19.51.42a1.35,1.35,0,0,0,1.13.26h.47a3.77,3.77,0,0,0,1.44-.35,4.73,4.73,0,0,1,.67-.24c.68-.22,1-.16,1.37.25s.25,1.83.25,1.84a2,2,0,0,1-.47,1.24,1.73,1.73,0,0,1-2,.47,1,1,0,0,1-.6-1.51c.2-.36,1-.16,1-.16s.24-.35-.28-.71a1,1,0,0,0-1.39.2,3.71,3.71,0,0,0-.52,1.79,6.12,6.12,0,0,0-3.69-1.6,2.5,2.5,0,0,0-2.59,1.4c-.39.91.17,3.41.17,3.41A3.67,3.67,0,0,1,318.42,38a2.3,2.3,0,0,1,2.37-.32c1.44.4,1.56,1.23,1.56,1.23s-1.43-.28-1.71.8a.88.88,0,0,0,.48,1.11,2,2,0,0,0,.95.2s-.64-.32-.64-.6,0-.47.36-.39a8.32,8.32,0,0,1,1.39.39,6.84,6.84,0,0,0,1.79.52,4.49,4.49,0,0,0-1.19,1.22,6.78,6.78,0,0,0-.44,2.51,2.68,2.68,0,0,1-.28,1.51,2,2,0,0,1-.71.76,3.14,3.14,0,0,1-1.35-1,5.26,5.26,0,0,0-3.26-1.5,4.49,4.49,0,0,1-2.7-1,7.35,7.35,0,0,1-1.27-1.91c1.59.17,2.15-.87,2.07-2.46a2.38,2.38,0,0,0-2.23-2.23c-.72,0-1,.57-1.43.33s-.32-1.43-.39-2.39.31-1.43.79-1.51.47.56.87.79.64,1.12,1.27-.31a8,8,0,0,0-.23-5c-.4-.8-2.15-1-3-.56-.59.27-1.91-1.42-1.91-1.42a9.22,9.22,0,0,0,0,2.13s-2-.63-2.7-.95a15.75,15.75,0,0,1-2.06-1.35,8.74,8.74,0,0,0,1.19,2c.55.55,1.82,1.51,1.82,1.51h-2.22c-.87,0-1.75.16-2.07-.16s-1.11-1-1.11-1l-.23.16a7.82,7.82,0,0,0,1.1,1c.48.31,1.52.87,1.52.87s-2,.55-3,.87a35.15,35.15,0,0,1-4.06.64A3.82,3.82,0,0,0,300,33.8a17.85,17.85,0,0,0,3.82.16,2,2,0,0,1-1.43.79,22.92,22.92,0,0,0-2.7.72,26.81,26.81,0,0,1-3.1.63c-.72.16-2,.48-2,.48a5.8,5.8,0,0,0,1.59.31c.72,0,2.94-.79,4.29-1.1a4.46,4.46,0,0,1,2.39.07,5,5,0,0,0-2.39,1.28,25.2,25.2,0,0,1-4,2.78A6,6,0,0,1,293.44,41a2.86,2.86,0,0,0,2.45,1.18,13.19,13.19,0,0,0,4.61-.87,11,11,0,0,1,2.39-.55c-.46.26-2.39,1.32-3.61,2.08a12.34,12.34,0,0,1,1.24.23l1-.48a1.44,1.44,0,0,1,1.35-.08l-1,1s.06,0,.09,0a4.68,4.68,0,0,1,2.16,1.63l.51.69c.33-.2.67-.31.8-.14s0,.51-.32.86c.78,1.3,1,2.55,1.07,5.36a12.07,12.07,0,0,1-.58,4.36c.39-.84.73-1.62.94-2.15a7.31,7.31,0,0,1,2.07-2.87c-.88,1-2.7,6.28-3.18,7.78-.12.38-.35,1.12-.63,2a4.92,4.92,0,0,0-1.14-.61c.32-.71.79-1.69,1.26-2.7a9.25,9.25,0,0,1-2,2.5c-.21.17-.43.33-.65.48a4.57,4.57,0,0,1,1.17.24,4.44,4.44,0,0,1,1.19.64,4,4,0,0,1,.55.51,5.28,5.28,0,0,0-.67-.13,5.91,5.91,0,0,0-1.51,0,4.28,4.28,0,0,0-1.33.35l.23.52h0l.28.6.48-.85a5.16,5.16,0,0,1,1.68-.05c-.35,1.07-.71,2.23-1.05,3.28l.58,1.22c.46-1.29,1-2.92,1.45-4.32l.52.15.43.13c-.37,1.57-.76,3.38-1.15,5.48-.06.31-.11.61-.16.91l.89,1.9c.7,1.33,1.23,2.5,1.66,3.43A47.75,47.75,0,0,0,311,64.78c.71-3,2.06-11.6,2.06-11.6l.4.08c-.08,1-.56,7.54-.64,9s-.87,8.26-.87,8.26A34.69,34.69,0,0,0,313.05,65c.16-1.43,1-5.39,1-5.39-.08,1.26,0,4.37.08,5.16s-.16,4-.16,4a29.68,29.68,0,0,0,1.91-2.63A7.57,7.57,0,0,0,317,61.52a55.63,55.63,0,0,1,.32-6.67,13,13,0,0,1,1.75,6.6c-.08,2.38-1.59,4.75-2.78,6.27s-5.16,5.4-5.16,5.4a2.44,2.44,0,0,1,.89.07l-3.1,2.51a.23.23,0,0,0-.15-.14.27.27,0,0,0-.25,0l-.54.32c.1.19.19.36.28.5l.23-.14.2.69a5.11,5.11,0,0,0,.77.6l-.36-1.24,3.64-3a.18.18,0,0,0,.05-.07s0,0,0,0h0c.18-.13.43-.29.71-.46h0l.13-.08h0l.13-.08h0l.13-.08,0,0,.13-.07,0,0,.14-.08,0,0,.14-.08,0,0,.13-.07h0l.13-.08s0,0,0,0l.15-.08h0l.7-.4s0,0,.05,0l.06,0,.08,0,.09,0,0,0,.08,0,0,0,.07,0,0,0,0,0,.06,0,.06,0,0,0s0,0,0,0l.05,0,0,0,.1,0h0l0,0a11.75,11.75,0,0,1-1.12,4.69,2.52,2.52,0,0,1,.25-.21l0,0,.25-.17.05,0a2.26,2.26,0,0,1,.26-.14l.05,0a1.69,1.69,0,0,1,.28-.12h0a4.37,4.37,0,0,1,.62-.17,0,0,0,0,1,0,0l.32-.06h0l.31,0a1.44,1.44,0,0,1-.15.21s0,0,0,0l-.1.14s0,0,0,0l-.11.12,0,0-.14.14s0,0,0,0a1.59,1.59,0,0,1-.13.13l0,0c-.06.05-.12.11-.18.15l-.05,0a1,1,0,0,1-.2.14c-.76.5-1,.41-1.36-.15a.27.27,0,0,0-.35-.1L310.27,78a5.52,5.52,0,0,0,.77.27l4.15-2c.53.68,1.09.7,2,.13a4.61,4.61,0,0,0,1.44-1.54.26.26,0,0,0,0-.21,8.44,8.44,0,0,1,1.31.08s.64-2.78,1.2-4.3A52.27,52.27,0,0,1,324,65.09c.48,1,.56,4.53.25,6A13.47,13.47,0,0,1,322,75.5a17.09,17.09,0,0,1-2.78,2.62,7.56,7.56,0,0,0,3.1-1.51c.63-.48,2.3-1.43,2.3-1.43a7.09,7.09,0,0,1-.64,2.54,4.5,4.5,0,0,1-2.54,2.39,4.42,4.42,0,0,1-3.57.23,3.94,3.94,0,0,1-1.11-2.3,2.41,2.41,0,0,0-.87,1.75c.07.95.63,1.5,1.82,1.91a13.57,13.57,0,0,0,2.94.47,8.38,8.38,0,0,1-2.31,1c-1.5.32-4.28,1.59-4.92,3a5.24,5.24,0,0,0,0,4.13s1.83-2.07,2.47-2.62a33.44,33.44,0,0,1,4-2.7,9.51,9.51,0,0,0,3.82-3.41,16.48,16.48,0,0,0,1.5-4,6.66,6.66,0,0,1-.39,3.9c-.88,1.82-1.75,3.25-3.81,4a5.53,5.53,0,0,0-3.34,7.94c.72.88,1.91,1.59,4.29.72a10.79,10.79,0,0,1-2.94-1,2.45,2.45,0,0,1-.47-2.45,4.89,4.89,0,0,1,2.29-2.63,29.09,29.09,0,0,0,3.9-2.54,9.43,9.43,0,0,1-2,3.89c-1.35,1.28-2.3,1.74-3.26,1.5,0,0,.4,1.6,1.68,1.6s2.62-1.6,3.49-3.1l.4-.08s-.38,1.58-.64,2.54c-.32,1.19-1.83,1.67-1.83,1.67s1.43,1.11,2.23-.16c0,0,.06,1.3,1.19,1.47a3.55,3.55,0,0,0-.41,1.43c.11.65.53,1.14,1.84.71,0,0-1,0-.9-.77s.12-1.2.48-1.37a1.22,1.22,0,0,0,.78-.42,3.65,3.65,0,0,0,.36-1.13c1.19,1.55,2.14.24,2.14.24s-1.77-.48-2.08-1.67c-.26-1-.76-2.34-.76-2.34l.4.08c.87,1.5,1.89,2.76,3.15,2.62,1.08-.12,2-2.2,2-2.2a3.58,3.58,0,0,1-3.1-.62,7.43,7.43,0,0,1-2.62-4.28c.48.57,3,2.59,4.23,2.81a3.58,3.58,0,0,1,3.22,2.75,3,3,0,0,1-1,3c-.51.44-2.74.36-2.74.36,1.73,2,3.22,1.07,4.18-.24a5.3,5.3,0,0,0,.23-5.25,6.86,6.86,0,0,0-3.81-3.45,7.3,7.3,0,0,1-3.45-3.82,7.79,7.79,0,0,1-.74-3.61,21.05,21.05,0,0,0,1.75,3.56,14.51,14.51,0,0,0,4.35,3.63,35.34,35.34,0,0,1,4,3c.63.55,2.26,2.56,2.26,2.56.3-3.09-.14-3.69-.77-5.12S336.4,83,334.48,83a5.13,5.13,0,0,1-3.09-1.56,9.19,9.19,0,0,0,3.65.22c1.19-.41,2-.56,2.06-1.51s-1.07-2-1.07-2a3,3,0,0,1-1,2.08,3.68,3.68,0,0,1-3.77-.19c-1.77-1-1.8-1.22-2.36-2.24a4.94,4.94,0,0,1-.42-2.45s1.27.71,1.91,1.19A9.47,9.47,0,0,0,334,77.92,22,22,0,0,1,331,75a16.68,16.68,0,0,1-2.51-4.48,8.12,8.12,0,0,1,.3-5.44A31.37,31.37,0,0,1,330.91,70a8.87,8.87,0,0,0,1.72,3.58,2.51,2.51,0,0,1,.48,1.72,14.08,14.08,0,0,1,.95-1.19c0-.11-.07-.18-.07-.19a.31.31,0,0,1,.19-.37.29.29,0,0,1,.31.12l.1-.09s.79.71,1.2,1c.15.1,1.49,1.54,2.27,0,.12-.25-1.2.6-1.62-2.2a11.26,11.26,0,0,1-.37-1.47h0a0,0,0,0,0,0,0h0l.06,0s0,0,0,0l.09,0h0l.11,0a0,0,0,0,0,0,0l.15.06h0l1.13.52a0,0,0,0,0,0,0,.76.76,0,0,1,.18.09h0l.17.09h0l.16.09a0,0,0,0,1,0,0,.51.51,0,0,1,.16.09.4.4,0,0,1,0-.26.31.31,0,0,1,.41-.06l.81.57a6,6,0,0,0,2.2-.18s-4.67-2.52-5.84-4c-2-2.56-2-4.4-2.09-6.78s.36-5.51,1.32-7.1c0,0,.45,4.3.83,7.51a19.21,19.21,0,0,0,1.13,4.53,15.14,15.14,0,0,0,2.32,3.27s-.35-4.68-.41-5.47-.17-8.27-.24-9.54c0,0,1.09,7.68,1.25,9.11a34.26,34.26,0,0,0,1,5.37s-.57-5.66-.66-7.09S340,54.75,340,53.8l.3-.3s1.07,6.43,1.9,9.71A61.05,61.05,0,0,0,344.67,71s0,0,0-.06l2.69-5.4c0-.11,0-.21-.07-.31l-.85,0a.29.29,0,0,1-.27-.29V61.6a.32.32,0,0,1,.08-.21l0,0c-.68-2.64-1.21-4.48-1.43-5.55s-1-4.64-1-4.64a3.87,3.87,0,0,1,.6,1c.16.48,2.56,6.67,2.8,7.86a8,8,0,0,0,.42,1.3l.76,0c-.65-1.65-1.23-3.15-1.42-3.77-.48-1.5-2.68-6.49-3-8.45a25.92,25.92,0,0,1,3,4.7c.61,1.54,2.22,4.49,3.15,6.15l2.23-4.49c-1.21-2.54-3.06-5.93-3.76-7.43,0,0,2.4,3,3.1,4.11a18.17,18.17,0,0,0,1.44,1.75l.55-1.09-.86-1c-.8-.95-4.71-5.88-5.27-6.43s-1.1-1.12-.87-1.44.93.8,1.25,1.2,4.35,4.58,4.89,5.07c.28.25.84.75,1.53,1.27L356,48.35c-1.05-1.13-1.9-2-2.64-2.77-1-1.12-3.87-4.47-3.87-4.47a13.18,13.18,0,0,0,1.73,1.13c.79.39,3.83,2.37,4.78,2.76.39.16.88.33,1.41.5l.29-.57a30.9,30.9,0,0,1-3.52-1.6c-3.08-1.87-5-3.12-5.46-3.83,0,0,2.6,1.32,3.57,1.67a8.48,8.48,0,0,0,4.17.47ZM308.21,55.48c-.17,1.29-1,3.59-1.89,7.39l-.17-.3a4.41,4.41,0,0,0-.53-.69c.26-.85.45-1.53.53-1.87.23-1.19,2-6.36,2.14-6.83a2.45,2.45,0,0,1,.87-1,20.45,20.45,0,0,0-1,3.25Zm9.23-3.43a.37.37,0,0,1-.46-.22,3.66,3.66,0,0,0-2.91-2.56,1.18,1.18,0,0,0-.72.24,1.36,1.36,0,0,1-.85.3c-1.06,0-2.45-2.44-2.46-2.45a3.88,3.88,0,0,0-.77-.94c-.21-.21-.45-.46-.74-.79a4.69,4.69,0,0,1-1.21-2.29,27.46,27.46,0,0,1,.06-6.14,15.65,15.65,0,0,1,1.46-5.13.38.38,0,0,1,.49-.16.36.36,0,0,1,.15.48,15.31,15.31,0,0,0-1.39,4.87,24.39,24.39,0,0,0-.07,5.9,3.84,3.84,0,0,0,1.06,2,9.06,9.06,0,0,0,.7.75,5,5,0,0,1,.89,1.1c.48.89,1.48,2.08,1.83,2.08a.73.73,0,0,0,.46-.17,1.89,1.89,0,0,1,1.07-.37c1.19-.06,3,1.16,3.63,3.05a.35.35,0,0,1-.22.45Zm11-17.08a5.44,5.44,0,0,0-.74-1.19,1.81,1.81,0,0,0-2.12-.46c-.27.08-.49.18-.72.26a3.07,3.07,0,0,1-1.17.3h-.16a2,2,0,0,0,.33-.25,4.82,4.82,0,0,0,1-1.09,12,12,0,0,1,2.48.05c.05-.2-2.2-1-2.24-1.2a.83.83,0,0,0,0-.15,2.47,2.47,0,0,0-2.6-1.57h-.38a5.4,5.4,0,0,0-1.91.19,1.05,1.05,0,0,1-.06-.52,1.38,1.38,0,0,1,.95-.82,10,10,0,0,1,2.62-.4h.15s.35,1.06.95,1.06.89-1,.89-1a9.56,9.56,0,0,1,1.07.09l.3.08a1.93,1.93,0,0,1-.47.73,4.89,4.89,0,0,1-1.19.65l-.69.24.61.4s1.47.94,1.92,1.33c.69.61,1.43,1.49,1.43,1.94a5.6,5.6,0,0,1-.19,1.31Zm.55-9h-5.41V24.84H329v1.09Zm.18-3.49L329,24.37h-5.4l-.16-1.93,0-.22H323v-.36h1.09l.12,1.84v.21h.22l1,0h.25V21.86h-.18v-.41h1.54v.41h-.18V24h.25l1,0h.21l0-.21.12-1.84h1.09v.36h-.4l0,.22"/><path class="cls-4" d="M305.84,71.41l-.89-1.9c-.84,5.13-.37,7.35,0,8.24a1.46,1.46,0,0,0,.31.53l.19-.24a19.05,19.05,0,0,0,2-3.2c-.43-.93-1-2.1-1.66-3.43"/><path class="cls-6" d="M303.75,82.85v.23a.91.91,0,0,0,0-.23"/><path class="cls-4" d="M338.69,75.33a.29.29,0,0,0-.37.07c-.22.29-.78.37-2.06.29-1.13-.07-1.72-1.92-1.72-1.94a.22.22,0,0,0-.05-.08.29.29,0,0,0-.31-.12.31.31,0,0,0-.19.37s0,.08.07.19c.2.55.88,2.08,2.17,2.15a3.51,3.51,0,0,0,2.36-.33l2.85,1.64.27-.51-3-1.73"/><path class="cls-4" d="M344.1,80.61l-.88.07a.28.28,0,0,0-.27.25l-.24,2a.32.32,0,0,0,.08.23.3.3,0,0,0,.21.1h.48l0,1.15-.54,0a.28.28,0,0,0-.23.12.3.3,0,0,0,0,.26l.78,2.2a.23.23,0,0,0,.16.17.24.24,0,0,0,.23,0l.18-.08.35.83-.45.15a.3.3,0,0,0-.19.27l0,1.64-2.17.57a.33.33,0,0,0-.19.14.36.36,0,0,0,0,.23l.18.61-.93.4-.24-.44a.23.23,0,0,0-.19-.14.31.31,0,0,0-.23,0l-1.75,1.27a.31.31,0,0,0-.09.35l.87,2-1.22,1.37a.29.29,0,0,0,.43.38l1.77-2a1.29,1.29,0,0,1,.54.55,1.81,1.81,0,0,1-.09,1.46A.29.29,0,1,0,341,97,2.38,2.38,0,0,0,341,95a1.73,1.73,0,0,0-.64-.71l.88-.74a.28.28,0,0,0,.07-.36l-.29-.54.77-.32.11.38a.26.26,0,0,0,.17.17.29.29,0,0,0,.24,0l2-1a.28.28,0,0,0,.14-.29l-.13-1.21,1.62-.63a.33.33,0,0,0,.19-.3L346,87.79a.32.32,0,0,0-.13-.22.31.31,0,0,0-.25,0l-.31.1-.37-1,.34-.18a.29.29,0,0,0,.16-.3l-.24-1.59a.3.3,0,0,0-.29-.24l-.42,0,0-1.1H345a.29.29,0,0,0,.29-.26l.26-2.16a.3.3,0,0,0-.08-.23.27.27,0,0,0-.23-.08l-.46,0,.07-.77-.75,0,0,.79Zm-4.73,13.81L338.75,93l1.29-.94.69,1.25-1.36,1.12Zm3-2L342,91l1.78-.47.09.91-1.48,1Zm3.05-4.22.1,1.09-1.24.63,0-1.37,1.1-.35Zm-.79-3.27.17,1.14-1,.49L343.3,85l1.36-.1Zm.24-3.8-.19,1.57h-1.39l.17-1.46,1.41-.1"/><path class="cls-4" d="M349.59,76l-.3.1-.06.64a5.19,5.19,0,0,1,1.26-.35V76.2l0-.4a3.81,3.81,0,0,0-1,.19"/><path class="cls-4" d="M338.92,71.81a.31.31,0,0,0-.41.06.4.4,0,0,0,0,.26.3.3,0,0,0,0,.08.12.12,0,0,0,.07.07l4.09,2.9c.09-.17.18-.35.26-.52l-3.21-2.28-.81-.57"/><path class="cls-4" d="M353,80a1.23,1.23,0,0,1,0-.31h-.58a1.79,1.79,0,0,0,.09.51,1.13,1.13,0,0,1-.08.78.87.87,0,0,1-.45.44,8.91,8.91,0,0,1-1.4.3,3.27,3.27,0,0,1-.59,0,.71.71,0,0,1-.33,0,1.94,1.94,0,0,1-.22-.34l.63-.37.6-.35.82-.49a.26.26,0,0,0,.12-.35.24.24,0,0,0-.11-.13h-.37l-.38.08a5,5,0,0,1-.58.09,2.59,2.59,0,0,1-.61,0l-.25,0-.34,0a1.13,1.13,0,0,1-.35-.09H348a.55.55,0,0,0,.12.33.58.58,0,0,0,.19.16,1.41,1.41,0,0,0,.57.17l.33,0,.24,0h.38L349,81l-.13,0a4.58,4.58,0,0,1-.56-.15,1,1,0,0,1-.36-.22,1,1,0,0,0-.78-.46,1.39,1.39,0,0,1-.44-.13l-.47-.25c-.37,0-.75,0-1.12,0,.28.16.94.54,1.33.73a1.61,1.61,0,0,0,.6.18c.23,0,.31.07.39.19a1.49,1.49,0,0,0,.8.51l-.37,4.16a.3.3,0,0,0,.07.21.4.4,0,0,0,.2.11l1.75.13a.29.29,0,0,0,.3-.25l.32-3.44a13.13,13.13,0,0,0,1.64-.35,1.35,1.35,0,0,0,.79-.75A1.57,1.57,0,0,0,353,80Zm-3.38,5.41-1.18-.09.34-3.78h0a4.69,4.69,0,0,0,.35.54.92.92,0,0,0,.73.25l-.28,3.07"/><path class="cls-4" d="M353,77.77a2.11,2.11,0,0,0-1.16-1.57c-.27-.15-.52-.25-.68-.33h0a1.21,1.21,0,0,0-.56-.07l0,.4.05.11c.09,0,0,.16,0,.17l.06.61h-.23a4.75,4.75,0,0,1-.66,0,1.75,1.75,0,0,0-.56,0,1.37,1.37,0,0,0-.59.24h0c-.09.07-.53.4-.57.62a.7.7,0,0,0,.16.54.83.83,0,0,0,.29.21,1,1,0,0,0,.39.11,1.74,1.74,0,0,0-.41.2.91.91,0,0,0-.42.6,1,1,0,0,0,0,.16h.58s0,0,0,0a.16.16,0,0,1,0,0c0-.12.17-.25.39-.33a2,2,0,0,1,.75-.15l.48,0c.2,0,.4,0,.58-.06l.46-.07a.3.3,0,0,0,.24-.29.31.31,0,0,0-.26-.28h-1.82l-.34-.12-.12,0a.53.53,0,0,1-.35-.21s.1-.14.11-.19.14-.12.23-.19l.2-.11a.85.85,0,0,1,.51-.07,5,5,0,0,0,.7.07H351a.34.34,0,0,0,.22-.07.3.3,0,0,0,.1-.21v-.75c.54.28,1.05.67,1.09,1.25a7.79,7.79,0,0,1,0,1.18c0,.26,0,.49,0,.69H353a5.12,5.12,0,0,1,0-.68,10.68,10.68,0,0,0,0-1.25"/><path class="cls-4" d="M351.13,75.87h0l.34-3.59-.7,1.41-.06.6-.14,1.51,0,.4h1.31c-.27-.15-.52-.25-.68-.33"/><path class="cls-4" d="M349.22,76.12a3.82,3.82,0,0,0-.53.23,1.86,1.86,0,0,0-.31.2s-.05,0-.07.06l-.19.16a3.24,3.24,0,0,1-1.19.75c-.2,0-.51-.47-.64-.85v0h0s0,0,0,0,0,0,0,0,0,0,0,0l0,0h0l-1.51-1a.27.27,0,0,0-.23,0,.35.35,0,0,0-.13.08l-1.36-1c-.08.17-.17.35-.26.52l1.38,1-.8,1.81-1.55-.89-.27.51,1.65.94L343,79a.3.3,0,0,0,.23.32l.82.19v.3l.75,0v-.1l.23,0,.08.05c.37,0,.75,0,1.12,0-.28-.14-.56-.31-.75-.42l.58-1.82a1,1,0,0,0,.94.56,2.81,2.81,0,0,0,1.32-.87,1.19,1.19,0,0,1,.3-.15l.11-.06.13-.1.16-.08a1.21,1.21,0,0,1,.2-.09l.06-.64a.15.15,0,0,0-.07,0Zm-3.72,1.31-.55,1.7-1.33-.3.05-.39,1-2.19,1,.64-.18.54"/><path class="cls-7" d="M300.32,72.35l.1,0-.05-.12-.05.09"/><path class="cls-3" d="M302.09,71q-.33-.15-.72-.36a4.3,4.3,0,0,1-2.08-2.56,3.9,3.9,0,0,1-.12-.71c-.12-1.67.39-3.94,2.24-4.87l.25-.1-.12-.3c-.35-.59-.22-.45-.36-.65a8.09,8.09,0,0,0,1.08-.64,5.82,5.82,0,0,0-1.78.2,5.5,5.5,0,0,0-3.36,2.32,5.09,5.09,0,0,0-.31.55l.07.16,1.95,4.57,1.54,3.62.05.12a4.37,4.37,0,0,0,.57.21,8.5,8.5,0,0,0,2.46.35V71.49a8.6,8.6,0,0,1-1.36-.46"/><path class="cls-3" d="M304.62,61.72a7.24,7.24,0,0,0-1.19-.64,4.57,4.57,0,0,0-1.17-.24,8.09,8.09,0,0,1-1.08.64c.14.2,0,.06.36.65l.12.3a4.28,4.28,0,0,1,1.33-.35,5.91,5.91,0,0,1,1.51,0,5.28,5.28,0,0,1,.67.13,4,4,0,0,0-.55-.51"/><path class="cls-3" d="M298.83,68.64l-1.95-4.57-.07-.16a6,6,0,0,0-.53,2.12v0a5.71,5.71,0,0,0,.94,3.93,4.58,4.58,0,0,0,.47.53,8.36,8.36,0,0,0,2.63,1.82l.1,0-.05-.12-1.54-3.62"/><polyline class="cls-3" points="348.76 61.94 347.99 61.92 346.78 61.89 346.78 64.66 347.19 64.68 347.83 64.71 348.54 63.3 348.96 62.45 349.2 61.96 348.76 61.94"/><polyline class="cls-3" points="351.33 62.01 349.2 61.96 348.96 62.45 348.54 63.3 347.83 64.71 349.15 64.77 349.91 64.81 353.02 64.95 355.06 65.04 355.37 64.43 355.41 62.12 351.33 62.01"/><path class="cls-3" d="M312.81,73.27a.18.18,0,0,1-.05.07l-3.64,3,.36,1.24a6.59,6.59,0,0,0,.79.41l4.89-2.31a.27.27,0,0,1,.35.1c.38.56.6.65,1.36.15a1,1,0,0,0,.2-.14l.05,0c.06,0,.12-.1.18-.15l0,0a1.59,1.59,0,0,0,.13-.13s0,0,0,0l.14-.14,0,0,.11-.12s0,0,0,0l.1-.14s0,0,0,0a1.44,1.44,0,0,0,.15-.21l-.31,0h0l-.32.06a0,0,0,0,0,0,0,4.37,4.37,0,0,0-.62.17h0a1.69,1.69,0,0,0-.28.12l-.05,0a2.26,2.26,0,0,0-.26.14l-.05,0-.25.17,0,0a2.52,2.52,0,0,0-.25.21A11.75,11.75,0,0,0,316.71,71l0,0h0l-.1,0,0,0-.05,0s0,0,0,0l0,0-.06,0-.06,0,0,0,0,0-.07,0,0,0-.08,0,0,0-.09,0-.08,0-.06,0s0,0-.05,0l-.7.4h0l-.15.08s0,0,0,0l-.13.08h0l-.13.07,0,0-.14.08,0,0-.14.08,0,0-.13.07,0,0-.13.08h0l-.13.08h0l-.13.08h0c-.28.17-.53.33-.71.46h0s0,0,0,0"/><path class="cls-3" d="M309.68,78.23l.59-.28a6.59,6.59,0,0,1-.79-.41l.2.69"/><path class="cls-7" d="M315,71.94h0"/><path class="cls-7" d="M314.81,72s0,0,0,0,0,0,0,0"/><path class="cls-7" d="M314.65,72.13h0"/><path class="cls-7" d="M314.32,72.32l0,0,0,0"/><path class="cls-7" d="M313.84,72.6h0"/><path class="cls-7" d="M313.69,72.69h0"/><polyline class="cls-7" points="313.55 72.77 313.56 72.77 313.55 72.77"/><path class="cls-7" d="M314.15,72.42l0,0,0,0"/><path class="cls-7" d="M314,72.51l0,0,0,0"/><path class="cls-8" d="M315.7,71.53s0,0,.05,0,0,0-.05,0"/><path class="cls-7" d="M314.48,72.22l0,0,0,0"/><path class="cls-7" d="M317.41,74.78a0,0,0,0,1,0,0,0,0,0,0,0,0,0"/><path class="cls-7" d="M316.76,75h0"/><path class="cls-7" d="M315.81,71.47l.08,0-.08,0"/><path class="cls-7" d="M316.67,71l0,0,0,0"/><path class="cls-7" d="M316.49,71.1l.05,0-.05,0"/><path class="cls-7" d="M316.43,75.1l.05,0-.05,0"/><path class="cls-7" d="M316.12,75.26l.05,0-.05,0"/><path class="cls-7" d="M315.84,75.45l0,0,0,0"/><path class="cls-7" d="M316.57,71l.1,0-.1,0"/><path class="cls-7" d="M316,71.37l0,0,0,0"/><path class="cls-7" d="M316.1,71.31l0,0,0,0"/><path class="cls-7" d="M316.43,71.13l0,0,0,0"/><path class="cls-8" d="M316.22,71.24l0,0,0,0"/><path class="cls-7" d="M317.74,74.71h0"/><path class="cls-7" d="M316.31,71.19l.06,0-.06,0"/><path class="cls-7" d="M317.91,74.88s0,0,0,0,0,0,0,0"/><path class="cls-7" d="M317.79,75.05s0,0,0,0,0,0,0,0"/><path class="cls-7" d="M317.12,75.72l-.05,0,.05,0"/><path class="cls-7" d="M312.84,73.23s0,0,0,0,0,0,0,0"/><path class="cls-7" d="M317.33,75.54l0,0,0,0"/><path class="cls-7" d="M317.5,75.38s0,0,0,0,0,0,0,0"/><path class="cls-7" d="M317.67,75.19l0,0,0,0"/><path class="cls-3" d="M308.28,76.39a2.3,2.3,0,0,0,.29.4l.14.15-.2-.69-.23.14"/><path class="cls-3" d="M308.28,76.39l-.86.52.67,3,1.28-.62-.66-2.3-.14-.15a2.3,2.3,0,0,1-.29-.4"/><path class="cls-3" d="M338.52,72.21a.3.3,0,0,1,0-.08.51.51,0,0,0-.16-.09,0,0,0,0,0,0,0l-.16-.09h0l-.17-.09h0a.76.76,0,0,0-.18-.09h0c-.4-.2-.81-.39-1.13-.53h0l-.15-.06a0,0,0,0,1,0,0l-.11,0h0l-.09,0s0,0,0,0,0,0-.06,0h0a0,0,0,0,1,0,0h0a11.26,11.26,0,0,0,.37,1.47c.42,2.8,1.74,2,1.62,2.2-.78,1.49-2.12,0-2.27,0-.41-.3-1.2-1-1.2-1l-.1.09a.22.22,0,0,1,.05.08s.59,1.87,1.72,1.94c1.28.08,1.84,0,2.06-.29a.29.29,0,0,1,.37-.07l3,1.73.74-1.4c.07-.16.16-.32.23-.48l-4.09-2.9a.12.12,0,0,1-.07-.07"/><path class="cls-3" d="M341.71,77.06l1.55.89.8-1.81-1.38-1c-.07.16-.16.32-.23.48l-.74,1.4"/><path class="cls-7" d="M336.61,71.2h0"/><path class="cls-7" d="M336.07,71h0"/><path class="cls-7" d="M336.2,71s0,0,0,0,0,0,0,0"/><path class="cls-7" d="M336.11,71h0"/><path class="cls-7" d="M336.31,71.07h0"/><path class="cls-7" d="M336.45,71.13a0,0,0,0,0,0,0,0,0,0,0,1,0,0"/><path class="cls-7" d="M337.93,71.82h0"/><path class="cls-7" d="M338.12,71.92h0"/><path class="cls-7" d="M337.74,71.72a0,0,0,0,0,0,0h0"/><path class="cls-7" d="M338.3,72a0,0,0,0,1,0,0,0,0,0,0,0,0,0"/><path class="cls-7" d="M338.48,72.13a.3.3,0,0,0,0,.08.3.3,0,0,1,0-.08"/><polyline class="cls-3" points="345.68 76.89 344.65 76.25 343.67 78.44 343.62 78.83 344.95 79.13 345.5 77.43 345.68 76.89"/><path class="cls-3" d="M304.11,79.47l.1,1.64c.4-.17,1.35-.68,2.16-1.12a5.3,5.3,0,0,1-2.09-.4,1.77,1.77,0,0,1-.17-.12"/><path class="cls-3" d="M304.28,79.59a5.3,5.3,0,0,0,2.09.4l1-.56L307.09,78c-.51.33-1.41.78-1.95.52A2.28,2.28,0,0,1,304,77.39l.13,2.08a1.77,1.77,0,0,0,.17.12"/><path class="cls-3" d="M303.54,79.92c-.05.11-.39.06-.5.11.06,0,.34.24.38.28l.19.26,0-.71s0,0,0,.06"/><path class="cls-3" d="M303.51,79v-.22a18.46,18.46,0,0,1-1.3-2.23l.06,1c.43.5.88,1,1.06,1.21a.87.87,0,0,1,.19.25"/><path class="cls-3" d="M303.36,76.49l-.05-.79-.13-2.2a8.78,8.78,0,0,1-1.16-.1l.1,1.73,0,.6.05.78a18.46,18.46,0,0,0,1.3,2.23l-.14-2.25"/><path class="cls-4" d="M316.71,94.81l-1-1.52a.28.28,0,0,0-.21-.13l-1.11-.07-.06-1.64a.27.27,0,0,0-.09-.2.28.28,0,0,0-.21-.07l-2.15.16a.29.29,0,0,0-.16.07L311.52,90a.31.31,0,0,0-.09-.21.3.3,0,0,0-.22-.08l-1.74.08a.3.3,0,0,0-.18.08V88.36a.29.29,0,0,0-.29-.28h-.18l.18-.89,1.27.1a.26.26,0,0,0,.22-.07.29.29,0,0,0,.09-.21l0-1.82a.27.27,0,0,0-.09-.21.32.32,0,0,0-.2-.08l-.52,0,0-1,.56-.11a.28.28,0,0,0,.23-.33l-.42-2.11a.31.31,0,0,0-.13-.19.26.26,0,0,0-.21,0l-.41.09L309.16,80l.06,0h-.53a16.53,16.53,0,0,1-2.32,0c-.81.44-1.76,1-2.16,1.12l-.1-1.64a4,4,0,0,1-.61-.73V79a.87.87,0,0,0-.19-.25c-.18-.18-.63-.71-1.06-1.21l-.06-1-.12-.26-.25-.56-.2-.46-.09.07a2.6,2.6,0,0,0-.24.28c-.46.51-.6.84-.5.93s0,0,0,0a6.6,6.6,0,0,0-1,1.9,2.61,2.61,0,0,0,.31,2A1.14,1.14,0,0,0,300,81a1.76,1.76,0,0,0,.7,1.17,17.65,17.65,0,0,1,1.3,1.2l.18,3a.27.27,0,0,0,.11.2.31.31,0,0,0,.21.07l1.75-.16a.28.28,0,0,0,.25-.3l-.28-4.5.18-.06c.65-.26,2.4-1.2,3.13-1.59l.06.27a.32.32,0,0,0,.16.2.33.33,0,0,0,.24,0l.37-.19.15,1-.46.11a.27.27,0,0,0-.22.31l.25,2.11a.3.3,0,0,0,.12.19.29.29,0,0,0,.22,0l.62-.12,0,.91h-.46a.29.29,0,0,0-.28.29l0,1.62a.3.3,0,0,0,0,.1l-.2,1.11h-1.34a.27.27,0,0,0-.28.28l-.09,2a.27.27,0,0,0,.09.21.24.24,0,0,0,.21.08l2.3-.08a.28.28,0,0,0,.23-.12L309.4,92a.3.3,0,0,0,.1.2.26.26,0,0,0,.22.07h1.86a.28.28,0,0,0,.12,0l.12,1.37a.29.29,0,0,0,.27.27l1.88.07-.56,2.19a.27.27,0,0,0,.21.34.28.28,0,0,0,.35-.19l.65-2.56.73,0,.88,1.39a.28.28,0,0,0,.39.09.27.27,0,0,0,.09-.39ZM303.54,79.92s0,0,0-.06l0,.71-.19-.26s-.32-.23-.38-.28c.11,0,.45,0,.5-.11ZM302,82.5c-.23-.21-.52-.48-.88-.79a1.12,1.12,0,0,1-.49-.74.44.44,0,0,1,.11-.35h0a.22.22,0,0,0,.09-.17.27.27,0,0,0-.11-.25,1.89,1.89,0,0,1-.29-1.62,5.78,5.78,0,0,1,.77-1.5l.53.63c.2.24.43.49.63.74s.48.55.6.67a.51.51,0,0,1,.12.54,1.56,1.56,0,0,1-.64-.33l0,0-.62-.54-.19-.15a.26.26,0,0,0-.39,0,.27.27,0,0,0,0,.39c.12.12.34.33.62.56a2.14,2.14,0,0,0,.26.19l.35.32a7.85,7.85,0,0,1,.58.58,1.11,1.11,0,0,1,.33.7c0,.07-.07.09-.1.09a.66.66,0,0,1-.49-.11l-.26-.21-.61-.5-.46-.37a.27.27,0,0,0-.39,0,.29.29,0,0,0,0,.41l.88.82.62.55.25.22c.57.49.51.64.34.89,0,.07-.08.08-.1.08a.72.72,0,0,1-.42-.13,0,0,0,0,0,0,0c-.08-.1-.28-.31-.62-.64Zm.79,3.57-.13-2.28a1,1,0,0,0,.48.06.72.72,0,0,0,.49-.33.91.91,0,0,0,.16-.44v-.23a1.88,1.88,0,0,0-.63-.91,3.2,3.2,0,0,0,.33-.07c.08,0,.15,0,.24,0l.06,1a.91.91,0,0,1,0,.23l.18,2.88-1.18.11Zm5.87-2.53L308.44,82l1.22-.26.3,1.53-1.33.28ZM310,85.49V86.7l-1.13-.1V85.53l1.13,0ZM308.72,90l-1.72.06.05-1.41h1.67V90Zm1.11,1.63-.05-1.32,1.17,0,.2,1.4-1.32,0Zm2.53,1.63-.11-1.38,1.56-.11.08,1.68-1.53-.19"/><path class="cls-3" d="M302,82.5c-.23-.21-.52-.48-.88-.79a1.12,1.12,0,0,1-.49-.74.44.44,0,0,1,.11-.35h0a.22.22,0,0,0,.09-.17.27.27,0,0,0-.11-.25,1.89,1.89,0,0,1-.29-1.62,5.78,5.78,0,0,1,.77-1.5l.53.63c.2.24.43.49.63.74s.48.55.6.67a.51.51,0,0,1,.12.54,1.56,1.56,0,0,1-.64-.33l0,0-.62-.54-.19-.15a.26.26,0,0,0-.39,0,.27.27,0,0,0,0,.39c.12.12.34.33.62.56a2.14,2.14,0,0,0,.26.19l.35.32a7.85,7.85,0,0,1,.58.58,1.11,1.11,0,0,1,.33.7c0,.07-.07.09-.1.09a.66.66,0,0,1-.49-.11l-.26-.21-.61-.5-.46-.37a.27.27,0,0,0-.39,0,.29.29,0,0,0,0,.41l.88.82.62.55.25.22c.57.49.51.64.34.89,0,.07-.08.08-.1.08a.72.72,0,0,1-.42-.13,0,0,0,0,0,0,0c-.08-.1-.28-.31-.62-.64"/><path class="cls-4" d="M309.84,78.78l1.2-.56a5.52,5.52,0,0,1-.77-.27l-.59.28-.2-.69a5.11,5.11,0,0,1-.77-.6l.66,2.3-1.28.62-.67-3,.86-.52c-.09-.14-.18-.31-.28-.5l-1.05.64a.28.28,0,0,0-.13.3l.12.55c-.43.34-1.14.74-1.48.66l-.19.24a1.46,1.46,0,0,1-.31-.53,2.12,2.12,0,0,1-.6-.9,2.53,2.53,0,0,0-.45-.62l-.17-2.73H304V71l-.23,0a8.07,8.07,0,0,1-1.41-.44,12.51,12.51,0,0,0,.9-1.87c.16-.39.36-.91.58-1.5l-.58-1.22c-.48,1.48-.9,2.73-1.1,3.21-.15.32-.32.66-.52,1a3.61,3.61,0,0,1-1.91-2.67,3.63,3.63,0,0,0,.27-.42c.48-.75,1.4-2.23,2.15-3.52l-.28-.6h0l-.23-.52-.25.1c-1.85.93-2.36,3.2-2.24,4.87a3.9,3.9,0,0,0,.12.71,4.3,4.3,0,0,0,2.08,2.56q.39.21.72.36a8.6,8.6,0,0,0,1.36.46v1.45a8.5,8.5,0,0,1-2.46-.35,4.37,4.37,0,0,1-.57-.21l.25.58.05.13.7.2.1,1.67.11.27.2.46.25.56.12.26-.05-.78,0-.6L302,73.4a8.78,8.78,0,0,0,1.16.1l.13,2.2.05.79.14,2.25a4,4,0,0,0,.61.73L304,77.39a2.28,2.28,0,0,0,1.16,1.15c.54.26,1.44-.19,1.95-.52l.32,1.41-1,.56a16.53,16.53,0,0,0,2.32,0h.53l.62-.3a.28.28,0,0,0,.15-.34l-.15-.53"/><path class="cls-3" d="M349.48,80.48l-.24,0-.33,0a1.41,1.41,0,0,1-.57-.17.58.58,0,0,1-.19-.16.55.55,0,0,1-.12-.33l-1.79,0,.47.25a1.39,1.39,0,0,0,.44.13,1,1,0,0,1,.78.46,1,1,0,0,0,.36.22,4.58,4.58,0,0,0,.56.15l.13,0,.88-.52h-.38"/><path class="cls-3" d="M350.52,76.24a6.05,6.05,0,0,0-1.29.49,1.21,1.21,0,0,0-.2.09l-.16.08-.13.1-.11.06a1.19,1.19,0,0,0-.3.15,2.81,2.81,0,0,1-1.32.87,1,1,0,0,1-.94-.56l-.58,1.82c.19.11.47.28.75.42l1.79,0a1,1,0,0,1,0-.16.91.91,0,0,1,.42-.6,1.74,1.74,0,0,1,.41-.2,1,1,0,0,1-.39-.11.83.83,0,0,1-.29-.21.7.7,0,0,1-.16-.54c0-.22.48-.55.57-.62h0a1.37,1.37,0,0,1,.59-.24,1.75,1.75,0,0,1,.56,0,4.75,4.75,0,0,0,.66,0h.23s0-.86-.13-.85"/><path class="cls-3" d="M350.75,79.71H349l-.36,0a1.13,1.13,0,0,0,.35.09l.34,0,.25,0a2.59,2.59,0,0,0,.61,0,5,5,0,0,0,.58-.09l.38-.08h-.37"/><path class="cls-3" d="M352.5,80.21a1.79,1.79,0,0,1-.09-.51h-.92a.24.24,0,0,1,.11.13.26.26,0,0,1-.12.35l-.82.49-.6.35-.63.37a1.94,1.94,0,0,0,.22.34.71.71,0,0,0,.33,0,3.27,3.27,0,0,0,.59,0,8.91,8.91,0,0,0,1.4-.3.87.87,0,0,0,.45-.44,1.13,1.13,0,0,0,.08-.78"/><path class="cls-3" d="M352.4,77.83c0-.58-.55-1-1.09-1.25v.75a.3.3,0,0,1-.1.21.34.34,0,0,1-.22.07h-.62a5,5,0,0,1-.7-.07.85.85,0,0,0-.51.07l-.2.11c-.09.07-.21.05-.23.19s-.12.18-.11.19a.53.53,0,0,0,.35.21l.12,0,.34.12h1.82a.31.31,0,0,1,.26.28.3.3,0,0,1-.24.29l-.46.07c-.18,0-.38,0-.58.06l-.48,0a2,2,0,0,0-.75.15c-.22.08-.37.21-.39.33a.16.16,0,0,0,0,0s0,0,0,0l.36,0h2.15l.15,0a.35.35,0,0,1,.22,0h.92c0-.2,0-.43,0-.69a7.79,7.79,0,0,0,0-1.18"/><path class="cls-3" d="M350.23,65.4v.16L350.09,67l-.64,7.29-.16,1.8.3-.1,1.15-2.3.39-4.27.13-1.4.24-2.57-1.27,0"/><path class="cls-9" d="M333,47.42H319.72a.42.42,0,0,0-.42.41v12c0,3,2.44,6.06,7.08,6.06s7.08-3,7.08-6.06v-12a.42.42,0,0,0-.43-.41"/><path class="cls-2" d="M320.14,59.21v.62c0,2.6,2.14,5.22,6.24,5.22s6.24-2.62,6.24-5.22v-.62H320.14"/><polyline class="cls-2" points="332.62 53.91 332.62 48.26 320.14 48.26 320.14 53.91 332.62 53.91"/><path class="cls-3" d="M350.43,74.29l-1,1.94c.4,0,.75,0,1,0l.18-1.91.06-.6-.31.6"/><polyline class="cls-2" points="775.78 92.76 708.33 92.76 708.33 25.3 775.78 25.3 775.78 92.76"/><text class="cls-10" transform="translate(717.44 80.98)">.<tspan class="cls-11" x="11.48" y="0">at</tspan></text></g></g></svg>